SplineFontDB: 3.0
FontName: WebAtlas-icons-sharp
FullName: WebAtlas-icons-sharp
FamilyName: WebAtlas-icons-sharp
Weight: Regular
Copyright: MIT License 2018, Louis MORAES.
Version: 1.0.1
ItalicAngle: 0
UnderlinePosition: -170
UnderlineWidth: 50
Ascent: 800
Descent: 200
InvalidEm: 0
sfntRevision: 0x00010000
LayerCount: 2
Layer: 0 1 "Arri+AOgA-re" 1
Layer: 1 1 "Avant" 0
XUID: [1021 206 1625637039 22649]
StyleMap: 0x0040
FSType: 8
OS2Version: 3
OS2_WeightWidthSlopeOnly: 0
OS2_UseTypoMetrics: 0
CreationTime: 1375896762
ModificationTime: 1576622861
PfmFamily: 81
TTFWeight: 400
TTFWidth: 5
LineGap: 0
VLineGap: 0
Panose: 0 0 5 0 0 0 0 0 0 0
OS2TypoAscent: 700
OS2TypoAOffset: 0
OS2TypoDescent: -201
OS2TypoDOffset: 0
OS2TypoLinegap: 299
OS2WinAscent: 999
OS2WinAOffset: 0
OS2WinDescent: 201
OS2WinDOffset: 0
HheadAscent: 999
HheadAOffset: 0
HheadDescent: -201
HheadDOffset: 0
OS2SubXSize: 650
OS2SubYSize: 600
OS2SubXOff: 0
OS2SubYOff: 75
OS2SupXSize: 650
OS2SupYSize: 600
OS2SupXOff: 0
OS2SupYOff: 350
OS2StrikeYSize: 50
OS2StrikeYPos: 292
OS2CapHeight: 690
OS2XHeight: 487
OS2Vendor: 'UKWN'
OS2CodePages: 20000097.00000000
OS2UnicodeRanges: 00002eff.00000000.00000000.00000000
Lookup: 258 0 0 "'kern' Cr+AOkA-nage horizontal lookups0" { "'kern' Cr+AOkA-nage horizontal lookups0 per glyph data 0"  "'kern' Cr+AOkA-nage horizontal lookups0 classe de cr+AOkA-nage 1"  "'kern' Cr+AOkA-nage horizontal lookups0 classe de cr+AOkA-nage 2"  "'kern' Cr+AOkA-nage horizontal lookups0 classe de cr+AOkA-nage 3"  } ['kern' ('DFLT' <'dflt' > 'cyrl' <'dflt' > 'grek' <'dflt' > 'latn' <'dflt' > ) ]
MarkAttachClasses: 1
DEI: 91125
TtTable: prep
MPPEM
PUSHW_1
 200
GT
IF
PUSHB_2
 1
 1
INSTCTRL
EIF
PUSHW_2
 2048
 2048
MUL
DUP
PUSHB_1
 1
SWAP
WCVTP
DUP
PUSHB_1
 3
SWAP
WCVTF
PUSHB_1
 20
RCVT
DUP
DUP
MPPEM
PUSHB_1
 14
LTEQ
MPPEM
PUSHB_1
 6
GTEQ
AND
IF
PUSHB_1
 52
ELSE
PUSHB_1
 40
EIF
ADD
FLOOR
DUP
ROLL
NEQ
IF
PUSHB_1
 2
CINDEX
SUB
PUSHB_1
 1
RCVT
MUL
SWAP
DIV
PUSHB_1
 2
SWAP
WCVTP
PUSHB_4
 10
 10
 5
 4
CALL

StartChar: asterisk
Encoding: 42 42 3
Width: 604
VWidth: 0
GlyphClass: 2
Flags: W
LayerCount: 2
Fore
SplineSet
286.506835938 760.189453125 m 1,0,-1
 352.989257812 760.197265625 l 1,1,2
 353.085340074 733.44759689 353.085340074 733.44759689 353.278320312 680.4296875 c 2,3,-1
 353.297851562 674.96875 l 1,4,-1
 358.044921875 676.63671875 l 1,5,-1
 433.609375 701.029296875 l 1,6,-1
 456.135742188 631.771484375 l 1,7,8
 433.073213465 624.201600797 433.073213465 624.201600797 415.661132812 618.455078125 c 0,9,10
 389.494628906 609.819824219 389.494628906 609.819824219 380.383789062 606.833007812 c 2,11,-1
 375.188476562 605.129882812 l 1,12,-1
 378.383789062 600.693359375 l 2,13,14
 417.326660156 546.645019531 417.326660156 546.645019531 425.03125 536.04296875 c 2,15,-1
 432.848632812 522.387695312 l 1,16,-1
 366.075195312 493.25390625 l 1,17,-1
 342.938476562 527.315429688 l 2,18,19
 326.346342678 552.105463006 326.346342678 552.105463006 322.6953125 557.5703125 c 2,20,-1
 319.748046875 561.98046875 l 1,21,-1
 316.80078125 557.5703125 l 1,22,-1
 273.427734375 493.299804688 l 1,23,-1
 214.553710938 536.090820312 l 1,24,25
 228.185127528 554.99927811 228.185127528 554.99927811 239.404296875 570.538085938 c 0,26,27
 256.254394531 593.881835938 256.254394531 593.881835938 261.166992188 600.692382812 c 2,28,-1
 264.362304688 605.123046875 l 1,29,-1
 259.172851562 606.831054688 l 1,30,-1
 183.430664062 631.76171875 l 1,31,-1
 205.890625 701.018554688 l 1,32,33
 226.05608341 694.501953125 226.05608341 694.501953125 243.169921875 689.034179688 c 0,34,35
 268.876464844 680.819335938 268.876464844 680.819335938 281.440429688 676.639648438 c 2,36,-1
 286.200195312 674.952148438 l 1,37,-1
 286.217773438 680.431640625 l 2,38,39
 286.256657092 692.594179735 286.256657092 692.594179735 286.357421875 720.321289062 c 2,40,-1
 286.506835938 760.189453125 l 1,0,-1
EndSplineSet
EndChar

StartChar: plus
Encoding: 43 43 4
Width: 684
VWidth: 37
GlyphClass: 2
Flags: W
LayerCount: 2
Fore
SplineSet
107.877929688 385.432617188 m 1,0,-1
 305.390625 385.432617188 l 1,1,-1
 305.390625 587.791015625 l 1,2,-1
 386.506835938 587.791015625 l 1,3,-1
 386.506835938 385.432617188 l 1,4,-1
 584.122070312 385.432617188 l 1,5,-1
 584.122070312 304.318359375 l 1,6,-1
 386.506835938 304.318359375 l 1,7,-1
 386.506835938 101.9609375 l 1,8,-1
 305.390625 101.9609375 l 1,9,-1
 305.390625 304.318359375 l 1,10,-1
 107.877929688 304.318359375 l 1,11,-1
 107.877929688 385.432617188 l 1,0,-1
EndSplineSet
EndChar

StartChar: hyphen
Encoding: 45 45 5
Width: 684
VWidth: 37
GlyphClass: 2
Flags: W
LayerCount: 2
Fore
SplineSet
107.877929688 304.318359375 m 1,0,-1
 107.877929688 385.432617188 l 1,1,-1
 584.122070312 385.432617188 l 1,2,-1
 584.122070312 304.318359375 l 1,3,-1
 107.877929688 304.318359375 l 1,0,-1
EndSplineSet
EndChar

StartChar: less
Encoding: 60 60 6
Width: 537
GlyphClass: 2
Flags: W
LayerCount: 2
Fore
SplineSet
47.74609375 386.006835938 m 2,0,-1
 465.524414062 591.01171875 l 1,1,-1
 501.08984375 517.875 l 1,2,-1
 157.967773438 349.500976562 l 1,3,-1
 501.130859375 181.107421875 l 1,4,-1
 465.580078125 107.961914062 l 1,5,-1
 47.74609375 312.995117188 l 2,6,7
 38.3294087823 317.617773551 38.3294087823 317.617773551 31.6650390625 328.314453125 c 128,-1,8
 25 339.010742188 25 339.010742188 25 349.500976562 c 128,-1,9
 25 359.990722656 25 359.990722656 31.6650390625 370.686523438 c 128,-1,10
 38.3302852879 381.384609852 38.3302852879 381.384609852 47.74609375 386.006835938 c 2,0,-1
EndSplineSet
EndChar

StartChar: greater
Encoding: 62 62 7
Width: 537
GlyphClass: 2
Flags: W
LayerCount: 2
Fore
SplineSet
478.384765625 386.006835938 m 2,0,1
 487.80078125 381.384765625 487.80078125 381.384765625 494.465820312 370.686523438 c 128,-1,2
 501.130859375 359.990234375 501.130859375 359.990234375 501.130859375 349.500976562 c 128,-1,3
 501.130859375 339.010742188 501.130859375 339.010742188 494.465820312 328.314453125 c 128,-1,4
 487.801757812 317.618164062 487.801757812 317.618164062 478.384765625 312.995117188 c 2,5,-1
 60.55078125 107.961914062 l 1,6,-1
 25 181.107421875 l 1,7,-1
 368.163085938 349.500976562 l 1,8,-1
 25.041015625 517.875 l 1,9,-1
 60.6064453125 591.01171875 l 1,10,-1
 478.384765625 386.006835938 l 2,0,1
EndSplineSet
EndChar

StartChar: Amacron
Encoding: 256 256 8
Width: 1474
GlyphClass: 2
Flags: W
LayerCount: 2
Fore
SplineSet
1207 892 m 1,0,-1
 1394 705 l 1,1,-1
 592 -97 l 1,2,-1
 80 415 l 1,3,-1
 267 602 l 1,4,-1
 592 277 l 1,5,-1
 1207 892 l 1,0,-1
EndSplineSet
Validated: 1
EndChar

StartChar: amacron
Encoding: 257 257 9
Width: 1155
GlyphClass: 2
Flags: W
LayerCount: 2
Fore
SplineSet
252 898 m 1,0,-1
 578 572 l 1,1,-1
 903 898 l 1,2,-1
 1075 726 l 1,3,-1
 750 400 l 1,4,-1
 1075 74 l 1,5,-1
 903 -98 l 1,6,-1
 578 228 l 1,7,-1
 252 -98 l 1,8,-1
 80 74 l 1,9,-1
 406 400 l 1,10,-1
 80 726 l 1,11,-1
 252 898 l 1,0,-1
EndSplineSet
Validated: 1
EndChar

StartChar: Abreve
Encoding: 258 258 10
Width: 1468
GlyphClass: 2
Flags: W
LayerCount: 2
Fore
SplineSet
1188.5 899 m 4,0,1
 1199.5 900 1199.5 900 1207.5 892 c 6,2,-1
 1378.5 721 l 6,3,4
 1397.5 702 1397.5 702 1378.5 683 c 6,5,-1
 615.5 -80 l 6,6,7
 596.5 -99 596.5 -99 577.5 -80 c 6,8,-1
 89.5 408 l 6,9,10
 70.5 427 70.5 427 89.5 446 c 6,11,-1
 259.5 617 l 6,12,13
 278.5 636 278.5 636 297.5 617 c 6,14,-1
 596.5 318 l 5,15,-1
 1169.5 892 l 6,16,17
 1177.5 899 1177.5 899 1188.5 899 c 4,0,1
EndSplineSet
Validated: 33
EndChar

StartChar: abreve
Encoding: 259 259 11
Width: 1164
GlyphClass: 2
Flags: W
LayerCount: 2
Fore
SplineSet
878.5 904 m 260,0,1
 889.5 904 889.5 904 897.5 896 c 6,2,-1
 1069.5 724 l 6,3,4
 1088.5 705 1088.5 705 1069.5 686 c 6,5,-1
 790.5 407 l 5,6,-1
 1074.5 123 l 6,7,8
 1094.5 104 1094.5 104 1074.5 84 c 6,9,-1
 903.5 -87 l 6,10,11
 884.5 -106 884.5 -106 865.5 -87 c 6,12,-1
 580.5 198 l 5,13,-1
 298.5 -84 l 6,14,15
 279.5 -103 279.5 -103 260.5 -84 c 6,16,-1
 89.5 87 l 6,17,18
 70.5 106 70.5 106 89.5 125 c 6,19,-1
 371.5 407 l 5,20,-1
 95.5 683 l 6,21,22
 76.5 702 76.5 702 95.5 721 c 6,23,-1
 266.5 892 l 6,24,25
 286.5 912 286.5 912 305.5 892 c 6,26,-1
 580.5 617 l 5,27,-1
 859.5 896 l 6,28,29
 867.5 904 867.5 904 878.5 904 c 260,0,1
EndSplineSet
Validated: 33
EndChar

StartChar: aogonek
Encoding: 261 261 12
Width: 1156
GlyphClass: 2
Flags: W
LayerCount: 2
Fore
SplineSet
306 900 m 0,0,1
 318 900 318 900 326 892 c 2,2,-1
 578 640 l 1,3,-1
 830 892 l 2,4,5
 849 912 849 912 869 892 c 2,6,-1
 1066 695 l 2,7,8
 1086 675 1086 675 1066 656 c 2,9,-1
 814 404 l 1,10,-1
 1066 152 l 2,11,12
 1086 133 1086 133 1066 113 c 2,13,-1
 869 -84 l 2,14,15
 849 -104 849 -104 830 -84 c 2,16,-1
 578 168 l 1,17,-1
 326 -84 l 2,18,19
 307 -104 307 -104 287 -84 c 2,20,-1
 90 113 l 2,21,22
 70 133 70 133 90 152 c 2,23,-1
 342 404 l 1,24,-1
 90 656 l 2,25,26
 70 675 70 675 90 695 c 2,27,-1
 287 892 l 2,28,29
 295 900 295 900 306 900 c 0,0,1
EndSplineSet
Validated: 33
EndChar

StartChar: Cacute
Encoding: 262 262 13
Width: 1511
GlyphClass: 2
Flags: W
LayerCount: 2
Fore
SplineSet
1257 904 m 0,0,1
 1259 904 1259 904 1262 904 c 0,2,3
 1332 904 1332 904 1381.5 854 c 128,-1,4
 1431 804 1431 804 1431 734 c 0,5,6
 1431 662 1431 662 1380 612 c 2,7,-1
 723 -45 l 2,8,9
 673 -95 673 -95 602.5 -95 c 128,-1,10
 532 -95 532 -95 482 -45 c 2,11,-1
 133 305 l 2,12,13
 80 355 80 355 80 427 c 0,14,15
 80 497 80 497 130 547 c 128,-1,16
 180 597 180 597 250 597 c 0,17,18
 323 597 323 597 373 545 c 2,19,-1
 602 315 l 1,20,-1
 1140 852 l 2,21,22
 1188 902 1188 902 1257 904 c 0,0,1
EndSplineSet
Validated: 1
EndChar

StartChar: cacute
Encoding: 263 263 14
Width: 1149
GlyphClass: 2
Flags: W
LayerCount: 2
Fore
SplineSet
247 897 m 1,0,-1
 247 897 l 1,1,2
 318 897 318 897 367 846 c 2,3,-1
 575 639 l 1,4,-1
 782 846 l 2,5,6
 830 895 830 895 897 897 c 0,7,8
 900 897 900 897 902 897 c 0,9,10
 971 897 971 897 1020 848 c 128,-1,11
 1069 799 1069 799 1069 730 c 0,12,13
 1069 659 1069 659 1019 610 c 2,14,-1
 811 402 l 1,15,-1
 1019 194 l 2,16,17
 1069 145 1069 145 1069 75 c 0,18,19
 1069 6 1069 6 1020 -43 c 128,-1,20
 971 -92 971 -92 902 -92 c 0,21,22
 832 -92 832 -92 782 -42 c 2,23,-1
 575 166 l 1,24,-1
 367 -42 l 2,25,26
 318 -92 318 -92 247 -92 c 0,27,28
 178 -92 178 -92 129 -43 c 128,-1,29
 80 6 80 6 80 75 c 0,30,31
 80 145 80 145 131 194 c 2,32,-1
 338 402 l 1,33,-1
 131 610 l 2,34,35
 80 659 80 659 80 730 c 0,36,37
 80 799 80 799 129 848 c 128,-1,38
 178 897 178 897 247 897 c 1,0,-1
EndSplineSet
Validated: 1
EndChar

StartChar: Ccircumflex
Encoding: 264 264 15
Width: 1168
GlyphClass: 2
Flags: W
LayerCount: 2
Fore
SplineSet
375.426757812 -87 m 0,0,1
 332.426757812 -73 332.426757812 -73 297.926757812 -37.5 c 128,-1,2
 263.426757812 -2 263.426757812 -2 216.426757812 78 c 0,3,4
 55.4267578125 352 55.4267578125 352 84.4267578125 412 c 0,5,6
 105.426757812 457 105.426757812 457 177.426757812 423 c 0,7,8
 229.426757812 399 229.426757812 399 298.426757812 309 c 0,9,10
 359.426757812 231 359.426757812 231 400.426757812 211 c 0,11,12
 425.426757812 199 425.426757812 199 450.926757812 199 c 128,-1,13
 476.426757812 199 476.426757812 199 500.426757812 211 c 0,14,15
 561.426757812 240 561.426757812 240 640.926757812 334.5 c 128,-1,16
 720.426757812 429 720.426757812 429 873.426757812 655 c 0,17,18
 1007.42675781 852 1007.42675781 852 1052.42675781 887 c 0,19,20
 1082.42675781 911 1082.42675781 911 1087.42675781 891 c 0,21,22
 1096.42675781 857 1096.42675781 857 1043.42675781 735 c 0,23,24
 978.426757812 586 978.426757812 586 851.426757812 377 c 0,25,26
 733.426757812 184 733.426757812 184 643.426757812 74 c 128,-1,27
 553.426757812 -36 553.426757812 -36 483.426757812 -71 c 0,28,29
 422.426757812 -102 422.426757812 -102 375.426757812 -87 c 0,0,1
EndSplineSet
Validated: 33
EndChar

StartChar: ccircumflex
Encoding: 265 265 16
Width: 1101
GlyphClass: 2
Flags: W
LayerCount: 2
Fore
SplineSet
945.727539062 -123 m 0,0,1
 891.727539062 -103 891.727539062 -103 800.727539062 -16 c 0,2,3
 769.727539062 13 769.727539062 13 678.727539062 102 c 0,4,5
 556.727539062 221 556.727539062 221 544.727539062 224 c 0,6,7
 537.727539062 225 537.727539062 225 506.727539062 195 c 0,8,9
 405.727539062 97 405.727539062 97 267.727539062 -27 c 0,10,11
 195.727539062 -91 195.727539062 -91 155.727539062 -91 c 0,12,13
 118.727539062 -91 118.727539062 -91 94.7275390625 -45 c 0,14,15
 76.7275390625 -9 76.7275390625 -9 80.7275390625 34 c 0,16,17
 85.7275390625 91 85.7275390625 91 129.727539062 160 c 0,18,19
 177.727539062 234 177.727539062 234 309.727539062 367 c 2,20,-1
 392.727539062 451 l 1,21,-1
 333.727539062 527 l 2,22,23
 168.727539062 739 168.727539062 739 130.727539062 817 c 0,24,25
 89.7275390625 902 89.7275390625 902 137.727539062 902 c 0,26,27
 204.727539062 902 204.727539062 902 475.727539062 665 c 0,28,29
 538.727539062 611 538.727539062 611 545.227539062 606.5 c 128,-1,30
 551.727539062 602 551.727539062 602 587.727539062 637 c 0,31,32
 712.727539062 755 712.727539062 755 765.727539062 788 c 0,33,34
 800.727539062 810 800.727539062 810 822.727539062 810 c 0,35,36
 858.727539062 810 858.727539062 810 861.727539062 763 c 0,37,38
 865.727539062 694 865.727539062 694 761.727539062 510 c 0,39,40
 720.727539062 438 720.727539062 438 722.727539062 426 c 0,41,42
 724.727539062 418 724.727539062 418 754.727539062 384 c 0,43,44
 900.727539062 220 900.727539062 220 977.727539062 65 c 0,45,46
 1051.72753906 -83 1051.72753906 -83 999.727539062 -121 c 0,47,48
 979.727539062 -135 979.727539062 -135 945.727539062 -123 c 0,0,1
EndSplineSet
Validated: 33
EndChar

StartChar: Cdotaccent
Encoding: 266 266 17
Width: 1578
GlyphClass: 2
Flags: W
LayerCount: 2
Fore
SplineSet
1359 896 m 0,0,1
 1361 896 1361 896 1363 896 c 0,2,3
 1419 896 1419 896 1458.5 856.5 c 128,-1,4
 1498 817 1498 817 1498 762 c 0,5,6
 1498 738 1498 738 1486 710 c 128,-1,7
 1474 682 1474 682 1457 665 c 2,8,-1
 736 -56 l 2,9,10
 720 -72 720 -72 692 -83.5 c 128,-1,11
 664 -95 664 -95 641 -95 c 128,-1,12
 618 -95 618 -95 590 -83.5 c 128,-1,13
 562 -72 562 -72 546 -56 c 2,14,-1
 121 370 l 2,15,16
 104 386 104 386 92 414.5 c 128,-1,17
 80 443 80 443 80 466 c 0,18,19
 80 522 80 522 119.5 561.5 c 128,-1,20
 159 601 159 601 214 601 c 0,21,22
 238 601 238 601 266 589 c 128,-1,23
 294 577 294 577 311 560 c 2,24,-1
 641 230 l 1,25,-1
 1267 855 l 2,26,27
 1282 871 1282 871 1309.5 883 c 128,-1,28
 1337 895 1337 895 1359 896 c 0,0,1
EndSplineSet
Validated: 1
EndChar

StartChar: cdotaccent
Encoding: 267 267 18
Width: 1153
GlyphClass: 2
Flags: W
LayerCount: 2
Fore
SplineSet
215 896 m 0,0,1
 238 896 238 896 266.5 884 c 128,-1,2
 295 872 295 872 311 855 c 2,3,-1
 577 590 l 1,4,-1
 842 855 l 2,5,6
 858 871 858 871 885 883 c 128,-1,7
 912 895 912 895 934 896 c 0,8,9
 936 896 936 896 938 896 c 0,10,11
 994 896 994 896 1033.5 856.5 c 128,-1,12
 1073 817 1073 817 1073 762 c 0,13,14
 1073 738 1073 738 1061 710 c 128,-1,15
 1049 682 1049 682 1032 665 c 2,16,-1
 767 400 l 1,17,-1
 1032 135 l 2,18,19
 1049 118 1049 118 1061 90 c 128,-1,20
 1073 62 1073 62 1073 38 c 0,21,22
 1073 -17 1073 -17 1033.5 -56.5 c 128,-1,23
 994 -96 994 -96 938 -96 c 0,24,25
 915 -96 915 -96 886.5 -84 c 128,-1,26
 858 -72 858 -72 842 -56 c 2,27,-1
 577 210 l 1,28,-1
 311 -56 l 2,29,30
 295 -72 295 -72 266.5 -84 c 128,-1,31
 238 -96 238 -96 215 -96 c 0,32,33
 159 -96 159 -96 119.5 -56.5 c 128,-1,34
 80 -17 80 -17 80 38 c 0,35,36
 80 62 80 62 92 90 c 128,-1,37
 104 118 104 118 121 135 c 2,38,-1
 386 400 l 1,39,-1
 121 665 l 2,40,41
 104 682 104 682 92 710 c 128,-1,42
 80 738 80 738 80 762 c 0,43,44
 80 817 80 817 119.5 856.5 c 128,-1,45
 159 896 159 896 215 896 c 0,0,1
EndSplineSet
Validated: 1
EndChar

StartChar: Tcaron
Encoding: 356 356 19
Width: 1160
VWidth: 100
GlyphClass: 2
Flags: W
LayerCount: 2
Fore
SplineSet
579.995117188 321.500976562 m 128,-1,1
 547.499023438 321.500976562 547.499023438 321.500976562 524.5 344.5 c 128,-1,2
 501.501953125 367.498046875 501.501953125 367.498046875 501.501953125 399.994140625 c 128,-1,3
 501.501953125 432.489257812 501.501953125 432.489257812 524.500976562 455.48828125 c 128,-1,4
 547.499023438 478.486328125 547.499023438 478.486328125 579.995117188 478.486328125 c 128,-1,5
 612.491210938 478.486328125 612.491210938 478.486328125 635.489257812 455.48828125 c 128,-1,6
 658.48828125 432.489257812 658.48828125 432.489257812 658.48828125 399.994140625 c 128,-1,7
 658.48828125 367.498046875 658.48828125 367.498046875 635.490234375 344.5 c 128,-1,0
 612.491210938 321.500976562 612.491210938 321.500976562 579.995117188 321.500976562 c 128,-1,1
784.006835938 126.337890625 m 1,8,-1
 710.743164062 199.6015625 l 1,9,10
 793.751953125 282.610351562 793.751953125 282.610351562 793.751953125 399.9921875 c 128,-1,11
 793.751953125 517.375 793.751953125 517.375 710.743164062 600.383789062 c 1,12,-1
 784.006835938 673.647460938 l 1,13,14
 838.439453125 619.211914062 838.439453125 619.211914062 867.8984375 548.091796875 c 128,-1,15
 897.357421875 476.971679688 897.357421875 476.971679688 897.357421875 399.9921875 c 128,-1,16
 897.357421875 323.012695312 897.357421875 323.012695312 867.8984375 251.892578125 c 128,-1,17
 838.439453125 180.7734375 838.439453125 180.7734375 784.006835938 126.337890625 c 1,8,-1
913.158203125 -2.8310546875 m 1,18,-1
 840.19921875 70.12890625 l 1,19,20
 905.80859375 135.734375 905.80859375 135.734375 941.318359375 221.458007812 c 128,-1,21
 976.827148438 307.180664062 976.827148438 307.180664062 976.827148438 399.966796875 c 128,-1,22
 976.827148438 492.751953125 976.827148438 492.751953125 941.318359375 578.475585938 c 128,-1,23
 905.80859375 664.198242188 905.80859375 664.198242188 840.19921875 729.803710938 c 1,24,-1
 913.158203125 802.763671875 l 1,25,26
 993.27734375 722.639648438 993.27734375 722.639648438 1036.63867188 617.95703125 c 128,-1,27
 1080 513.274414062 1080 513.274414062 1080 399.966796875 c 128,-1,28
 1080 286.658203125 1080 286.658203125 1036.63867188 181.975585938 c 128,-1,29
 993.27734375 77.29296875 993.27734375 77.29296875 913.158203125 -2.8310546875 c 1,18,-1
375.970703125 673.662109375 m 1,30,-1
 449.234375 600.3984375 l 1,31,32
 366.225585938 517.389648438 366.225585938 517.389648438 366.225585938 400.006835938 c 128,-1,33
 366.225585938 282.625 366.225585938 282.625 449.234375 199.616210938 c 1,34,-1
 375.970703125 126.352539062 l 1,35,36
 321.5390625 180.787109375 321.5390625 180.787109375 292.080078125 251.907226562 c 128,-1,37
 262.62109375 323.02734375 262.62109375 323.02734375 262.62109375 400.006835938 c 128,-1,38
 262.62109375 476.987304688 262.62109375 476.987304688 292.080078125 548.107421875 c 128,-1,39
 321.5390625 619.227539062 321.5390625 619.227539062 375.970703125 673.662109375 c 1,30,-1
246.841796875 802.831054688 m 1,40,-1
 319.80078125 729.87109375 l 1,41,42
 254.19140625 664.265625 254.19140625 664.265625 218.681640625 578.54296875 c 128,-1,43
 183.172851562 492.819335938 183.172851562 492.819335938 183.172851562 400.034179688 c 128,-1,44
 183.172851562 307.248046875 183.172851562 307.248046875 218.681640625 221.525390625 c 128,-1,45
 254.19140625 135.801757812 254.19140625 135.801757812 319.80078125 70.1962890625 c 1,46,-1
 246.841796875 -2.763671875 l 1,47,48
 166.721679688 77.359375 166.721679688 77.359375 123.361328125 182.04296875 c 128,-1,49
 80 286.725585938 80 286.725585938 80 400.034179688 c 128,-1,50
 80 513.341796875 80 513.341796875 123.361328125 618.024414062 c 128,-1,51
 166.721679688 722.708007812 166.721679688 722.708007812 246.841796875 802.831054688 c 1,40,-1
EndSplineSet
EndChar

StartChar: uni01D4
Encoding: 468 468 20
Width: 1302
VWidth: 1200
Flags: W
LayerCount: 2
Fore
SplineSet
651.35546875 900 m 1,0,-1
 1222.35546875 -99.9990234375 l 1,1,-1
 80 -99.9990234375 l 1,2,-1
 651.35546875 900 l 1,0,-1
700.859375 138.903320312 m 1,3,-1
 601.91796875 138.903320312 l 1,4,-1
 601.91796875 41.0029296875 l 1,5,-1
 700.859375 41.0029296875 l 1,6,-1
 700.859375 138.903320312 l 1,3,-1
700.859375 522.923828125 m 1,7,-1
 601.91796875 522.923828125 l 1,8,-1
 601.91796875 236.774414062 l 1,9,-1
 700.859375 236.774414062 l 1,10,-1
 700.859375 522.923828125 l 1,7,-1
EndSplineSet
EndChar

StartChar: uni01D5
Encoding: 469 469 21
Width: 365
VWidth: 1100
Flags: W
LayerCount: 2
Fore
SplineSet
285.306640625 103.145507812 m 1,0,-1
 285.306640625 -100 l 1,1,-1
 80 -100 l 1,2,-1
 80 103.145507812 l 1,3,-1
 285.306640625 103.145507812 l 1,0,-1
285.306640625 900 m 1,4,-1
 285.306640625 306.231445312 l 1,5,-1
 80 306.231445312 l 1,6,-1
 80 900 l 1,7,-1
 285.306640625 900 l 1,4,-1
EndSplineSet
EndChar

StartChar: uni0222
Encoding: 546 546 22
Width: 1160
VWidth: 1100
Flags: W
LayerCount: 2
Fore
SplineSet
486.6875 900 m 1,0,-1
 673.313476562 900 l 1,1,-1
 673.313476562 789.65625 l 1,2,3
 735.86328125 774.27734375 735.86328125 774.27734375 789.185546875 741.462890625 c 1,4,-1
 867.385742188 819.663085938 l 1,5,-1
 999.663085938 687.384765625 l 1,6,-1
 921.463867188 609.184570312 l 1,7,8
 955.301757812 554.837890625 955.301757812 554.837890625 969.657226562 493.3125 c 1,9,-1
 1080 493.3125 l 1,10,-1
 1080 306.6875 l 1,11,-1
 969.657226562 306.6875 l 1,12,13
 955.302734375 244.13671875 955.302734375 244.13671875 921.463867188 189.791015625 c 1,14,-1
 999.6640625 111.590820312 l 1,15,-1
 867.387695312 -19.6630859375 l 1,16,-1
 790.2109375 57.5126953125 l 1,17,18
 735.86328125 24.697265625 735.86328125 24.697265625 673.314453125 9.3173828125 c 1,19,-1
 673.314453125 -100 l 1,20,-1
 486.6875 -100 l 1,21,-1
 486.6875 9.3173828125 l 1,22,23
 424.13671875 24.6982421875 424.13671875 24.6982421875 369.791015625 57.5126953125 c 1,24,-1
 292.615234375 -19.6630859375 l 1,25,-1
 160.336914062 111.590820312 l 1,26,-1
 238.537109375 189.791015625 l 1,27,28
 204.69921875 244.138671875 204.69921875 244.138671875 190.34375 306.6875 c 1,29,-1
 80 306.6875 l 1,30,-1
 80 493.3125 l 1,31,-1
 190.34375 493.3125 l 1,32,33
 204.69921875 554.837890625 204.69921875 554.837890625 238.537109375 609.184570312 c 1,34,-1
 160.336914062 687.384765625 l 1,35,-1
 291.590820312 819.663085938 l 1,36,-1
 369.791015625 741.462890625 l 1,37,38
 424.138671875 774.27734375 424.138671875 774.27734375 486.6875 789.65625 c 1,39,-1
 486.6875 900 l 1,0,-1
580 621.356445312 m 128,-1,41
 487.765625 621.356445312 487.765625 621.356445312 423.204101562 556.794921875 c 128,-1,42
 358.640625 492.232421875 358.640625 492.232421875 358.642578125 400 c 128,-1,43
 358.642578125 307.767578125 358.642578125 307.767578125 423.204101562 243.205078125 c 128,-1,44
 487.767578125 178.642578125 487.767578125 178.642578125 580 178.642578125 c 128,-1,45
 672.232421875 178.642578125 672.232421875 178.642578125 736.794921875 243.205078125 c 128,-1,46
 801.357421875 307.767578125 801.357421875 307.767578125 801.356445312 400 c 128,-1,47
 801.356445312 492.232421875 801.356445312 492.232421875 736.794921875 556.794921875 c 128,-1,40
 672.232421875 621.357421875 672.232421875 621.357421875 580 621.356445312 c 128,-1,41
EndSplineSet
EndChar

StartChar: uni0223
Encoding: 547 547 23
Width: 1358
Flags: W
LayerCount: 2
Fore
SplineSet
835 899 m 2,0,-1
 945 899 l 2,1,2
 962 899 962 899 962 882 c 2,3,-1
 962 812 l 1,4,5
 1010 801 1010 801 1052 775 c 1,6,-1
 1101 824 l 2,7,8
 1113 836 1113 836 1125 824 c 2,9,-1
 1204 746 l 2,10,11
 1216 734 1216 734 1204 722 c 2,12,-1
 1154 673 l 1,13,14
 1180 631 1180 631 1192 583 c 1,15,-1
 1261 583 l 2,16,17
 1278 583 1278 583 1278 566 c 2,18,-1
 1278 455 l 2,19,20
 1278 438 1278 438 1261 438 c 2,21,-1
 1192 438 l 1,22,23
 1180 390 1180 390 1154 348 c 1,24,-1
 1203 299 l 2,25,26
 1215 287 1215 287 1203 275 c 2,27,-1
 1125 197 l 2,28,29
 1113 185 1113 185 1101 197 c 2,30,-1
 1052 246 l 1,31,32
 1010 220 1010 220 962 209 c 1,33,-1
 962 140 l 2,34,35
 962 123 962 123 945 123 c 2,36,-1
 835 123 l 2,37,38
 818 123 818 123 818 140 c 2,39,-1
 818 209 l 1,40,41
 769 220 769 220 728 246 c 1,42,-1
 679 197 l 2,43,44
 667 185 667 185 655 197 c 2,45,-1
 577 275 l 2,46,47
 564 287 564 287 577 299 c 2,48,-1
 625 348 l 1,49,50
 600 390 600 390 588 438 c 1,51,-1
 519 438 l 2,52,53
 502 438 502 438 502 455 c 2,54,-1
 502 566 l 2,55,56
 502 583 502 583 519 583 c 2,57,-1
 588 583 l 1,58,59
 600 631 600 631 625 673 c 1,60,-1
 576 722 l 2,61,62
 564 734 564 734 576 746 c 2,63,-1
 654 824 l 2,64,65
 666 836 666 836 678 824 c 2,66,-1
 728 775 l 1,67,68
 769 801 769 801 818 812 c 1,69,-1
 818 882 l 2,70,71
 818 899 818 899 835 899 c 2,0,-1
890 692 m 128,-1,73
 815 692 815 692 762 639 c 128,-1,74
 709 586 709 586 709 511 c 128,-1,75
 709 436 709 436 762 383 c 128,-1,76
 815 330 815 330 890 330 c 128,-1,77
 965 330 965 330 1018 383 c 128,-1,78
 1071 436 1071 436 1071 511 c 128,-1,79
 1071 586 1071 586 1018 639 c 128,-1,72
 965 692 965 692 890 692 c 128,-1,73
314 445 m 2,80,-1
 391 443 l 2,81,82
 403 443 403 443 402 432 c 2,83,-1
 402 383 l 1,84,85
 435 375 435 375 464 357 c 1,86,-1
 498 390 l 2,87,88
 506 398 506 398 515 390 c 2,89,-1
 568 335 l 2,90,91
 576 327 576 327 568 319 c 2,92,-1
 533 285 l 1,93,94
 551 256 551 256 558 223 c 1,95,-1
 606 222 l 2,96,97
 618 222 618 222 617 210 c 2,98,-1
 616 134 l 2,99,100
 616 122 616 122 604 122 c 2,101,-1
 556 123 l 1,102,103
 548 90 548 90 530 61 c 1,104,-1
 563 27 l 2,105,106
 571 18 571 18 563 10 c 2,107,-1
 508 -43 l 2,108,109
 500 -51 500 -51 491 -43 c 2,110,-1
 458 -9 l 1,111,112
 429 -26 429 -26 396 -34 c 1,113,-1
 395 -81 l 2,114,115
 395 -93 395 -93 383 -93 c 2,116,-1
 307 -92 l 2,117,118
 295 -92 295 -92 295 -80 c 2,119,-1
 296 -32 l 1,120,121
 263 -24 263 -24 234 -5 c 1,122,-1
 199 -39 l 2,123,124
 191 -47 191 -47 183 -39 c 2,125,-1
 130 16 l 2,126,127
 121 25 121 25 130 33 c 2,128,-1
 164 66 l 1,129,130
 147 96 147 96 139 129 c 1,131,-1
 91 129 l 2,132,133
 80 130 80 130 80 141 c 2,134,-1
 81 218 l 2,135,136
 81 230 81 230 93 229 c 2,137,-1
 141 229 l 1,138,139
 149 262 149 262 168 291 c 1,140,-1
 134 325 l 2,141,142
 126 333 126 333 134 342 c 2,143,-1
 189 395 l 2,144,145
 197 403 197 403 206 395 c 2,146,-1
 239 360 l 1,147,148
 269 378 269 378 302 385 c 1,149,-1
 303 433 l 2,150,151
 303 445 303 445 314 445 c 2,80,-1
350.5 301 m 128,-1,153
 299 302 299 302 261.5 265.5 c 128,-1,154
 224 229 224 229 223.5 177.5 c 128,-1,155
 223 126 223 126 259 88.5 c 128,-1,156
 295 51 295 51 346.5 50.5 c 128,-1,157
 398 50 398 50 435.5 86 c 128,-1,158
 473 122 473 122 473.5 174 c 128,-1,159
 474 226 474 226 438 263 c 128,-1,152
 402 300 402 300 350.5 301 c 128,-1,153
EndSplineSet
Validated: 33
EndChar

StartChar: uni01AD
Encoding: 429 429 24
Width: 1161
Flags: W
LayerCount: 2
Fore
SplineSet
801.75 625.75 m 5,0,-1
 515.25 338.75 l 1,1,-1
 365.75 488.25 l 1,2,-1
 261.75 383.75 l 1,3,-1
 505.75 139.75 l 2,4,5
 515.25 130.25 515.25 130.25 524.75 139.75 c 2,6,-1
 906.25 521.25 l 6,7,-1
 801.75 625.75 l 5,0,-1
580.8203125 -99.8095703125 m 128,-1,9
 373.760742188 -99.8095703125 373.760742188 -99.8095703125 226.879882812 46.5595703125 c 128,-1,10
 80 192.9296875 80 192.9296875 80 399.990234375 c 128,-1,11
 80 607.049804688 80 607.049804688 226.879882812 753.9296875 c 128,-1,12
 373.760742188 900.809570312 373.760742188 900.809570312 580.8203125 900.809570312 c 128,-1,13
 787.879882812 900.809570312 787.879882812 900.809570312 934.760742188 753.9296875 c 128,-1,14
 1081.640625 607.049804688 1081.640625 607.049804688 1081.640625 399.990234375 c 128,-1,15
 1081.640625 192.9296875 1081.640625 192.9296875 934.760742188 46.5595703125 c 128,-1,8
 787.879882812 -99.8095703125 787.879882812 -99.8095703125 580.8203125 -99.8095703125 c 128,-1,9
EndSplineSet
EndChar

StartChar: uni01AE
Encoding: 430 430 25
Width: 1161
VWidth: 1006
Flags: W
LayerCount: 2
Fore
SplineSet
727.76953125 661.75 m 1,0,-1
 577.109375 511.08984375 l 1,1,-1
 428.609375 659.58984375 l 1,2,-1
 315.209960938 546.73046875 l 1,3,-1
 464.25 397.689453125 l 1,4,-1
 311.969726562 245.41015625 l 5,5,6
 424.830078125 132.549804688 l 5,7,-1
 577.109375 284.830078125 l 1,8,-1
 731.009765625 130.9296875 l 1,9,-1
 843.870117188 244.330078125 l 1,10,-1
 690.509765625 397.689453125 l 1,11,-1
 841.169921875 548.349609375 l 1,12,-1
 727.76953125 661.75 l 1,0,-1
580.8203125 -99.91015625 m 128,-1,14
 373.760742188 -99.91015625 373.760742188 -99.91015625 226.879882812 46.4599609375 c 128,-1,15
 80 192.830078125 80 192.830078125 80 399.889648438 c 128,-1,16
 80 606.950195312 80 606.950195312 226.879882812 753.830078125 c 128,-1,17
 373.760742188 900.709960938 373.760742188 900.709960938 580.8203125 900.709960938 c 128,-1,18
 787.879882812 900.709960938 787.879882812 900.709960938 934.760742188 753.830078125 c 128,-1,19
 1081.640625 606.950195312 1081.640625 606.950195312 1081.640625 399.889648438 c 128,-1,20
 1081.640625 192.830078125 1081.640625 192.830078125 934.760742188 46.4599609375 c 128,-1,13
 787.879882812 -99.91015625 787.879882812 -99.91015625 580.8203125 -99.91015625 c 128,-1,14
EndSplineSet
EndChar

StartChar: Uhorn
Encoding: 431 431 26
Width: 1161
VWidth: 1006
Flags: W
LayerCount: 2
Fore
SplineSet
834.037109375 590.583984375 m 0,0,1
 835.8203125 602.870117188 835.8203125 602.870117188 833.151367188 611.495117188 c 0,2,3
 830.720703125 620.209960938 830.720703125 620.209960938 828.172851562 623.640625 c 0,4,5
 825.620117188 627.349609375 825.620117188 627.349609375 818.594726562 633.762695312 c 0,6,7
 805.220703125 646.73046875 805.220703125 646.73046875 778.362304688 646.399414062 c 0,8,9
 765.440429688 645.709960938 765.440429688 645.709960938 758.965820312 642.509765625 c 0,10,11
 752.180664062 638.5703125 752.180664062 638.5703125 739.130859375 623.80859375 c 0,12,13
 729.740234375 613.0703125 729.740234375 613.0703125 624.381835938 455.895507812 c 0,14,15
 517.580078125 296.870117188 517.580078125 296.870117188 515.2578125 296.395507812 c 0,16,17
 512.48046875 295.849609375 512.48046875 295.849609375 465.51171875 366.551757812 c 0,18,19
 424.760742188 428.450195312 424.760742188 428.450195312 406.765625 444.76953125 c 0,20,21
 395.428710938 455.06640625 395.428710938 455.06640625 378.655273438 454.358398438 c 0,22,23
 364.580078125 453.950195312 364.580078125 453.950195312 351.591796875 446.248046875 c 0,24,25
 338.060546875 437.629882812 338.060546875 437.629882812 329.321289062 422.250976562 c 0,26,27
 320.720703125 406.009765625 320.720703125 406.009765625 328.592773438 392.51953125 c 0,28,29
 356.419921875 342.76953125 356.419921875 342.76953125 405.501953125 268.793945312 c 0,30,31
 464.540039062 180.58984375 464.540039062 180.58984375 479.888671875 163.669921875 c 128,-1,32
 495.140625 146.9296875 495.140625 146.9296875 517.26171875 146.5078125 c 0,33,34
 535.940429688 146.9296875 535.940429688 146.9296875 559.807617188 177.286132812 c 0,35,36
 583.879882812 208.129882812 583.879882812 208.129882812 688.057617188 362.827148438 c 0,37,38
 804.200195312 536.5703125 804.200195312 536.5703125 828.62109375 577.311523438 c 0,39,40
 833.780273438 585.530273438 833.780273438 585.530273438 834.037109375 590.583984375 c 0,0,1
580.8203125 -99.91015625 m 128,-1,42
 373.760742188 -99.91015625 373.760742188 -99.91015625 226.879882812 46.4599609375 c 128,-1,43
 80 192.830078125 80 192.830078125 80 399.889648438 c 128,-1,44
 80 606.950195312 80 606.950195312 226.879882812 753.830078125 c 128,-1,45
 373.760742188 900.709960938 373.760742188 900.709960938 580.8203125 900.709960938 c 128,-1,46
 787.879882812 900.709960938 787.879882812 900.709960938 934.760742188 753.830078125 c 128,-1,47
 1081.640625 606.950195312 1081.640625 606.950195312 1081.640625 399.889648438 c 128,-1,48
 1081.640625 192.830078125 1081.640625 192.830078125 934.760742188 46.4599609375 c 128,-1,41
 787.879882812 -99.91015625 787.879882812 -99.91015625 580.8203125 -99.91015625 c 128,-1,42
EndSplineSet
EndChar

StartChar: uhorn
Encoding: 432 432 27
Width: 1161
VWidth: 1006
Flags: W
LayerCount: 2
Fore
SplineSet
703.145507812 634.217773438 m 5,0,1
 678.034179688 610.97265625 678.034179688 610.97265625 669.0546875 602.465820312 c 132,-1,2
 660.075195312 593.958984375 660.075195312 593.958984375 639.90625 572.903320312 c 132,-1,3
 619.737304688 551.84765625 619.737304688 551.84765625 595.870117188 524.4453125 c 4,4,5
 591.62109375 519.5625 591.62109375 519.5625 564.279296875 487.1328125 c 5,6,7
 533.291015625 527.548828125 533.291015625 527.548828125 515.473632812 551.716796875 c 4,8,9
 469.858398438 614.40234375 469.858398438 614.40234375 450.345703125 630.517578125 c 4,10,11
 437.58203125 641.05859375 437.58203125 641.05859375 416.43359375 641.716796875 c 132,-1,12
 395.286132812 642.374023438 395.286132812 642.374023438 383.68359375 635.078125 c 4,13,14
 369.438476562 627.427734375 369.438476562 627.427734375 362.473632812 610.638671875 c 132,-1,15
 355.510742188 593.849609375 355.510742188 593.849609375 363.6640625 577.887695312 c 4,16,17
 380.840820312 549.713867188 380.840820312 549.713867188 387.420898438 539.223632812 c 132,-1,18
 394 528.733398438 394 528.733398438 410.419921875 505.266601562 c 132,-1,19
 426.837890625 481.799804688 426.837890625 481.799804688 448.971679688 453.181640625 c 4,20,21
 463.481445312 434.438476562 463.481445312 434.438476562 491.705078125 399.497070312 c 5,22,23
 391.78125 276.859375 391.78125 276.859375 368.469726562 249.052734375 c 4,24,25
 356.359375 232.024414062 356.359375 232.024414062 357.19140625 212.91796875 c 132,-1,26
 358.0234375 193.8125 358.0234375 193.8125 367.057617188 182.643554688 c 4,27,28
 375.890625 171.723632812 375.890625 171.723632812 381.419921875 167.474609375 c 132,-1,29
 386.951171875 163.223632812 386.951171875 163.223632812 397.565429688 158.557617188 c 4,30,31
 405.262695312 153.79296875 405.262695312 153.79296875 421.391601562 155.87890625 c 132,-1,32
 437.520507812 157.96484375 437.520507812 157.96484375 445.749023438 168.477539062 c 4,33,34
 503.0390625 241.65234375 503.0390625 241.65234375 562.217773438 313.35546875 c 5,35,36
 647.794921875 210.112304688 647.794921875 210.112304688 674.674804688 176.693359375 c 4,37,38
 690.190429688 158.243164062 690.190429688 158.243164062 709.458984375 153.640625 c 132,-1,39
 728.725585938 149.0390625 728.725585938 149.0390625 748.415039062 155.1796875 c 4,40,41
 777.993164062 162.208007812 777.993164062 162.208007812 784.932617188 184.521484375 c 4,42,43
 787.6796875 192.911132812 787.6796875 192.911132812 786.7734375 204.143554688 c 132,-1,44
 785.868164062 215.377929688 785.868164062 215.377929688 781.640625 221.111328125 c 4,45,46
 755.487304688 256.576171875 755.487304688 256.576171875 703.080078125 317.069335938 c 132,-1,47
 650.674804688 377.563476562 650.674804688 377.563476562 633.892578125 398.439453125 c 5,48,49
 681.2109375 453.395507812 681.2109375 453.395507812 718.671875 494.48046875 c 4,50,51
 771.963867188 552.23046875 771.963867188 552.23046875 783.326171875 573.66796875 c 4,52,53
 793.258789062 588.212890625 793.258789062 588.212890625 786.192382812 608.196289062 c 132,-1,54
 779.125976562 628.180664062 779.125976562 628.180664062 760.083984375 635.46875 c 4,55,56
 726.522460938 648.315429688 726.522460938 648.315429688 703.145507812 634.217773438 c 5,0,1
580.8203125 -99.91015625 m 128,-1,58
 373.760742188 -99.91015625 373.760742188 -99.91015625 226.879882812 46.4599609375 c 128,-1,59
 80 192.830078125 80 192.830078125 80 399.889648438 c 128,-1,60
 80 606.950195312 80 606.950195312 226.879882812 753.830078125 c 128,-1,61
 373.760742188 900.709960938 373.760742188 900.709960938 580.8203125 900.709960938 c 128,-1,62
 787.879882812 900.709960938 787.879882812 900.709960938 934.760742188 753.830078125 c 128,-1,63
 1081.640625 606.950195312 1081.640625 606.950195312 1081.640625 399.889648438 c 128,-1,64
 1081.640625 192.830078125 1081.640625 192.830078125 934.760742188 46.4599609375 c 128,-1,57
 787.879882812 -99.91015625 787.879882812 -99.91015625 580.8203125 -99.91015625 c 128,-1,58
EndSplineSet
EndChar

StartChar: aringacute
Encoding: 507 507 28
Width: 1143
Flags: W
LayerCount: 2
Fore
SplineSet
566.643554688 896 m 0,0,1
 779.643554688 897 779.643554688 897 925.643554688 742 c 1,2,-1
 1033.64355469 810 l 1,3,-1
 1063.64355469 398.5 l 1,4,-1
 705.643554688 604 l 1,5,-1
 816.643554688 674 l 1,6,7
 749.643554688 736 749.643554688 736 659.643554688 759.5 c 128,-1,8
 569.643554688 783 569.643554688 783 479.643554688 760 c 0,9,10
 332.643554688 722 332.643554688 722 255.643554688 593 c 128,-1,11
 178.643554688 464 178.643554688 464 216.143554688 317 c 128,-1,12
 253.643554688 170 253.643554688 170 383.143554688 93.5 c 128,-1,13
 512.643554688 17 512.643554688 17 658.643554688 54 c 0,14,-1
 689.643554688 -67 l 1,15,16
 494.643554688 -116 494.643554688 -116 320.143554688 -12.5 c 128,-1,17
 145.643554688 91 145.643554688 91 95.6435546875 286.5 c 128,-1,18
 45.6435546875 482 45.6435546875 482 149.143554688 656.5 c 128,-1,19
 252.643554688 831 252.643554688 831 448.643554688 881 c 0,20,21
 506.643554688 896 506.643554688 896 566.643554688 896 c 0,0,1
EndSplineSet
EndChar

StartChar: AEacute
Encoding: 508 508 29
Width: 1442
Flags: W
LayerCount: 2
Fore
SplineSet
721 891 m 1,0,1
 915.553710938 891 915.553710938 891 1058.5 756.5 c 0,2,3
 1200.55371094 622 1200.55371094 622 1212 428 c 1,4,-1
 1362 428 l 1,5,6
 1146 77 l 1,7,-1
 930 428 l 1,8,-1
 1083 428 l 1,9,10
 1056.55371094 763 1056.55371094 763 721 763 c 1,11,-1
 721 891 l 1,0,1
298 731 m 1,12,-1
 513 379 l 1,13,-1
 359 379 l 1,14,15
 376.553710938 36 376.553710938 36 721 36 c 1,16,-1
 722 -92 l 1,17,18
 523.553710938 -92 523.553710938 -92 381 45.5 c 0,19,20
 237.553710938 183 237.553710938 183 230 379 c 1,21,-1
 80 379 l 1,22,-1
 298 731 l 1,12,-1
EndSplineSet
EndChar

StartChar: uni01B5
Encoding: 437 437 30
Width: 1160
VWidth: 1106
Flags: W
LayerCount: 2
Fore
SplineSet
933.3203125 47.2431640625 m 128,-1,1
 786.546875 -98.9580078125 786.546875 -98.9580078125 579.952148438 -98.9580078125 c 128,-1,2
 373.453125 -98.9580078125 373.453125 -98.9580078125 226.6796875 47.2431640625 c 128,-1,3
 80 193.4921875 80 193.4921875 80 400.038085938 c 128,-1,4
 80 606.583984375 80 606.583984375 226.6796875 753.301757812 c 128,-1,5
 373.44921875 900 373.44921875 900 579.952148438 900 c 128,-1,6
 786.55078125 900 786.55078125 900 933.3203125 753.301757812 c 128,-1,7
 1079.953125 606.59765625 1079.953125 606.59765625 1080 400.038085938 c 128,-1,0
 1080 193.4921875 1080 193.4921875 933.3203125 47.2431640625 c 128,-1,1
642.064453125 97.6015625 m 1,8,-1
 642.064453125 220.678710938 l 1,9,-1
 517.935546875 220.678710938 l 1,10,-1
 517.935546875 97.6015625 l 1,11,-1
 642.064453125 97.6015625 l 1,8,-1
642.064453125 343.755859375 m 1,12,-1
 642.064453125 703.401367188 l 1,13,-1
 517.935546875 703.401367188 l 1,14,-1
 517.935546875 343.755859375 l 1,15,-1
 642.064453125 343.755859375 l 1,12,-1
EndSplineSet
EndChar

StartChar: uni01B6
Encoding: 438 438 31
Width: 1160
VWidth: 1106
Flags: W
LayerCount: 2
Fore
SplineSet
933.3203125 753.798828125 m 128,-1,1
 1080 607.549804688 1080 607.549804688 1080 401.00390625 c 128,-1,2
 1079.953125 194.444335938 1079.953125 194.444335938 933.3203125 47.740234375 c 128,-1,3
 786.55078125 -98.9580078125 786.55078125 -98.9580078125 579.952148438 -98.9580078125 c 128,-1,4
 373.44921875 -98.9580078125 373.44921875 -98.9580078125 226.6796875 47.740234375 c 128,-1,5
 80 194.458007812 80 194.458007812 80 401.00390625 c 128,-1,6
 80 607.549804688 80 607.549804688 226.6796875 753.798828125 c 128,-1,7
 373.453125 900 373.453125 900 579.952148438 900 c 128,-1,0
 786.546875 900 786.546875 900 933.3203125 753.798828125 c 128,-1,1
642.064453125 703.440429688 m 1,8,-1
 517.935546875 703.440429688 l 1,9,-1
 517.935546875 580.36328125 l 1,10,-1
 642.064453125 580.36328125 l 1,11,-1
 642.064453125 703.440429688 l 1,8,-1
642.064453125 457.286132812 m 1,12,-1
 517.935546875 457.286132812 l 1,13,-1
 517.935546875 97.640625 l 1,14,-1
 642.064453125 97.640625 l 1,15,-1
 642.064453125 457.286132812 l 1,12,-1
EndSplineSet
EndChar

StartChar: Aogonek
Encoding: 260 260 32
Width: 1436
Flags: W
LayerCount: 2
Fore
SplineSet
1130 898 m 0,0,1
 1142 898 1142 898 1150 889 c 2,2,-1
 1347 692 l 2,3,4
 1366 673 1366 673 1347 653 c 2,5,-1
 612 -82 l 2,6,7
 592 -102 592 -102 573 -82 c 2,8,-1
 90 401 l 2,9,10
 70 421 70 421 90 440 c 2,11,-1
 287 637 l 2,12,13
 306 657 306 657 326 637 c 2,14,-1
 592 371 l 1,15,-1
 1110 889 l 2,16,17
 1119 897 1119 897 1130 898 c 0,0,1
EndSplineSet
Validated: 33
EndChar

StartChar: two
Encoding: 50 50 33
Width: 600
VWidth: 0
Flags: W
LayerCount: 2
Fore
SplineSet
93.93359375 0 m 1,0,-1
 93.93359375 101.251953125 l 2,1,2
 93.93359375 131.889648438 93.93359375 131.889648438 115.044921875 154.109375 c 0,3,4
 116.797851562 155.979492188 116.797851562 155.979492188 232.845703125 278.150390625 c 128,-1,5
 348.892578125 400.321289062 348.892578125 400.321289062 396.600585938 450.546875 c 0,6,7
 425.864257812 481.359375 425.864257812 481.359375 425.391601562 521.057617188 c 0,8,9
 424.903320312 561.58203125 424.903320312 561.58203125 396.533203125 589.614257812 c 128,-1,10
 368.163085938 617.647460938 368.163085938 617.647460938 327.658203125 617.647460938 c 2,11,-1
 92.2421875 617.647460938 l 1,12,-1
 92.2421875 700 l 1,13,-1
 327.658203125 700 l 2,14,15
 401.276367188 700 401.276367188 700 454.067382812 647.837890625 c 128,-1,16
 506.857421875 595.67578125 506.857421875 595.67578125 507.744140625 522.065429688 c 0,17,18
 508.616210938 448.899414062 508.616210938 448.899414062 456.314453125 393.828125 c 0,19,20
 408.801757812 343.807617188 408.801757812 343.807617188 293.052734375 221.951171875 c 128,-1,21
 177.302734375 100.094726562 177.302734375 100.094726562 176.283203125 99.0205078125 c 2,22,-1
 176.283203125 82.3525390625 l 1,23,-1
 506.095703125 82.3525390625 l 1,24,-1
 506.095703125 0 l 1,25,-1
 93.93359375 0 l 1,0,-1
EndSplineSet
EndChar

StartChar: uni02BE
Encoding: 702 702 34
Width: 1160
VWidth: 1100
Flags: W
LayerCount: 2
Fore
SplineSet
580 875.520507812 m 1,0,-1
 709.259765625 527.646484375 l 1,1,-1
 1080 512.25 l 1,2,-1
 789.122070312 281.86328125 l 1,3,-1
 889.036132812 -75.5205078125 l 1,4,-1
 580 129.9609375 l 1,5,-1
 271.049804688 -75.5205078125 l 1,6,-1
 370.963867188 281.86328125 l 1,7,-1
 80 512.25 l 1,8,-1
 450.826171875 527.646484375 l 1,9,-1
 580 875.520507812 l 1,0,-1
EndSplineSet
EndChar

StartChar: uni0297
Encoding: 663 663 35
Width: 952
Flags: W
LayerCount: 2
Fore
SplineSet
390 796 m 2,0,-1
 562 796 l 2,1,2
 570 796 570 796 576 790.5 c 128,-1,3
 582 785 582 785 582 776 c 2,4,-1
 582 507 l 1,5,-1
 851 507 l 2,6,7
 860 507 860 507 866 501 c 128,-1,8
 872 495 872 495 872 487 c 2,9,-1
 872 315 l 2,10,11
 872 306 872 306 866 300 c 128,-1,12
 860 294 860 294 851 294 c 2,13,-1
 582 294 l 1,14,-1
 582 25 l 2,15,16
 582 17 582 17 576 11 c 128,-1,17
 570 5 570 5 562 5 c 2,18,-1
 390 5 l 2,19,20
 381 5 381 5 376 11 c 0,21,22
 369 16 369 16 370 25 c 2,23,-1
 370 294 l 1,24,-1
 100 294 l 2,25,26
 92 294 92 294 86 300 c 256,27,28
 80 306 80 306 80 315 c 2,29,-1
 80 487 l 2,30,31
 80 495 80 495 86 501 c 128,-1,32
 92 507 92 507 100 507 c 2,33,-1
 370 507 l 1,34,-1
 370 776 l 2,35,36
 370 785 370 785 375.5 790.5 c 128,-1,37
 381 796 381 796 390 796 c 2,0,-1
EndSplineSet
EndChar

StartChar: uni0298
Encoding: 664 664 36
Width: 947
Flags: W
LayerCount: 2
Fore
SplineSet
867 486 m 2,0,-1
 867 315 l 2,1,2
 867 307 867 307 861 301 c 128,-1,3
 855 295 855 295 847 295 c 2,4,-1
 100 295 l 2,5,6
 92 295 92 295 86 301 c 128,-1,7
 80 307 80 307 80 315 c 2,8,-1
 80 486 l 2,9,10
 80 495 80 495 86 500.5 c 128,-1,11
 92 506 92 506 100 506 c 2,12,-1
 847 506 l 2,13,14
 855 506 855 506 861 500.5 c 128,-1,15
 867 495 867 495 867 486 c 2,0,-1
EndSplineSet
EndChar

StartChar: semicolon
Encoding: 59 59 37
Width: 269
VWidth: 26
Flags: W
LayerCount: 2
Fore
SplineSet
176.70703125 101.57421875 m 5,0,-1
 237.466796875 41.296875 l 5,1,-1
 60.4931640625 -130.565429688 l 5,2,-1
 -0.171875 -70.1953125 l 5,3,-1
 176.70703125 101.57421875 l 5,0,-1
181.15625 455.900390625 m 128,-1,5
 204.161621094 455.900390625 204.161621094 455.900390625 214.065429688 446.000976562 c 128,-1,6
 223.967773438 436.1015625 223.967773438 436.1015625 223.96875 413.118164062 c 128,-1,7
 223.958496094 390.109863281 223.958496094 390.109863281 214.057617188 380.204101562 c 128,-1,8
 204.158203125 370.298828125 204.158203125 370.298828125 181.188476562 370.298828125 c 128,-1,9
 158.177246094 370.309082031 158.177246094 370.309082031 148.2734375 380.209960938 c 128,-1,10
 138.368164062 390.109375 138.368164062 390.109375 138.369140625 413.086914062 c 128,-1,11
 138.369140625 436.09375 138.369140625 436.09375 148.267578125 445.997070312 c 128,-1,4
 158.166992188 455.899414062 158.166992188 455.899414062 181.15625 455.900390625 c 128,-1,5
EndSplineSet
EndChar

StartChar: comma
Encoding: 44 44 38
Width: 269
VWidth: 26
Flags: W
LayerCount: 2
Fore
SplineSet
176.70703125 101.57421875 m 1,0,-1
 237.466796875 41.296875 l 1,1,-1
 60.4931640625 -130.565429688 l 1,2,-1
 -0.171875 -70.1953125 l 1,3,-1
 176.70703125 101.57421875 l 1,0,-1
EndSplineSet
EndChar

StartChar: period
Encoding: 46 46 39
Width: 185
VWidth: -4
Flags: W
LayerCount: 2
Fore
SplineSet
92.7900390625 101.0625 m 132,-1,1
 115.782226562 101.072265625 115.782226562 101.072265625 125.686523438 91.17578125 c 132,-1,2
 135.58984375 81.279296875 135.58984375 81.279296875 135.599609375 58.2939453125 c 132,-1,3
 135.58984375 35.2861328125 135.58984375 35.2861328125 125.686523438 25.3876953125 c 132,-1,4
 115.783203125 15.490234375 115.783203125 15.490234375 92.787109375 15.5 c 132,-1,5
 69.794921875 15.5 69.794921875 15.5 59.8974609375 25.3984375 c 132,-1,6
 50 35.296875 50 35.296875 50 58.287109375 c 132,-1,7
 50 81.2724609375 50 81.2724609375 59.8984375 91.1669921875 c 132,-1,0
 69.7978515625 101.0625 69.7978515625 101.0625 92.7900390625 101.0625 c 132,-1,1
EndSplineSet
EndChar

StartChar: slash
Encoding: 47 47 40
Width: 638
VWidth: 79
Flags: W
LayerCount: 2
Fore
SplineSet
464.951171875 712.2421875 m 5,0,-1
 537.0703125 673.826171875 l 5,1,-1
 204.1484375 -12.2646484375 l 5,2,-1
 132.030273438 26.1552734375 l 5,3,-1
 464.951171875 712.2421875 l 5,0,-1
EndSplineSet
EndChar

StartChar: zero
Encoding: 48 48 41
Width: 600
VWidth: 0
Flags: W
LayerCount: 2
Fore
SplineSet
268.263671875 0 m 2,0,1
 191.22265625 0 191.22265625 0 136.302734375 54.912109375 c 128,-1,2
 81.3828125 109.823242188 81.3828125 109.823242188 81.3828125 186.861328125 c 2,3,-1
 81.3828125 513.114257812 l 2,4,5
 81.3828125 590.150390625 81.3828125 590.150390625 136.3046875 645.072265625 c 128,-1,6
 191.224609375 699.995117188 191.224609375 699.995117188 268.263671875 699.995117188 c 2,7,-1
 331.736328125 699.995117188 l 2,8,9
 408.775390625 699.995117188 408.775390625 699.995117188 463.6953125 645.072265625 c 128,-1,10
 518.6171875 590.150390625 518.6171875 590.150390625 518.6171875 513.114257812 c 2,11,-1
 518.6171875 186.861328125 l 2,12,13
 518.6171875 109.823242188 518.6171875 109.823242188 463.697265625 54.912109375 c 128,-1,14
 408.775390625 0 408.775390625 0 331.736328125 0 c 2,15,-1
 268.263671875 0 l 2,0,1
268.263671875 82.3525390625 m 2,16,-1
 331.736328125 82.3525390625 l 2,17,18
 375.3984375 82.3525390625 375.3984375 82.3525390625 405.83203125 112.77734375 c 128,-1,19
 436.265625 143.201171875 436.265625 143.201171875 436.265625 186.861328125 c 2,20,-1
 436.265625 513.114257812 l 2,21,22
 436.265625 556.767578125 436.265625 556.767578125 405.828125 587.205078125 c 128,-1,23
 375.392578125 617.642578125 375.392578125 617.642578125 331.736328125 617.642578125 c 2,24,-1
 268.263671875 617.642578125 l 2,25,26
 224.607421875 617.642578125 224.607421875 617.642578125 194.169921875 587.205078125 c 128,-1,27
 163.734375 556.767578125 163.734375 556.767578125 163.734375 513.114257812 c 2,28,-1
 163.734375 186.861328125 l 2,29,30
 163.734375 143.201171875 163.734375 143.201171875 194.16796875 112.77734375 c 128,-1,31
 224.6015625 82.3525390625 224.6015625 82.3525390625 268.263671875 82.3525390625 c 2,16,-1
EndSplineSet
EndChar

StartChar: one
Encoding: 49 49 42
Width: 600
VWidth: 79
Flags: W
LayerCount: 2
Fore
SplineSet
293.916992188 0 m 1,0,-1
 293.916992188 601.381835938 l 2,1,2
 293.916992188 608.115234375 293.916992188 608.115234375 289.131835938 612.90234375 c 128,-1,3
 284.38671875 617.647460938 284.38671875 617.647460938 277.630859375 617.647460938 c 2,4,-1
 165.501953125 617.647460938 l 1,5,-1
 165.501953125 700 l 1,6,-1
 277.630859375 700 l 2,7,8
 318.505859375 700 318.505859375 700 347.377929688 671.127929688 c 128,-1,9
 376.26953125 642.23828125 376.26953125 642.23828125 376.26953125 601.381835938 c 2,10,-1
 376.26953125 0 l 1,11,-1
 293.916992188 0 l 1,0,-1
EndSplineSet
EndChar

StartChar: three
Encoding: 51 51 43
Width: 600
VWidth: 0
Flags: W
LayerCount: 2
Fore
SplineSet
92.984375 0 m 1,0,-1
 92.984375 81.9541015625 l 1,1,-1
 312.256835938 81.9541015625 l 2,2,3
 359.3984375 82.2490234375 359.3984375 82.2490234375 392.225585938 115.279296875 c 128,-1,4
 425.053710938 148.309570312 425.053710938 148.309570312 425.053710938 195.5 c 0,5,6
 425.053710938 242.892578125 425.053710938 242.892578125 391.979492188 275.961914062 c 128,-1,7
 358.90625 309.03125 358.90625 309.03125 311.515625 309.03125 c 2,8,-1
 205.697265625 309.03125 l 1,9,-1
 205.697265625 390.9921875 l 1,10,-1
 311.77734375 390.9921875 l 2,11,12
 359.083007812 391.090820312 359.083007812 391.090820312 392.068359375 424.146484375 c 128,-1,13
 425.053710938 457.202148438 425.053710938 457.202148438 425.053710938 504.5234375 c 128,-1,14
 425.053710938 551.91015625 425.053710938 551.91015625 391.979492188 584.978515625 c 128,-1,15
 358.905273438 618.045898438 358.905273438 618.045898438 311.515625 618.045898438 c 2,16,-1
 92.984375 618.045898438 l 1,17,-1
 92.984375 700 l 1,18,-1
 311.515625 700 l 2,19,20
 392.1328125 699.994140625 392.1328125 699.994140625 449.57421875 642.564453125 c 128,-1,21
 507.015625 585.133789062 507.015625 585.133789062 507.015625 504.5234375 c 0,22,23
 507.015625 458.359375 507.015625 458.359375 486.541015625 417.912109375 c 128,-1,24
 466.067382812 377.465820312 466.067382812 377.465820312 430.58984375 350.01171875 c 1,25,26
 466.0703125 322.560546875 466.0703125 322.560546875 486.54296875 282.11328125 c 128,-1,27
 507.015625 241.666992188 507.015625 241.666992188 507.015625 195.5 c 0,28,29
 507.015625 114.885742188 507.015625 114.885742188 449.572265625 57.443359375 c 128,-1,30
 392.129882812 0 392.129882812 0 311.515625 0 c 2,31,-1
 92.984375 0 l 1,0,-1
EndSplineSet
EndChar

StartChar: four
Encoding: 52 52 44
Width: 600
VWidth: 0
Flags: W
LayerCount: 2
Fore
SplineSet
356.80859375 0 m 1,0,-1
 356.80859375 153.487304688 l 1,1,-1
 92.23828125 153.487304688 l 1,2,-1
 92.23828125 268.591796875 l 1,3,-1
 316.314453125 700 l 1,4,-1
 439.162109375 700 l 1,5,-1
 439.162109375 235.83984375 l 1,6,-1
 507.76171875 235.83984375 l 1,7,-1
 507.76171875 153.487304688 l 1,8,-1
 439.162109375 153.487304688 l 1,9,-1
 439.162109375 0 l 1,10,-1
 356.80859375 0 l 1,0,-1
174.58984375 235.83984375 m 1,11,-1
 356.80859375 235.83984375 l 1,12,-1
 356.80859375 599.290039062 l 1,13,-1
 174.58984375 248.486328125 l 1,14,-1
 174.58984375 235.83984375 l 1,11,-1
EndSplineSet
EndChar

StartChar: six
Encoding: 54 54 45
Width: 600
VWidth: 0
Flags: W
LayerCount: 2
Fore
SplineSet
272.625 0 m 2,0,1
 197.911132812 0 197.911132812 0 145.076171875 52.8583984375 c 128,-1,2
 92.23828125 105.696289062 92.23828125 105.696289062 92.23828125 180.408203125 c 2,3,-1
 92.23828125 519.611328125 l 2,4,5
 92.23828125 593.967773438 92.23828125 593.967773438 145.25390625 646.983398438 c 128,-1,6
 198.26953125 700 198.26953125 700 272.625 700 c 2,7,-1
 476.87890625 700 l 1,8,-1
 476.87890625 617.647460938 l 1,9,-1
 272.625 617.647460938 l 2,10,11
 231.651367188 617.647460938 231.651367188 617.647460938 203.12109375 589.116210938 c 128,-1,12
 174.58984375 560.5859375 174.58984375 560.5859375 174.58984375 519.611328125 c 2,13,-1
 174.58984375 411.563476562 l 1,14,15
 183.776367188 411.517578125 183.776367188 411.517578125 235.780273438 411.267578125 c 128,-1,16
 287.784179688 411.017578125 287.784179688 411.017578125 328.23828125 410.819335938 c 0,17,18
 402.338867188 410.451171875 402.338867188 410.451171875 455.05078125 357.481445312 c 128,-1,19
 507.76171875 304.512695312 507.76171875 304.512695312 507.76171875 230.411132812 c 2,20,-1
 507.76171875 180.408203125 l 2,21,22
 507.76171875 105.6953125 507.76171875 105.6953125 454.923828125 52.857421875 c 128,-1,23
 402.065429688 0 402.065429688 0 327.353515625 0 c 2,24,-1
 272.625 0 l 2,0,1
272.625 82.353515625 m 2,25,-1
 327.353515625 82.353515625 l 2,26,27
 367.946289062 82.353515625 367.946289062 82.353515625 396.677734375 111.083984375 c 128,-1,28
 425.408203125 139.814453125 425.408203125 139.814453125 425.408203125 180.408203125 c 2,29,-1
 425.408203125 230.411132812 l 2,30,31
 425.408203125 271.237304688 425.408203125 271.237304688 397.037109375 299.750976562 c 128,-1,32
 368.665039062 328.263671875 368.665039062 328.263671875 327.8359375 328.466796875 c 0,33,34
 289.53125 328.654296875 289.53125 328.654296875 237.3828125 328.90625 c 128,-1,35
 185.233398438 329.158203125 185.233398438 329.158203125 174.58984375 329.2109375 c 1,36,-1
 174.58984375 180.408203125 l 2,37,38
 174.58984375 139.794921875 174.58984375 139.794921875 203.30078125 111.083984375 c 128,-1,39
 232.04296875 82.353515625 232.04296875 82.353515625 272.625 82.353515625 c 2,25,-1
EndSplineSet
EndChar

StartChar: five
Encoding: 53 53 46
Width: 600
VWidth: 0
Flags: W
LayerCount: 2
Fore
SplineSet
92.248046875 0 m 1,0,-1
 92.248046875 82.3525390625 l 1,1,-1
 339.52734375 82.3525390625 l 2,2,3
 375.09375 82.3525390625 375.09375 82.3525390625 400.24609375 107.504882812 c 128,-1,4
 425.3984375 132.657226562 425.3984375 132.657226562 425.3984375 168.244140625 c 2,5,-1
 425.3984375 262.76171875 l 2,6,7
 425.3984375 298.348632812 425.3984375 298.348632812 400.24609375 323.500976562 c 128,-1,8
 375.104492188 348.653320312 375.104492188 348.653320312 339.52734375 348.653320312 c 2,9,-1
 194.404296875 348.653320312 l 2,10,11
 152.456054688 348.653320312 152.456054688 348.653320312 122.3515625 378.756835938 c 128,-1,12
 92.248046875 408.861328125 92.248046875 408.861328125 92.248046875 450.809570312 c 2,13,-1
 92.248046875 700 l 1,14,-1
 507.751953125 700 l 1,15,-1
 507.751953125 617.647460938 l 1,16,-1
 174.6015625 617.647460938 l 1,17,-1
 174.6015625 450.809570312 l 2,18,19
 174.6015625 442.235351562 174.6015625 442.235351562 180.215820312 436.620117188 c 128,-1,20
 185.830078125 431.005859375 185.830078125 431.005859375 194.404296875 431.005859375 c 2,21,-1
 339.52734375 431.005859375 l 2,22,23
 409.206054688 431.005859375 409.206054688 431.005859375 458.47265625 381.7265625 c 128,-1,24
 507.751953125 332.447265625 507.751953125 332.447265625 507.751953125 262.76171875 c 2,25,-1
 507.751953125 168.244140625 l 2,26,27
 507.751953125 98.55859375 507.751953125 98.55859375 458.47265625 49.279296875 c 128,-1,28
 409.193359375 0 409.193359375 0 339.52734375 0 c 2,29,-1
 92.248046875 0 l 1,0,-1
EndSplineSet
EndChar

StartChar: seven
Encoding: 55 55 47
Width: 600
VWidth: 0
Flags: W
LayerCount: 2
Fore
SplineSet
216.802734375 -13.3935546875 m 1,0,-1
 142.015625 21.064453125 l 1,1,-1
 405.239257812 592.6640625 l 2,2,3
 409.262695312 601.405273438 409.262695312 601.405273438 404.073242188 609.53125 c 128,-1,4
 398.868164062 617.653320312 398.868164062 617.653320312 389.215820312 617.653320312 c 2,5,-1
 109.969726562 617.653320312 l 1,6,-1
 109.969726562 700 l 1,7,-1
 389.215820312 700 l 2,8,9
 414.729492188 700 414.729492188 700 437.186523438 687.72265625 c 128,-1,10
 459.64453125 675.444335938 459.64453125 675.444335938 473.412109375 653.961914062 c 0,11,12
 502.91015625 607.88671875 502.91015625 607.88671875 480.045898438 558.225585938 c 0,13,-1
 216.802734375 -13.3935546875 l 1,0,-1
EndSplineSet
EndChar

StartChar: eight
Encoding: 56 56 48
Width: 600
VWidth: 0
Flags: W
LayerCount: 2
Fore
SplineSet
300 700 m 128,-1,1
 380.615234375 700 380.615234375 700 438.056640625 642.56640625 c 128,-1,2
 495.499023438 585.131835938 495.499023438 585.131835938 495.499023438 504.521484375 c 0,3,4
 495.499023438 458.357421875 495.499023438 458.357421875 475.024414062 417.90625 c 128,-1,5
 454.548828125 377.456054688 454.548828125 377.456054688 419.072265625 350.0078125 c 1,6,7
 454.553710938 322.561523438 454.553710938 322.561523438 475.026367188 282.111328125 c 128,-1,8
 495.499023438 241.661132812 495.499023438 241.661132812 495.499023438 195.493164062 c 0,9,10
 495.499023438 114.880859375 495.499023438 114.880859375 438.055664062 57.4375 c 128,-1,11
 380.61328125 -0.005859375 380.61328125 -0.005859375 300 -0.005859375 c 128,-1,12
 219.387695312 -0.005859375 219.387695312 -0.005859375 161.944335938 57.4375 c 128,-1,13
 104.500976562 114.880859375 104.500976562 114.880859375 104.500976562 195.493164062 c 0,14,15
 104.500976562 241.66015625 104.500976562 241.66015625 124.974609375 282.111328125 c 128,-1,16
 145.448242188 322.561523438 145.448242188 322.561523438 180.927734375 350.0078125 c 1,17,18
 145.452148438 377.456054688 145.452148438 377.456054688 124.9765625 417.90625 c 128,-1,19
 104.500976562 458.357421875 104.500976562 458.357421875 104.500976562 504.521484375 c 0,20,21
 104.500976562 585.131835938 104.500976562 585.131835938 161.943359375 642.56640625 c 128,-1,0
 219.385742188 700 219.385742188 700 300 700 c 128,-1,1
300 618.049804688 m 128,-1,23
 252.609375 618.049804688 252.609375 618.049804688 219.541015625 584.981445312 c 128,-1,24
 186.471679688 551.913085938 186.471679688 551.913085938 186.471679688 504.521484375 c 128,-1,25
 186.471679688 457.205078125 186.471679688 457.205078125 219.456054688 424.15234375 c 128,-1,26
 252.439453125 391.100585938 252.439453125 391.100585938 299.744140625 390.9921875 c 0,27,-1
 300.255859375 390.9921875 l 2,28,29
 347.561523438 391.099609375 347.561523438 391.099609375 380.545898438 424.15234375 c 128,-1,30
 413.529296875 457.204101562 413.529296875 457.204101562 413.529296875 504.521484375 c 128,-1,31
 413.529296875 551.913085938 413.529296875 551.913085938 380.4609375 584.981445312 c 128,-1,22
 347.392578125 618.049804688 347.392578125 618.049804688 300 618.049804688 c 128,-1,23
300 309.022460938 m 128,-1,33
 252.609375 309.022460938 252.609375 309.022460938 219.540039062 275.954101562 c 128,-1,34
 186.471679688 242.884765625 186.471679688 242.884765625 186.471679688 195.493164062 c 128,-1,35
 186.471679688 148.099609375 186.471679688 148.099609375 219.541015625 115.022460938 c 128,-1,36
 252.611328125 81.9443359375 252.611328125 81.9443359375 300 81.9443359375 c 128,-1,37
 347.390625 81.9443359375 347.390625 81.9443359375 380.459960938 115.022460938 c 128,-1,38
 413.529296875 148.099609375 413.529296875 148.099609375 413.529296875 195.493164062 c 128,-1,39
 413.529296875 242.884765625 413.529296875 242.884765625 380.4609375 275.954101562 c 128,-1,32
 347.392578125 309.022460938 347.392578125 309.022460938 300 309.022460938 c 128,-1,33
EndSplineSet
EndChar

StartChar: nine
Encoding: 57 57 49
Width: 600
VWidth: 0
Flags: W
LayerCount: 2
Fore
SplineSet
123.119140625 0 m 1,0,-1
 123.119140625 82.3525390625 l 1,1,-1
 327.352539062 82.3525390625 l 2,2,3
 368.327148438 82.3525390625 368.327148438 82.3525390625 396.8671875 110.892578125 c 128,-1,4
 425.408203125 139.43359375 425.408203125 139.43359375 425.408203125 180.408203125 c 2,5,-1
 425.408203125 288.456054688 l 1,6,7
 418.57421875 288.489257812 418.57421875 288.489257812 394.161132812 288.60546875 c 128,-1,8
 369.749023438 288.720703125 369.749023438 288.720703125 336.877929688 288.879882812 c 128,-1,9
 304.006835938 289.038085938 304.006835938 289.038085938 271.759765625 289.200195312 c 0,10,11
 197.659179688 289.568359375 197.659179688 289.568359375 144.947265625 342.538085938 c 128,-1,12
 92.236328125 395.506835938 92.236328125 395.506835938 92.236328125 469.608398438 c 2,13,-1
 92.236328125 519.611328125 l 2,14,15
 92.236328125 594.328125 92.236328125 594.328125 145.07421875 647.161132812 c 0,16,-1
 145.09765625 647.184570312 l 2,17,18
 197.91015625 700.001953125 197.91015625 700.001953125 272.647460938 700.001953125 c 2,19,-1
 327.35546875 700.001953125 l 2,20,21
 402.107421875 700.001953125 402.107421875 700.001953125 454.92578125 647.1640625 c 128,-1,22
 507.763671875 594.326171875 507.763671875 594.326171875 507.763671875 519.614257812 c 2,23,-1
 507.763671875 180.411132812 l 2,24,25
 507.763671875 106.0546875 507.763671875 106.0546875 454.737304688 53.029296875 c 128,-1,26
 401.7109375 0.0029296875 401.7109375 0.0029296875 327.35546875 0.0029296875 c 2,27,-1
 123.119140625 0 l 1,0,-1
425.408203125 370.80859375 m 1,28,-1
 425.408203125 519.610351562 l 2,29,30
 425.408203125 560.22265625 425.408203125 560.22265625 396.697265625 588.935546875 c 128,-1,31
 367.973632812 617.646484375 367.973632812 617.646484375 327.349609375 617.646484375 c 2,32,-1
 272.641601562 617.646484375 l 2,33,34
 232.017578125 617.646484375 232.017578125 617.646484375 203.317382812 588.935546875 c 128,-1,35
 174.586914062 560.215820312 174.586914062 560.215820312 174.586914062 519.610351562 c 2,36,-1
 174.586914062 469.608398438 l 2,37,38
 174.586914062 428.78125 174.586914062 428.78125 202.958984375 400.268554688 c 128,-1,39
 231.331054688 371.755859375 231.331054688 371.755859375 272.159179688 371.552734375 c 0,40,41
 304.354492188 371.391601562 304.354492188 371.391601562 336.99609375 371.233398438 c 128,-1,42
 369.637695312 371.075195312 369.637695312 371.075195312 394.149414062 370.958984375 c 128,-1,43
 418.662109375 370.841796875 418.662109375 370.841796875 425.408203125 370.80859375 c 1,28,-1
EndSplineSet
EndChar

StartChar: colon
Encoding: 58 58 50
Width: 363
VWidth: 77
Flags: W
LayerCount: 2
Fore
SplineSet
181.481445312 546.901367188 m 128,-1,1
 207.170898438 546.901367188 207.170898438 546.901367188 218.427734375 535.637695312 c 128,-1,2
 229.685546875 524.374023438 229.685546875 524.374023438 229.685546875 498.743164062 c 128,-1,3
 229.669921875 473.060546875 229.669921875 473.060546875 218.401367188 461.8046875 c 128,-1,4
 207.131835938 450.548828125 207.131835938 450.548828125 181.5 450.548828125 c 128,-1,5
 155.8203125 450.548828125 155.8203125 450.548828125 144.567382812 461.811523438 c 128,-1,6
 133.314453125 473.075195312 133.314453125 473.075195312 133.314453125 498.715820312 c 128,-1,7
 133.314453125 524.395507812 133.314453125 524.395507812 144.577148438 535.6484375 c 128,-1,0
 155.840820312 546.901367188 155.840820312 546.901367188 181.481445312 546.901367188 c 128,-1,1
181.481445312 230.537109375 m 128,-1,9
 207.151367188 230.537109375 207.151367188 230.537109375 218.41015625 219.272460938 c 128,-1,10
 229.669921875 208.006835938 229.669921875 208.006835938 229.685546875 182.379882812 c 128,-1,11
 229.669921875 156.70703125 229.669921875 156.70703125 218.40234375 145.456054688 c 128,-1,12
 207.1328125 134.204101562 207.1328125 134.204101562 181.5 134.204101562 c 128,-1,13
 155.8203125 134.204101562 155.8203125 134.204101562 144.567382812 145.466796875 c 128,-1,14
 133.314453125 156.73046875 133.314453125 156.73046875 133.314453125 182.37109375 c 128,-1,15
 133.314453125 208.040039062 133.314453125 208.040039062 144.577148438 219.288085938 c 128,-1,8
 155.83984375 230.537109375 155.83984375 230.537109375 181.481445312 230.537109375 c 128,-1,9
EndSplineSet
EndChar

StartChar: equal
Encoding: 61 61 51
Width: 684
VWidth: 0
Flags: W
LayerCount: 2
Fore
SplineSet
110.493164062 455.546875 m 1,0,-1
 110.493164062 530.458007812 l 1,1,-1
 574.9140625 530.458007812 l 1,2,-1
 574.9140625 455.546875 l 1,3,-1
 110.493164062 455.546875 l 1,0,-1
110.493164062 225.333984375 m 1,4,-1
 110.493164062 300.245117188 l 1,5,-1
 574.9140625 300.245117188 l 1,6,-1
 574.9140625 225.333984375 l 1,7,-1
 110.493164062 225.333984375 l 1,4,-1
EndSplineSet
EndChar

StartChar: percent
Encoding: 37 37 52
Width: 770
VWidth: 0
Flags: W
LayerCount: 2
Fore
SplineSet
562.303710938 677.7421875 m 1,0,-1
 629.432617188 630.264648438 l 1,1,-1
 198.501953125 20.955078125 l 1,2,-1
 131.373046875 68.4306640625 l 1,3,-1
 562.303710938 677.7421875 l 1,0,-1
188.278320312 676.17578125 m 128,-1,5
 245.916992188 676.17578125 245.916992188 676.17578125 286.236328125 635.858398438 c 128,-1,6
 326.5546875 595.538574219 326.5546875 595.538574219 326.553710938 537.899414062 c 128,-1,7
 326.553710938 480.256347656 326.553710938 480.256347656 286.236328125 439.940429688 c 128,-1,8
 245.919433594 399.620605469 245.919433594 399.620605469 188.27734375 399.62109375 c 128,-1,9
 130.634277344 399.62109375 130.634277344 399.62109375 90.318359375 439.940429688 c 128,-1,10
 50 480.257324219 50 480.257324219 50 537.899414062 c 128,-1,11
 50 595.539550781 50 595.539550781 90.318359375 635.858398438 c 128,-1,4
 130.63671875 676.176757812 130.63671875 676.176757812 188.278320312 676.17578125 c 128,-1,5
188.278320312 594.470703125 m 128,-1,13
 165.211425781 594.470703125 165.211425781 594.470703125 148.458984375 577.716796875 c 128,-1,14
 131.70703125 560.96484375 131.70703125 560.96484375 131.70703125 537.899414062 c 128,-1,15
 131.70703125 514.829589844 131.70703125 514.829589844 148.458984375 498.079101562 c 128,-1,16
 165.209472656 481.327148438 165.209472656 481.327148438 188.27734375 481.327148438 c 128,-1,17
 211.344238281 481.327148438 211.344238281 481.327148438 228.094726562 498.079101562 c 128,-1,18
 244.848144531 514.831054688 244.848144531 514.831054688 244.84765625 537.899414062 c 128,-1,19
 244.84765625 560.96484375 244.84765625 560.96484375 228.094726562 577.716796875 c 128,-1,12
 211.342773438 594.470214844 211.342773438 594.470214844 188.278320312 594.470703125 c 128,-1,13
572.529296875 299.075195312 m 128,-1,21
 630.16796875 299.075195312 630.16796875 299.075195312 670.487304688 258.756835938 c 128,-1,22
 710.805664062 218.438476562 710.805664062 218.438476562 710.8046875 160.797851562 c 128,-1,23
 710.8046875 103.15625 710.8046875 103.15625 670.487304688 62.8388671875 c 128,-1,24
 630.170410156 22.5205078125 630.170410156 22.5205078125 572.528320312 22.51953125 c 128,-1,25
 514.885253906 22.51953125 514.885253906 22.51953125 474.569335938 62.8388671875 c 128,-1,26
 434.252441406 103.155761719 434.252441406 103.155761719 434.251953125 160.797851562 c 128,-1,27
 434.251953125 218.437988281 434.251953125 218.437988281 474.569335938 258.756835938 c 128,-1,20
 514.889160156 299.075195312 514.889160156 299.075195312 572.529296875 299.075195312 c 128,-1,21
572.529296875 217.370117188 m 128,-1,29
 549.463867188 217.370117188 549.463867188 217.370117188 532.709960938 200.616210938 c 128,-1,30
 515.958007812 183.864257812 515.958007812 183.864257812 515.958007812 160.796875 c 128,-1,31
 515.958007812 137.729980469 515.958007812 137.729980469 532.709960938 120.977539062 c 128,-1,32
 549.461914062 104.225585938 549.461914062 104.225585938 572.529296875 104.225585938 c 128,-1,33
 595.596191406 104.225585938 595.596191406 104.225585938 612.346679688 120.977539062 c 128,-1,34
 629.098632812 137.730957031 629.098632812 137.730957031 629.098632812 160.796875 c 128,-1,35
 629.098632812 183.863769531 629.098632812 183.863769531 612.346679688 200.616210938 c 128,-1,28
 595.593261719 217.369628906 595.593261719 217.369628906 572.529296875 217.370117188 c 128,-1,29
EndSplineSet
EndChar

StartChar: question
Encoding: 63 63 53
Width: 473
VWidth: 0
Flags: W
LayerCount: 2
Fore
SplineSet
144.2421875 84.5380859375 m 128,-1,1
 167.234375 84.5478515625 167.234375 84.5478515625 177.138671875 74.6513671875 c 128,-1,2
 187.041992188 64.7548828125 187.041992188 64.7548828125 187.051757812 41.76953125 c 128,-1,3
 187.041992188 18.76171875 187.041992188 18.76171875 177.138671875 8.86328125 c 128,-1,4
 167.235351562 -1.0341796875 167.235351562 -1.0341796875 144.239257812 -1.0244140625 c 128,-1,5
 121.247070312 -1.0244140625 121.247070312 -1.0244140625 111.349609375 8.8740234375 c 128,-1,6
 101.452148438 18.7724609375 101.452148438 18.7724609375 101.452148438 41.7626953125 c 128,-1,7
 101.452148438 64.748046875 101.452148438 64.748046875 111.350585938 74.642578125 c 128,-1,0
 121.25 84.5380859375 121.25 84.5380859375 144.2421875 84.5380859375 c 128,-1,1
107.600585938 163.244140625 m 1,8,-1
 106.594726562 321.146484375 l 2,9,10
 106.817382812 333.648925781 106.817382812 333.648925781 109.942382812 352.50390625 c 0,11,12
 113.150390625 371.855957031 113.150390625 371.855957031 119.999023438 387.67578125 c 0,13,14
 136.603027344 426.038574219 136.603027344 426.038574219 175.05078125 445.373046875 c 128,-1,15
 213.337402344 464.625488281 213.337402344 464.625488281 275.090820312 464.625 c 0,16,17
 311.166992188 464.625 311.166992188 464.625 331.326171875 488.463867188 c 0,18,19
 350.650390625 511.318359375 350.650390625 511.318359375 350.590820312 545.73046875 c 128,-1,20
 350.532226562 580.170410156 350.532226562 580.170410156 331.10546875 603.087890625 c 0,21,22
 310.873046875 626.957519531 310.873046875 626.957519531 274.94921875 626.958007812 c 2,23,-1
 24.9990234375 626.955078125 l 1,24,-1
 24.9990234375 700.08203125 l 1,25,-1
 274.94921875 700.081054688 l 2,26,27
 344.754882812 700.081054688 344.754882812 700.081054688 386.887695312 650.373046875 c 0,28,29
 423.608398438 607.051757812 423.608398438 607.051757812 423.713867188 545.856445312 c 128,-1,30
 423.820800781 484.589355469 423.820800781 484.589355469 387.163085938 441.245117188 c 0,31,32
 345.097167969 391.500488281 345.097167969 391.500488281 275.090820312 391.500976562 c 0,33,34
 230.692871094 391.500976562 230.692871094 391.500976562 207.904296875 380.041015625 c 0,35,36
 193.16796875 372.630371094 193.16796875 372.630371094 187.108398438 358.630859375 c 0,37,38
 184.724190747 353.123324973 184.724190747 353.123324973 183.259765625 345.899414062 c 0,39,40
 181.740722656 338.396484375 181.740722656 338.396484375 181.21875 327.518554688 c 0,41,42
 180.669433594 316.050292969 180.669433594 316.050292969 180.57421875 308.065429688 c 2,43,-1
 180.776367188 163.244140625 l 1,44,-1
 107.600585938 163.244140625 l 1,8,-1
EndSplineSet
EndChar

StartChar: Ccaron
Encoding: 268 268 54
Width: 1179
VWidth: 0
Flags: W
LayerCount: 2
Fore
SplineSet
1098.65820312 790.047851562 m 4,0,1
 1097.65820312 780.255859375 1097.65820312 780.255859375 1087.82128906 763.491210938 c 4,2,3
 1039.5703125 681.233398438 1039.5703125 681.233398438 806.58203125 334.3515625 c 4,4,5
 598.559570312 24.646484375 598.559570312 24.646484375 549.979492188 -36.8798828125 c 132,-1,6
 501.400390625 -98.40625 501.400390625 -98.40625 464.8515625 -98.4599609375 c 4,7,8
 421.5234375 -98.533203125 421.5234375 -98.533203125 390.076171875 -64.1220703125 c 132,-1,9
 358.629882812 -29.7109375 358.629882812 -29.7109375 241.2421875 146.2109375 c 4,10,11
 142.569335938 294.16015625 142.569335938 294.16015625 87.3623046875 393.759765625 c 4,12,13
 71.9423828125 421.584960938 71.9423828125 421.584960938 88.8203125 453.24609375 c 132,-1,14
 105.698242188 484.908203125 105.698242188 484.908203125 133.380859375 501.260742188 c 4,15,16
 158.9921875 516.389648438 158.9921875 516.389648438 187.528320312 517.487304688 c 132,-1,17
 216.064453125 518.584960938 216.064453125 518.584960938 243.772460938 498.302734375 c 4,18,19
 278.860351562 466.43359375 278.860351562 466.43359375 361.311523438 341.803710938 c 4,20,21
 455.34375 199.669921875 455.34375 199.669921875 460.837890625 201.432617188 c 132,-1,22
 466.340820312 203.201171875 466.340820312 203.201171875 679.177734375 520.5625 c 4,23,24
 890.479492188 835.610351562 890.479492188 835.610351562 908.767578125 856.5234375 c 4,25,26
 935.124023438 886.676757812 935.124023438 886.676757812 948.453125 893.939453125 c 132,-1,27
 961.78125 901.202148438 961.78125 901.202148438 987.262695312 901.721679688 c 4,28,29
 1040.47949219 902.801757812 1040.47949219 902.801757812 1067.75878906 876.439453125 c 4,30,31
 1081.29296875 863.359375 1081.29296875 863.359375 1086.92480469 856.186523438 c 132,-1,32
 1092.55664062 849.014648438 1092.55664062 849.014648438 1096.88574219 831.88671875 c 132,-1,33
 1101.21386719 814.759765625 1101.21386719 814.759765625 1098.65820312 790.047851562 c 4,0,1
EndSplineSet
EndChar

StartChar: ccaron
Encoding: 269 269 55
Width: 962
VWidth: 0
Flags: W
LayerCount: 2
Fore
SplineSet
722.470703125 885.9609375 m 5,0,1
 765.876953125 914.754882812 765.876953125 914.754882812 828.194335938 888.515625 c 4,2,3
 863.55078125 873.627929688 863.55078125 873.627929688 876.670898438 832.810546875 c 132,-1,4
 889.791992188 791.993164062 889.791992188 791.993164062 871.349609375 762.286132812 c 4,5,6
 850.251953125 718.500976562 850.251953125 718.500976562 751.298828125 600.546875 c 4,7,8
 681.740234375 516.6328125 681.740234375 516.6328125 593.879882812 404.38671875 c 5,9,10
 625.040039062 361.748046875 625.040039062 361.748046875 722.348632812 238.190429688 c 132,-1,11
 819.657226562 114.6328125 819.657226562 114.6328125 868.21875 42.1962890625 c 4,12,13
 876.0703125 30.4853515625 876.0703125 30.4853515625 877.750976562 7.5400390625 c 132,-1,14
 879.432617188 -15.404296875 879.432617188 -15.404296875 874.333007812 -32.5380859375 c 4,15,16
 861.446289062 -78.1123046875 861.446289062 -78.1123046875 806.526367188 -92.466796875 c 4,17,18
 769.966796875 -105.010742188 769.966796875 -105.010742188 734.19140625 -95.611328125 c 132,-1,19
 698.416015625 -86.2109375 698.416015625 -86.2109375 669.607421875 -48.5263671875 c 4,20,21
 619.6953125 19.73046875 619.6953125 19.73046875 460.795898438 230.602539062 c 5,22,23
 350.911132812 84.1513671875 350.911132812 84.1513671875 244.536132812 -65.3076171875 c 4,24,25
 229.254882812 -86.779296875 229.254882812 -86.779296875 199.307617188 -91.0400390625 c 132,-1,26
 169.360351562 -95.30078125 169.360351562 -95.30078125 155.06640625 -85.5703125 c 4,27,28
 135.358398438 -76.037109375 135.358398438 -76.037109375 125.08984375 -67.357421875 c 132,-1,29
 114.821289062 -58.6767578125 114.821289062 -58.6767578125 98.4228515625 -36.373046875 c 4,30,31
 81.64453125 -13.5615234375 81.64453125 -13.5615234375 80.099609375 25.4619140625 c 132,-1,32
 78.5556640625 64.4853515625 78.5556640625 64.4853515625 101.044921875 99.265625 c 4,33,34
 144.328125 156.061523438 144.328125 156.061523438 329.865234375 406.545898438 c 5,35,36
 277.4609375 477.9140625 277.4609375 477.9140625 250.518554688 516.196289062 c 4,37,38
 209.421875 574.6484375 209.421875 574.6484375 178.934570312 622.579101562 c 132,-1,39
 148.448242188 670.509765625 148.448242188 670.509765625 136.23046875 691.935546875 c 132,-1,40
 124.012695312 713.361328125 124.012695312 713.361328125 92.119140625 770.90625 c 4,41,42
 76.98046875 803.5078125 76.98046875 803.5078125 89.91015625 837.798828125 c 132,-1,43
 102.838867188 872.090820312 102.838867188 872.090820312 129.291015625 887.715820312 c 4,44,45
 150.834960938 902.619140625 150.834960938 902.619140625 190.102539062 901.275390625 c 132,-1,46
 229.37109375 899.931640625 229.37109375 899.931640625 253.071289062 878.401367188 c 4,47,48
 289.301757812 845.48828125 289.301757812 845.48828125 374 717.451171875 c 4,49,50
 407.083007812 668.088867188 407.083007812 668.088867188 464.62109375 585.541015625 c 5,51,52
 515.391601562 651.77734375 515.391601562 651.77734375 523.28125 661.750976562 c 4,53,54
 567.598632812 717.721679688 567.598632812 717.721679688 605.047851562 760.7265625 c 132,-1,55
 642.497070312 803.73046875 642.497070312 803.73046875 659.169921875 821.10546875 c 132,-1,56
 675.842773438 838.48046875 675.842773438 838.48046875 722.470703125 885.9609375 c 5,0,1
EndSplineSet
EndChar

StartChar: uni024F
Encoding: 591 591 56
Width: 842
Flags: W
LayerCount: 2
Fore
SplineSet
80 902 m 1,0,-1
 527 902 l 1,1,-1
 526 628 l 1,2,-1
 762 627 l 1,3,-1
 762 -94 l 1,4,-1
 80 -94 l 1,5,-1
 80 902 l 1,0,-1
596 895 m 1,6,-1
 757 696 l 1,7,-1
 595 697 l 1,8,-1
 596 895 l 1,6,-1
EndSplineSet
EndChar

StartChar: uni0250
Encoding: 592 592 57
Width: 1220
Flags: W
LayerCount: 2
Fore
SplineSet
890.799804688 -4.400390625 m 1,0,-1
 79.599609375 -4.400390625 l 1,1,-1
 79.599609375 804.400390625 l 1,2,-1
 371.599609375 804.400390625 l 1,3,-1
 430 729.200195312 l 1,4,-1
 937.200195312 729.200195312 l 1,5,-1
 937.200195312 603.599609375 l 1,6,-1
 379.799804688 604.400390625 l 1,7,-1
 123.799804688 56.400390625 l 1,8,-1
 172.599609375 33.2001953125 l 1,9,-1
 414.200195312 550 l 1,10,-1
 1140.40039062 549.200195312 l 1,11,-1
 890.799804688 -4.400390625 l 1,0,-1
EndSplineSet
EndChar

StartChar: uni0251
Encoding: 593 593 58
Width: 1096
Flags: W
LayerCount: 2
Fore
SplineSet
80 902 m 1,0,-1
 1016 902 l 1,1,-1
 1016 -62 l 1,2,-1
 1016 -92 l 1,3,-1
 825 -92 l 1,4,-1
 825 148 l 1,5,-1
 268 148 l 1,6,-1
 268 -92 l 1,7,-1
 188 -92 l 1,8,-1
 80 14 l 1,9,-1
 80 902 l 1,0,-1
257 783 m 1,10,-1
 257 270 l 1,11,-1
 839 270 l 1,12,-1
 839 783 l 1,13,-1
 257 783 l 1,10,-1
318 723 m 1,14,-1
 779 723 l 1,15,-1
 779 330 l 1,16,-1
 318 330 l 1,17,-1
 318 723 l 1,14,-1
328 87 m 1,18,-1
 765 87 l 1,19,-1
 765 -92 l 1,20,-1
 328 -92 l 1,21,-1
 328 87 l 1,18,-1
385 56 m 1,22,-1
 385 -70 l 1,23,-1
 448 -70 l 1,24,-1
 448 56 l 1,25,-1
 385 56 l 1,22,-1
EndSplineSet
EndChar

StartChar: uni02CC
Encoding: 716 716 59
Width: 1177
VWidth: 0
Flags: W
LayerCount: 2
Fore
SplineSet
1097.24023438 409.438476562 m 1,0,-1
 912.744140625 409.438476562 l 1,1,-1
 912.744140625 -100 l 1,2,-1
 678.275390625 -100 l 1,3,-1
 678.275390625 191.161132812 l 1,4,-1
 498.65234375 191.161132812 l 1,5,-1
 498.65234375 -100 l 1,6,-1
 264.18359375 -100 l 1,7,-1
 264.18359375 409.438476562 l 1,8,-1
 79.759765625 409.438476562 l 5,9,-1
 588.5 900 l 5,10,-1
 1097.24023438 409.438476562 l 1,0,-1
EndSplineSet
EndChar

StartChar: uni02CD
Encoding: 717 717 60
Width: 1177
VWidth: 0
Flags: W
LayerCount: 2
Fore
SplineSet
1097.24023438 409.438476562 m 1,0,-1
 912.744140625 409.438476562 l 1,1,-1
 912.744140625 -100 l 1,2,-1
 678.275390625 -100 l 1,3,-1
 678.275390625 191.161132812 l 1,4,-1
 498.65234375 191.161132812 l 1,5,-1
 498.65234375 -100 l 1,6,-1
 264.18359375 -100 l 1,7,-1
 264.18359375 409.438476562 l 1,8,-1
 79.759765625 409.438476562 l 1,9,-1
 230.8828125 555.162109375 l 1,10,-1
 230.8828125 863.455078125 l 1,11,-1
 392.28515625 863.455078125 l 1,12,-1
 392.28515625 710.795898438 l 1,13,-1
 588.5 900 l 1,14,-1
 1097.24023438 409.438476562 l 1,0,-1
EndSplineSet
EndChar

StartChar: backslash
Encoding: 92 92 61
Width: 638
VWidth: 79
Flags: W
LayerCount: 2
Fore
SplineSet
204.149414062 712.2421875 m 5,0,-1
 537.0703125 26.1552734375 l 5,1,-1
 464.952148438 -12.2646484375 l 5,2,-1
 132.030273438 673.826171875 l 5,3,-1
 204.149414062 712.2421875 l 5,0,-1
EndSplineSet
EndChar

StartChar: uni0270
Encoding: 624 624 62
Width: 1160
VWidth: 200
Flags: W
LayerCount: 2
Fore
SplineSet
580.055664062 899.58984375 m 128,-1,1
 681.331054688 899.58984375 681.331054688 899.58984375 773.897460938 859.827148438 c 128,-1,2
 866.463867188 820.065429688 866.463867188 820.065429688 933.512695312 753.017578125 c 128,-1,3
 1000.56152344 685.970703125 1000.56152344 685.970703125 1040.32519531 593.403320312 c 128,-1,4
 1080.08886719 500.8359375 1080.08886719 500.8359375 1080.08886719 399.544921875 c 128,-1,5
 1080.08886719 298.25390625 1080.08886719 298.25390625 1040.32617188 205.6875 c 128,-1,6
 1000.56445312 113.120117188 1000.56445312 113.120117188 933.516601562 46.0732421875 c 128,-1,7
 866.46875 -20.974609375 866.46875 -20.974609375 773.90234375 -60.736328125 c 128,-1,8
 681.334960938 -100.499023438 681.334960938 -100.499023438 580.043945312 -100.499023438 c 128,-1,9
 478.752929688 -100.499023438 478.752929688 -100.499023438 386.186523438 -60.736328125 c 128,-1,10
 293.619140625 -20.974609375 293.619140625 -20.974609375 226.572265625 46.0732421875 c 128,-1,11
 159.524414062 113.120117188 159.524414062 113.120117188 119.762695312 205.6875 c 128,-1,12
 80 298.25390625 80 298.25390625 80 399.544921875 c 128,-1,13
 80 500.83203125 80 500.83203125 119.763671875 593.3984375 c 128,-1,14
 159.528320312 685.96484375 159.528320312 685.96484375 226.577148438 753.013671875 c 128,-1,15
 293.626953125 820.0625 293.626953125 820.0625 386.196289062 859.826171875 c 128,-1,0
 478.764648438 899.58984375 478.764648438 899.58984375 580.055664062 899.58984375 c 128,-1,1
580.055664062 709.401367188 m 128,-1,17
 450.864257812 709.401367188 450.864257812 709.401367188 360.532226562 619.069335938 c 128,-1,18
 270.200195312 528.737304688 270.200195312 528.737304688 270.200195312 399.544921875 c 128,-1,19
 270.200195312 270.353515625 270.200195312 270.353515625 360.532226562 180.021484375 c 128,-1,20
 450.864257812 89.689453125 450.864257812 89.689453125 580.055664062 89.689453125 c 128,-1,21
 709.247070312 89.689453125 709.247070312 89.689453125 799.579101562 180.021484375 c 128,-1,22
 889.911132812 270.353515625 889.911132812 270.353515625 889.911132812 399.544921875 c 128,-1,23
 889.911132812 528.736328125 889.911132812 528.736328125 799.579101562 619.069335938 c 128,-1,16
 709.247070312 709.401367188 709.247070312 709.401367188 580.055664062 709.401367188 c 128,-1,17
750.122070312 399.544921875 m 128,-1,25
 750.122070312 329.125 750.122070312 329.125 700.29296875 279.295898438 c 128,-1,26
 650.462890625 229.466796875 650.462890625 229.466796875 580.055664062 229.466796875 c 128,-1,27
 509.63671875 229.466796875 509.63671875 229.466796875 459.807617188 279.295898438 c 128,-1,28
 409.977539062 329.125976562 409.977539062 329.125976562 409.977539062 399.533203125 c 128,-1,29
 409.977539062 469.952148438 409.977539062 469.952148438 459.807617188 519.78125 c 128,-1,30
 509.63671875 569.611328125 509.63671875 569.611328125 580.043945312 569.611328125 c 128,-1,31
 650.462890625 569.611328125 650.462890625 569.611328125 700.29296875 519.78125 c 128,-1,24
 750.122070312 469.952148438 750.122070312 469.952148438 750.122070312 399.544921875 c 128,-1,25
EndSplineSet
EndChar

StartChar: uni0271
Encoding: 625 625 63
Width: 1160
VWidth: 200
Flags: W
LayerCount: 2
Fore
SplineSet
580.055664062 899.58984375 m 128,-1,1
 681.331054688 899.58984375 681.331054688 899.58984375 773.897460938 859.827148438 c 128,-1,2
 866.463867188 820.065429688 866.463867188 820.065429688 933.512695312 753.017578125 c 128,-1,3
 1000.56152344 685.970703125 1000.56152344 685.970703125 1040.32519531 593.403320312 c 128,-1,4
 1080.08886719 500.8359375 1080.08886719 500.8359375 1080.08886719 399.544921875 c 128,-1,5
 1080.08886719 298.25390625 1080.08886719 298.25390625 1040.32617188 205.6875 c 128,-1,6
 1000.56445312 113.120117188 1000.56445312 113.120117188 933.516601562 46.0732421875 c 128,-1,7
 866.46875 -20.974609375 866.46875 -20.974609375 773.90234375 -60.736328125 c 128,-1,8
 681.334960938 -100.499023438 681.334960938 -100.499023438 580.043945312 -100.499023438 c 128,-1,9
 478.752929688 -100.499023438 478.752929688 -100.499023438 386.186523438 -60.736328125 c 128,-1,10
 293.619140625 -20.974609375 293.619140625 -20.974609375 226.572265625 46.0732421875 c 128,-1,11
 159.524414062 113.120117188 159.524414062 113.120117188 119.762695312 205.6875 c 128,-1,12
 80 298.25390625 80 298.25390625 80 399.544921875 c 128,-1,13
 80 500.83203125 80 500.83203125 119.763671875 593.3984375 c 128,-1,14
 159.528320312 685.96484375 159.528320312 685.96484375 226.577148438 753.013671875 c 128,-1,15
 293.626953125 820.0625 293.626953125 820.0625 386.196289062 859.826171875 c 128,-1,0
 478.764648438 899.58984375 478.764648438 899.58984375 580.055664062 899.58984375 c 128,-1,1
580.055664062 709.401367188 m 128,-1,17
 450.864257812 709.401367188 450.864257812 709.401367188 360.532226562 619.069335938 c 128,-1,18
 270.200195312 528.737304688 270.200195312 528.737304688 270.200195312 399.544921875 c 128,-1,19
 270.200195312 270.353515625 270.200195312 270.353515625 360.532226562 180.021484375 c 128,-1,20
 450.864257812 89.689453125 450.864257812 89.689453125 580.055664062 89.689453125 c 128,-1,21
 709.247070312 89.689453125 709.247070312 89.689453125 799.579101562 180.021484375 c 128,-1,22
 889.911132812 270.353515625 889.911132812 270.353515625 889.911132812 399.544921875 c 128,-1,23
 889.911132812 528.736328125 889.911132812 528.736328125 799.579101562 619.069335938 c 128,-1,16
 709.247070312 709.401367188 709.247070312 709.401367188 580.055664062 709.401367188 c 128,-1,17
EndSplineSet
EndChar

StartChar: uni0272
Encoding: 626 626 64
Width: 1160
VWidth: 300
Flags: W
LayerCount: 2
Fore
SplineSet
1080 -100 m 5,0,-1
 80 -100 l 5,1,-1
 80 900 l 5,2,-1
 1080 900 l 5,3,-1
 1080 -100 l 5,0,-1
907.263671875 727.255859375 m 5,4,-1
 252.745117188 727.255859375 l 5,5,-1
 252.745117188 72.740234375 l 5,6,-1
 907.263671875 72.740234375 l 5,7,-1
 907.263671875 727.255859375 l 5,4,-1
525.124023438 180.698242188 m 5,8,-1
 314.576171875 400.8359375 l 5,9,-1
 417.967773438 499.624023438 l 5,10,-1
 526.083984375 386.556640625 l 5,11,-1
 743.000976562 609.390625 l 5,12,-1
 845.374023438 509.629882812 l 5,13,-1
 525.124023438 180.698242188 l 5,8,-1
EndSplineSet
EndChar

StartChar: uni0273
Encoding: 627 627 65
Width: 1160
VWidth: 300
Flags: W
LayerCount: 2
Fore
SplineSet
1080 -100 m 1,0,-1
 80 -100 l 1,1,-1
 80 900 l 1,2,-1
 1080 900 l 1,3,-1
 1080 -100 l 1,0,-1
907.263671875 727.255859375 m 1,4,-1
 252.745117188 727.255859375 l 1,5,-1
 252.745117188 72.740234375 l 1,6,-1
 907.263671875 72.740234375 l 1,7,-1
 907.263671875 727.255859375 l 1,4,-1
EndSplineSet
EndChar

StartChar: uni0274
Encoding: 628 628 66
Width: 1159
VWidth: 100
Flags: W
LayerCount: 2
Fore
SplineSet
579.822265625 899.661132812 m 128,-1,1
 681.190429688 899.661132812 681.190429688 899.661132812 773.7265625 859.9609375 c 128,-1,2
 866.26171875 820.26171875 866.26171875 820.26171875 933.252929688 753.26953125 c 128,-1,3
 1000.24511719 686.278320312 1000.24511719 686.278320312 1039.94433594 593.743164062 c 128,-1,4
 1079.64453125 501.20703125 1079.64453125 501.20703125 1079.64453125 399.838867188 c 128,-1,5
 1079.64453125 298.470703125 1079.64453125 298.470703125 1039.94433594 205.934570312 c 128,-1,6
 1000.24511719 113.399414062 1000.24511719 113.399414062 933.252929688 46.408203125 c 128,-1,7
 866.26171875 -20.583984375 866.26171875 -20.583984375 773.7265625 -60.283203125 c 128,-1,8
 681.190429688 -99.9833984375 681.190429688 -99.9833984375 579.822265625 -99.9833984375 c 128,-1,9
 478.454101562 -99.9833984375 478.454101562 -99.9833984375 385.91796875 -60.283203125 c 128,-1,10
 293.3828125 -20.583984375 293.3828125 -20.583984375 226.391601562 46.408203125 c 128,-1,11
 159.399414062 113.399414062 159.399414062 113.399414062 119.700195312 205.934570312 c 128,-1,12
 80 298.470703125 80 298.470703125 80 399.838867188 c 128,-1,13
 80 501.20703125 80 501.20703125 119.700195312 593.743164062 c 128,-1,14
 159.399414062 686.278320312 159.399414062 686.278320312 226.391601562 753.26953125 c 128,-1,15
 293.3828125 820.26171875 293.3828125 820.26171875 385.91796875 859.9609375 c 128,-1,0
 478.454101562 899.661132812 478.454101562 899.661132812 579.822265625 899.661132812 c 128,-1,1
579.822265625 763.495117188 m 128,-1,17
 480.61328125 763.495117188 480.61328125 763.495117188 396.891601562 714.994140625 c 128,-1,18
 313.168945312 666.4921875 313.168945312 666.4921875 264.66796875 582.76953125 c 128,-1,19
 216.166992188 499.047851562 216.166992188 499.047851562 216.166992188 399.838867188 c 128,-1,20
 216.166992188 300.629882812 216.166992188 300.629882812 264.66796875 216.908203125 c 128,-1,21
 313.168945312 133.185546875 313.168945312 133.185546875 396.891601562 84.6845703125 c 128,-1,22
 480.61328125 36.18359375 480.61328125 36.18359375 579.822265625 36.18359375 c 128,-1,23
 679.03125 36.18359375 679.03125 36.18359375 762.752929688 84.6845703125 c 128,-1,24
 846.475585938 133.185546875 846.475585938 133.185546875 894.9765625 216.908203125 c 128,-1,25
 943.477539062 300.629882812 943.477539062 300.629882812 943.477539062 399.838867188 c 128,-1,26
 943.477539062 499.047851562 943.477539062 499.047851562 894.9765625 582.76953125 c 128,-1,27
 846.475585938 666.4921875 846.475585938 666.4921875 762.752929688 714.994140625 c 128,-1,16
 679.03125 763.495117188 679.03125 763.495117188 579.822265625 763.495117188 c 128,-1,17
806.921875 399.844726562 m 128,-1,29
 806.921875 305.825195312 806.921875 305.825195312 740.381835938 239.284179688 c 128,-1,30
 673.841796875 172.744140625 673.841796875 172.744140625 579.822265625 172.744140625 c 128,-1,31
 485.807617188 172.749023438 485.807617188 172.749023438 419.270507812 239.2890625 c 128,-1,32
 352.733398438 305.830078125 352.733398438 305.830078125 352.733398438 399.844726562 c 128,-1,33
 352.737304688 493.854492188 352.737304688 493.854492188 419.275390625 560.391601562 c 128,-1,34
 485.8125 626.928710938 485.8125 626.928710938 579.822265625 626.93359375 c 128,-1,35
 673.836914062 626.93359375 673.836914062 626.93359375 740.376953125 560.396484375 c 128,-1,28
 806.916992188 493.859375 806.916992188 493.859375 806.921875 399.844726562 c 128,-1,29
EndSplineSet
EndChar

StartChar: uni0275
Encoding: 629 629 67
Width: 1159
VWidth: 100
Flags: W
LayerCount: 2
Fore
SplineSet
579.822265625 899.661132812 m 128,-1,1
 681.190429688 899.661132812 681.190429688 899.661132812 773.7265625 859.9609375 c 128,-1,2
 866.26171875 820.26171875 866.26171875 820.26171875 933.252929688 753.26953125 c 128,-1,3
 1000.24511719 686.278320312 1000.24511719 686.278320312 1039.94433594 593.743164062 c 128,-1,4
 1079.64453125 501.20703125 1079.64453125 501.20703125 1079.64453125 399.838867188 c 128,-1,5
 1079.64453125 298.470703125 1079.64453125 298.470703125 1039.94433594 205.934570312 c 128,-1,6
 1000.24511719 113.399414062 1000.24511719 113.399414062 933.252929688 46.408203125 c 128,-1,7
 866.26171875 -20.583984375 866.26171875 -20.583984375 773.7265625 -60.283203125 c 128,-1,8
 681.190429688 -99.9833984375 681.190429688 -99.9833984375 579.822265625 -99.9833984375 c 128,-1,9
 478.454101562 -99.9833984375 478.454101562 -99.9833984375 385.91796875 -60.283203125 c 128,-1,10
 293.3828125 -20.583984375 293.3828125 -20.583984375 226.391601562 46.408203125 c 128,-1,11
 159.399414062 113.399414062 159.399414062 113.399414062 119.700195312 205.934570312 c 128,-1,12
 80 298.470703125 80 298.470703125 80 399.838867188 c 128,-1,13
 80 501.20703125 80 501.20703125 119.700195312 593.743164062 c 128,-1,14
 159.399414062 686.278320312 159.399414062 686.278320312 226.391601562 753.26953125 c 128,-1,15
 293.3828125 820.26171875 293.3828125 820.26171875 385.91796875 859.9609375 c 128,-1,0
 478.454101562 899.661132812 478.454101562 899.661132812 579.822265625 899.661132812 c 128,-1,1
579.822265625 763.495117188 m 128,-1,17
 480.61328125 763.495117188 480.61328125 763.495117188 396.891601562 714.994140625 c 128,-1,18
 313.168945312 666.4921875 313.168945312 666.4921875 264.66796875 582.76953125 c 128,-1,19
 216.166992188 499.047851562 216.166992188 499.047851562 216.166992188 399.838867188 c 128,-1,20
 216.166992188 300.629882812 216.166992188 300.629882812 264.66796875 216.908203125 c 128,-1,21
 313.168945312 133.185546875 313.168945312 133.185546875 396.891601562 84.6845703125 c 128,-1,22
 480.61328125 36.18359375 480.61328125 36.18359375 579.822265625 36.18359375 c 128,-1,23
 679.03125 36.18359375 679.03125 36.18359375 762.752929688 84.6845703125 c 128,-1,24
 846.475585938 133.185546875 846.475585938 133.185546875 894.9765625 216.908203125 c 128,-1,25
 943.477539062 300.629882812 943.477539062 300.629882812 943.477539062 399.838867188 c 128,-1,26
 943.477539062 499.047851562 943.477539062 499.047851562 894.9765625 582.76953125 c 128,-1,27
 846.475585938 666.4921875 846.475585938 666.4921875 762.752929688 714.994140625 c 128,-1,16
 679.03125 763.495117188 679.03125 763.495117188 579.822265625 763.495117188 c 128,-1,17
EndSplineSet
EndChar

StartChar: uni0276
Encoding: 630 630 68
Width: 1160
VWidth: 200
Flags: W
LayerCount: 2
Fore
SplineSet
80 900 m 1,0,-1
 1080 900 l 1,1,-1
 1080 -100 l 1,2,-1
 80 -100 l 1,3,-1
 80 900 l 1,0,-1
216.912109375 763.021484375 m 1,4,-1
 216.912109375 36.890625 l 1,5,-1
 943.109375 36.890625 l 1,6,-1
 943.109375 763.021484375 l 1,7,-1
 216.912109375 763.021484375 l 1,4,-1
810.830078125 685.244140625 m 0,8,9
 838.44140625 684.904296875 838.44140625 684.904296875 853.037109375 670.796875 c 0,10,11
 860.763671875 663.33203125 860.763671875 663.33203125 863.978515625 659.236328125 c 128,-1,12
 867.19140625 655.14453125 867.19140625 655.14453125 869.6640625 645.365234375 c 128,-1,13
 872.134765625 635.588867188 872.134765625 635.588867188 870.6875 621.486328125 c 0,14,15
 870.1171875 615.896484375 870.1171875 615.896484375 864.501953125 606.328125 c 0,16,17
 836.9296875 559.330078125 836.9296875 559.330078125 703.96875 361.37109375 c 0,18,19
 585.240234375 184.59765625 585.240234375 184.59765625 557.505859375 149.4765625 c 128,-1,20
 529.771484375 114.353515625 529.771484375 114.353515625 508.90234375 114.328125 c 0,21,22
 495.044921875 114.30078125 495.044921875 114.30078125 488.03515625 116.28125 c 128,-1,23
 481.025390625 118.263671875 481.025390625 118.263671875 465.787109375 134.943359375 c 128,-1,24
 450.553710938 151.618164062 450.553710938 151.618164062 434.6875 174.66015625 c 128,-1,25
 418.826171875 197.69921875 418.826171875 197.69921875 381.26953125 253.984375 c 0,26,27
 324.946289062 338.392578125 324.946289062 338.392578125 293.4140625 395.283203125 c 0,28,29
 284.609375 411.166015625 284.609375 411.166015625 294.244140625 429.240234375 c 128,-1,30
 303.876953125 447.3125 303.876953125 447.3125 319.6796875 456.6484375 c 0,31,32
 334.294921875 465.283203125 334.294921875 465.283203125 350.587890625 465.91015625 c 128,-1,33
 366.877929688 466.53515625 366.877929688 466.53515625 382.69140625 454.958984375 c 0,34,35
 402.716796875 436.76953125 402.716796875 436.76953125 449.78515625 365.62890625 c 0,36,37
 503.4609375 284.497070312 503.4609375 284.497070312 506.595703125 285.505859375 c 128,-1,38
 509.72265625 286.5078125 509.72265625 286.5078125 631.228515625 467.66015625 c 0,39,40
 751.87109375 647.5390625 751.87109375 647.5390625 762.28515625 659.427734375 c 0,41,42
 777.33203125 676.639648438 777.33203125 676.639648438 784.939453125 680.78515625 c 128,-1,43
 792.549804688 684.932617188 792.549804688 684.932617188 807.091796875 685.228515625 c 0,44,45
 808.974609375 685.266601562 808.974609375 685.266601562 810.830078125 685.244140625 c 0,8,9
EndSplineSet
EndChar

StartChar: uni0277
Encoding: 631 631 69
Width: 1160
VWidth: 200
Flags: W
LayerCount: 2
Fore
SplineSet
80 900 m 1,0,-1
 1080 900 l 1,1,-1
 1080 -100 l 1,2,-1
 80 -100 l 1,3,-1
 80 900 l 1,0,-1
216.912109375 763.021484375 m 1,4,-1
 216.912109375 36.890625 l 1,5,-1
 943.109375 36.890625 l 1,6,-1
 943.109375 763.021484375 l 1,7,-1
 216.912109375 763.021484375 l 1,4,-1
EndSplineSet
EndChar

StartChar: uni0278
Encoding: 632 632 70
Width: 1159
VWidth: 100
Flags: W
LayerCount: 2
Fore
SplineSet
579.966796875 900 m 128,-1,1
 681.486328125 900 681.486328125 900 774.06640625 860.32421875 c 128,-1,2
 866.647460938 820.6484375 866.647460938 820.6484375 933.642578125 753.653320312 c 128,-1,3
 1000.63769531 686.658203125 1000.63769531 686.658203125 1040.31347656 594.077148438 c 128,-1,4
 1079.98925781 501.497070312 1079.98925781 501.497070312 1079.98925781 399.977539062 c 128,-1,5
 1079.98925781 298.455078125 1079.98925781 298.455078125 1040.31542969 205.881835938 c 128,-1,6
 1000.64160156 113.30859375 1000.64160156 113.30859375 933.646484375 46.3251953125 c 128,-1,7
 866.651367188 -20.658203125 866.651367188 -20.658203125 774.071289062 -60.3232421875 c 128,-1,8
 681.491210938 -99.9892578125 681.491210938 -99.9892578125 579.966796875 -99.9892578125 c 128,-1,9
 478.442382812 -99.9892578125 478.442382812 -99.9892578125 385.870117188 -60.32421875 c 128,-1,10
 293.298828125 -20.658203125 293.298828125 -20.658203125 226.314453125 46.3251953125 c 128,-1,11
 159.330078125 113.309570312 159.330078125 113.309570312 119.665039062 205.881835938 c 128,-1,12
 80 298.453125 80 298.453125 80 399.977539062 c 128,-1,13
 80 501.498046875 80 501.498046875 119.665039062 594.078125 c 128,-1,14
 159.331054688 686.657226562 159.331054688 686.657226562 226.314453125 753.653320312 c 128,-1,15
 293.296875 820.649414062 293.296875 820.649414062 385.87109375 860.32421875 c 128,-1,0
 478.444335938 900 478.444335938 900 579.966796875 900 c 128,-1,1
579.966796875 813.862304688 m 0,16,17
 467.280273438 813.848632812 467.280273438 813.848632812 371.982421875 758.559570312 c 128,-1,18
 276.684570312 703.270507812 276.684570312 703.270507812 221.413085938 607.959960938 c 128,-1,19
 166.142578125 512.6484375 166.142578125 512.6484375 166.142578125 399.959960938 c 128,-1,20
 166.142578125 287.272460938 166.142578125 287.272460938 221.4140625 191.977539062 c 128,-1,21
 276.685546875 96.681640625 276.685546875 96.681640625 371.981445312 41.4091796875 c 128,-1,22
 467.27734375 -13.8623046875 467.27734375 -13.8623046875 579.96484375 -13.8623046875 c 128,-1,23
 692.653320312 -13.8623046875 692.653320312 -13.8623046875 787.96484375 41.4091796875 c 128,-1,24
 883.275390625 96.6796875 883.275390625 96.6796875 938.564453125 191.977539062 c 128,-1,25
 993.853515625 287.276367188 993.853515625 287.276367188 993.853515625 399.959960938 c 0,26,27
 993.853515625 536.498046875 993.853515625 536.498046875 912.041015625 646.59375 c 1,28,29
 910.080078125 642.537109375 910.080078125 642.537109375 908.341796875 639.572265625 c 0,30,31
 876.641601562 585.544921875 876.641601562 585.544921875 723.397460938 357.39453125 c 0,32,33
 586.61328125 153.743164062 586.61328125 153.743164062 554.65234375 113.26953125 c 128,-1,34
 522.69140625 72.7958984375 522.69140625 72.7958984375 498.653320312 72.7724609375 c 0,35,36
 470.163085938 72.7216796875 470.163085938 72.7216796875 449.504882812 95.3310546875 c 128,-1,37
 428.846679688 117.939453125 428.846679688 117.939453125 351.642578125 233.638671875 c 0,38,39
 288.142578125 328.803710938 288.142578125 328.803710938 250.395507812 396.450195312 c 0,40,41
 238.65625 417.487304688 238.65625 417.487304688 250.244140625 436.166015625 c 128,-1,42
 261.83203125 454.84375 261.83203125 454.84375 282.0546875 466.790039062 c 0,43,44
 299.010742188 476.805664062 299.010742188 476.805664062 316.973632812 477.649414062 c 128,-1,45
 334.9375 478.493164062 334.9375 478.493164062 353.272460938 465.223632812 c 0,46,47
 376.3125 444.323242188 376.3125 444.323242188 430.572265625 362.290039062 c 0,48,49
 492.391601562 268.84375 492.391601562 268.84375 496.02734375 270.000976562 c 128,-1,50
 499.65234375 271.17578125 499.65234375 271.17578125 639.594726562 479.845703125 c 0,51,52
 778.549804688 687.040039062 778.549804688 687.040039062 790.549804688 700.767578125 c 0,53,54
 805.182617188 717.508789062 805.182617188 717.508789062 812.381835938 722.747070312 c 128,-1,55
 819.58203125 727.985351562 819.58203125 727.985351562 830.233398438 729.354492188 c 1,56,57
 719.060546875 813.862304688 719.060546875 813.862304688 579.966796875 813.862304688 c 0,16,17
EndSplineSet
EndChar

StartChar: uni0279
Encoding: 633 633 71
Width: 1160
VWidth: 100
Flags: W
LayerCount: 2
Fore
SplineSet
579.989257812 900 m 128,-1,1
 681.516601562 900 681.516601562 900 774.103515625 860.322265625 c 128,-1,2
 866.69140625 820.64453125 866.69140625 820.64453125 933.690429688 753.645507812 c 128,-1,3
 1000.68945312 686.646484375 1000.68945312 686.646484375 1040.3671875 594.05859375 c 128,-1,4
 1080.04492188 501.471679688 1080.04492188 501.471679688 1080.04492188 399.944335938 c 128,-1,5
 1080.04492188 298.41796875 1080.04492188 298.41796875 1040.3671875 205.83984375 c 128,-1,6
 1000.69042969 113.262695312 1000.69042969 113.262695312 933.690429688 46.2763671875 c 128,-1,7
 866.690429688 -20.7099609375 866.690429688 -20.7099609375 774.104492188 -60.3779296875 c 128,-1,8
 681.518554688 -100.044921875 681.518554688 -100.044921875 579.989257812 -100.044921875 c 128,-1,9
 478.4609375 -100.044921875 478.4609375 -100.044921875 385.884765625 -60.3779296875 c 128,-1,10
 293.30859375 -20.7109375 293.30859375 -20.7109375 226.321289062 46.2763671875 c 128,-1,11
 159.333984375 113.263671875 159.333984375 113.263671875 119.666992188 205.83984375 c 128,-1,12
 80 298.416015625 80 298.416015625 80 399.944335938 c 128,-1,13
 80 501.473632812 80 501.473632812 119.666992188 594.059570312 c 128,-1,14
 159.334960938 686.645507812 159.334960938 686.645507812 226.321289062 753.645507812 c 128,-1,15
 293.307617188 820.645507812 293.307617188 820.645507812 385.884765625 860.322265625 c 128,-1,0
 478.462890625 900 478.462890625 900 579.989257812 900 c 128,-1,1
579.989257812 813.856445312 m 128,-1,17
 467.294921875 813.856445312 467.294921875 813.856445312 371.98828125 758.564453125 c 128,-1,18
 276.682617188 703.272460938 276.682617188 703.272460938 221.408203125 607.956054688 c 128,-1,19
 166.133789062 512.640625 166.133789062 512.640625 166.133789062 399.9453125 c 128,-1,20
 166.133789062 287.248046875 166.133789062 287.248046875 221.412109375 191.944335938 c 128,-1,21
 276.689453125 96.640625 276.689453125 96.640625 371.9921875 41.365234375 c 128,-1,22
 467.295898438 -13.91015625 467.295898438 -13.91015625 579.989257812 -13.91015625 c 128,-1,23
 692.682617188 -13.91015625 692.682617188 -13.91015625 787.999023438 41.3671875 c 128,-1,24
 883.31640625 96.64453125 883.31640625 96.64453125 938.608398438 191.950195312 c 128,-1,25
 993.900390625 287.255859375 993.900390625 287.255859375 993.900390625 399.9453125 c 128,-1,26
 993.900390625 512.63671875 993.900390625 512.63671875 938.609375 607.955078125 c 128,-1,27
 883.317382812 703.2734375 883.317382812 703.2734375 787.999023438 758.565429688 c 128,-1,16
 692.680664062 813.856445312 692.680664062 813.856445312 579.989257812 813.856445312 c 128,-1,17
EndSplineSet
EndChar

StartChar: uni027A
Encoding: 634 634 72
Width: 1160
VWidth: 200
Flags: W
LayerCount: 2
Fore
SplineSet
1080 -99.9892578125 m 1,0,-1
 80 -99.9892578125 l 1,1,-1
 80 900 l 1,2,-1
 1080 900 l 1,3,-1
 1080 -99.9892578125 l 1,0,-1
1004.20019531 824.139648438 m 1,4,-1
 155.86328125 824.139648438 l 1,5,-1
 155.86328125 -24.1943359375 l 1,6,-1
 1004.20019531 -24.1943359375 l 1,7,-1
 1004.20019531 824.139648438 l 1,4,-1
845.088867188 733.833007812 m 0,8,9
 880.599609375 734.556640625 880.599609375 734.556640625 898.86328125 716.905273438 c 0,10,11
 907.888671875 708.181640625 907.888671875 708.181640625 911.649414062 703.389648438 c 128,-1,12
 915.40625 698.596679688 915.40625 698.596679688 918.287109375 687.170898438 c 128,-1,13
 921.166992188 675.744140625 921.166992188 675.744140625 919.484375 659.24609375 c 0,14,15
 918.813476562 652.669921875 918.813476562 652.669921875 912.291992188 641.5546875 c 0,16,17
 880.388671875 587.135742188 880.388671875 587.135742188 724.4921875 355.04296875 c 0,18,19
 585.5546875 148.189453125 585.5546875 148.189453125 553.172851562 107.163085938 c 128,-1,20
 520.79296875 66.1357421875 520.79296875 66.1357421875 496.404296875 66.109375 c 0,21,22
 467.48046875 66.0595703125 467.48046875 66.0595703125 446.477539062 89.0458984375 c 128,-1,23
 425.47265625 112.03125 425.47265625 112.03125 347.103515625 229.475585938 c 0,24,25
 281.293945312 328.100585938 281.293945312 328.100585938 244.38671875 394.688476562 c 0,26,27
 234.08984375 413.267578125 234.08984375 413.267578125 245.33984375 434.415039062 c 128,-1,28
 256.591796875 455.561523438 256.591796875 455.561523438 275.061523438 466.474609375 c 0,29,30
 292.159179688 476.57421875 292.159179688 476.57421875 311.208984375 477.30859375 c 128,-1,31
 330.260742188 478.041992188 330.260742188 478.041992188 348.7578125 464.501953125 c 0,32,33
 372.151367188 443.2578125 372.151367188 443.2578125 427.2265625 360.004882812 c 0,34,35
 489.984375 265.141601562 489.984375 265.141601562 493.66796875 266.325195312 c 128,-1,36
 497.421875 267.549804688 497.421875 267.549804688 639.467773438 479.336914062 c 0,37,38
 780.538085938 689.676757812 780.538085938 689.676757812 792.711914062 703.603515625 c 0,39,40
 810.328125 723.756835938 810.328125 723.756835938 819.217773438 728.623046875 c 128,-1,41
 828.106445312 733.48828125 828.106445312 733.48828125 845.088867188 733.833007812 c 0,8,9
EndSplineSet
EndChar

StartChar: uni027B
Encoding: 635 635 73
Width: 1160
VWidth: 200
Flags: W
LayerCount: 2
Fore
SplineSet
1080 -99.9892578125 m 1,0,-1
 80 -99.9892578125 l 1,1,-1
 80 900 l 1,2,-1
 1080 900 l 1,3,-1
 1080 -99.9892578125 l 1,0,-1
1004.20019531 824.139648438 m 1,4,-1
 155.86328125 824.139648438 l 1,5,-1
 155.86328125 -24.1943359375 l 1,6,-1
 1004.20019531 -24.1943359375 l 1,7,-1
 1004.20019531 824.139648438 l 1,4,-1
EndSplineSet
EndChar

StartChar: uni0260
Encoding: 608 608 74
Width: 1160
VWidth: 100
Flags: W
LayerCount: 2
Fore
SplineSet
129.654296875 742.33203125 m 1,0,-1
 1030.34375 742.33203125 l 1,1,-1
 1030.34375 57.666015625 l 1,2,-1
 129.654296875 57.666015625 l 1,3,-1
 129.654296875 742.33203125 l 1,0,-1
313.131835938 690.987304688 m 128,-1,5
 271.2265625 690.987304688 271.2265625 690.987304688 241.569335938 661.330078125 c 128,-1,6
 211.912109375 631.672851562 211.912109375 631.672851562 211.912109375 589.767578125 c 128,-1,7
 211.912109375 547.86328125 211.912109375 547.86328125 241.569335938 518.205078125 c 128,-1,8
 271.2265625 488.547851562 271.2265625 488.547851562 313.131835938 488.547851562 c 128,-1,9
 355.037109375 488.547851562 355.037109375 488.547851562 384.6953125 518.205078125 c 128,-1,10
 414.352539062 547.862304688 414.352539062 547.862304688 414.352539062 589.767578125 c 128,-1,11
 414.352539062 631.672851562 414.352539062 631.672851562 384.6953125 661.330078125 c 128,-1,4
 355.037109375 690.987304688 355.037109375 690.987304688 313.131835938 690.987304688 c 128,-1,5
660.84375 442.62109375 m 1,12,-1
 492.143554688 261.732421875 l 1,13,-1
 418.571289062 337.178710938 l 1,14,-1
 193.170898438 111.779296875 l 1,15,-1
 964.504882812 111.779296875 l 1,16,-1
 660.84375 442.62109375 l 1,12,-1
EndSplineSet
EndChar

StartChar: Utilde
Encoding: 360 360 75
Width: 1160
VWidth: 200
Flags: W
LayerCount: 2
Fore
SplineSet
80 722.015625 m 1,0,-1
 163.016601562 722.015625 l 1,1,-1
 163.016601562 77.984375 l 1,2,-1
 80 77.984375 l 1,3,-1
 80 722.015625 l 1,0,-1
186.547851562 722.015625 m 1,4,-1
 213.586914062 722.015625 l 1,5,-1
 213.586914062 77.984375 l 1,6,-1
 186.547851562 77.984375 l 1,7,-1
 186.547851562 722.015625 l 1,4,-1
224.40234375 722.015625 m 1,8,-1
 249.6875 722.015625 l 1,9,-1
 249.6875 77.984375 l 1,10,-1
 224.40234375 77.984375 l 1,11,-1
 224.40234375 722.015625 l 1,8,-1
283.887695312 722.015625 m 1,12,-1
 327.150390625 722.015625 l 1,13,-1
 327.150390625 77.984375 l 1,14,-1
 283.887695312 77.984375 l 1,15,-1
 283.887695312 722.015625 l 1,12,-1
336.211914062 722.015625 m 1,16,-1
 386.782226562 722.015625 l 1,17,-1
 386.782226562 77.984375 l 1,18,-1
 336.211914062 77.984375 l 1,19,-1
 336.211914062 722.015625 l 1,16,-1
421.859375 722.015625 m 1,20,-1
 474.18359375 722.015625 l 1,21,-1
 474.18359375 77.984375 l 1,22,-1
 421.859375 77.984375 l 1,23,-1
 421.859375 722.015625 l 1,20,-1
484.999023438 722.015625 m 1,24,-1
 515.69140625 722.015625 l 1,25,-1
 515.69140625 77.984375 l 1,26,-1
 484.999023438 77.984375 l 1,27,-1
 484.999023438 722.015625 l 1,24,-1
548.284179688 722.015625 m 1,28,-1
 578.977539062 722.015625 l 1,29,-1
 578.977539062 77.984375 l 1,30,-1
 548.284179688 77.984375 l 1,31,-1
 548.284179688 722.015625 l 1,28,-1
601.485351562 722.015625 m 1,32,-1
 605.138671875 722.015625 l 1,33,-1
 605.138671875 77.984375 l 1,34,-1
 601.485351562 77.984375 l 1,35,-1
 601.485351562 722.015625 l 1,32,-1
615.955078125 722.015625 m 1,36,-1
 675.440429688 722.015625 l 1,37,-1
 675.440429688 77.984375 l 1,38,-1
 615.955078125 77.984375 l 1,39,-1
 615.955078125 722.015625 l 1,36,-1
712.41796875 722.015625 m 1,40,-1
 755.6796875 722.015625 l 1,41,-1
 755.6796875 77.984375 l 1,42,-1
 712.41796875 77.984375 l 1,43,-1
 712.41796875 722.015625 l 1,40,-1
764.741210938 722.015625 m 1,44,-1
 836.942382812 722.015625 l 1,45,-1
 836.942382812 77.984375 l 1,46,-1
 764.741210938 77.984375 l 1,47,-1
 764.741210938 722.015625 l 1,44,-1
910.020507812 722.015625 m 1,48,-1
 963.221679688 722.015625 l 1,49,-1
 963.221679688 77.984375 l 1,50,-1
 910.020507812 77.984375 l 1,51,-1
 910.020507812 722.015625 l 1,48,-1
847.465820312 722.015625 m 1,52,-1
 869.096679688 722.015625 l 1,53,-1
 869.096679688 77.984375 l 1,54,-1
 847.465820312 77.984375 l 1,55,-1
 847.465820312 722.015625 l 1,52,-1
995.229492188 722.015625 m 1,56,-1
 1080 722.015625 l 1,57,-1
 1080 77.984375 l 1,58,-1
 995.229492188 77.984375 l 1,59,-1
 995.229492188 722.015625 l 1,56,-1
EndSplineSet
EndChar

StartChar: uni0261
Encoding: 609 609 76
Width: 1160
VWidth: 100
Flags: W
LayerCount: 2
Fore
SplineSet
80 753.666992188 m 1,0,-1
 1080 753.666992188 l 1,1,-1
 1080 46.3330078125 l 1,2,-1
 80 46.3330078125 l 1,3,-1
 80 731.366210938 l 1,4,-1
 80 753.666992188 l 1,0,-1
124.5859375 709.065429688 m 1,5,-1
 124.5859375 533.654296875 l 1,6,-1
 352.107421875 533.654296875 l 1,7,-1
 352.107421875 709.065429688 l 1,8,-1
 124.5859375 709.065429688 l 1,5,-1
396.696289062 709.065429688 m 1,9,-1
 396.696289062 533.654296875 l 1,10,-1
 1035.40820312 533.654296875 l 1,11,-1
 1035.40820312 709.065429688 l 1,12,-1
 396.696289062 709.065429688 l 1,9,-1
124.5859375 489.0546875 m 1,13,-1
 124.5859375 313.487304688 l 1,14,-1
 352.107421875 313.487304688 l 1,15,-1
 352.107421875 489.0546875 l 1,16,-1
 124.5859375 489.0546875 l 1,13,-1
396.696289062 489.0546875 m 1,17,-1
 396.696289062 313.487304688 l 1,18,-1
 1035.40820312 313.487304688 l 1,19,-1
 1035.40820312 489.0546875 l 1,20,-1
 396.696289062 489.0546875 l 1,17,-1
124.5859375 268.8984375 m 1,21,-1
 124.5859375 90.9326171875 l 1,22,-1
 352.107421875 90.9326171875 l 1,23,-1
 352.107421875 268.8984375 l 1,24,-1
 124.5859375 268.8984375 l 1,21,-1
396.696289062 268.8984375 m 1,25,-1
 396.696289062 90.9326171875 l 1,26,-1
 1035.40820312 90.9326171875 l 1,27,-1
 1035.40820312 268.8984375 l 1,28,-1
 396.696289062 268.8984375 l 1,25,-1
EndSplineSet
EndChar

StartChar: uni0262
Encoding: 610 610 77
Width: 1159
VWidth: 100
Flags: W
LayerCount: 2
Fore
SplineSet
93.8408203125 757.700195312 m 2,0,-1
 1066.05175781 757.696289062 l 2,1,2
 1071.78125 757.6875 1071.78125 757.6875 1075.83300781 753.63671875 c 128,-1,3
 1079.88378906 749.584960938 1079.88378906 749.584960938 1079.89355469 743.85546875 c 2,4,-1
 1079.89355469 56.14453125 l 2,5,6
 1079.88378906 50.4150390625 1079.88378906 50.4150390625 1075.83300781 46.3642578125 c 128,-1,7
 1071.78125 42.3125 1071.78125 42.3125 1066.05175781 42.3037109375 c 2,8,-1
 93.8408203125 42.3037109375 l 2,9,10
 88.111328125 42.3125 88.111328125 42.3125 84.060546875 46.36328125 c 128,-1,11
 80.009765625 50.4150390625 80.009765625 50.4150390625 80 56.14453125 c 2,12,-1
 80 743.85546875 l 2,13,14
 80.009765625 749.58203125 80.009765625 749.58203125 84.0615234375 753.63671875 c 128,-1,15
 88.11328125 757.69140625 88.11328125 757.69140625 93.8408203125 757.700195312 c 2,0,-1
151.008789062 686.639648438 m 1,16,-1
 151.008789062 543.795898438 l 1,17,-1
 344.53125 543.795898438 l 1,18,-1
 344.53125 686.639648438 l 1,19,-1
 151.008789062 686.639648438 l 1,16,-1
415.59765625 686.639648438 m 1,20,-1
 415.59765625 543.795898438 l 1,21,-1
 1008.88671875 543.795898438 l 1,22,-1
 1008.88671875 686.639648438 l 1,23,-1
 415.59765625 686.639648438 l 1,20,-1
151.008789062 472.740234375 m 1,24,-1
 151.008789062 329.740234375 l 1,25,-1
 344.53125 329.740234375 l 1,26,-1
 344.53125 472.740234375 l 1,27,-1
 151.008789062 472.740234375 l 1,24,-1
415.59765625 472.740234375 m 1,28,-1
 415.59765625 329.740234375 l 1,29,-1
 1008.88671875 329.740234375 l 1,30,-1
 1008.88671875 472.740234375 l 1,31,-1
 415.59765625 472.740234375 l 1,28,-1
151.008789062 258.740234375 m 1,32,-1
 151.008789062 113.373046875 l 1,33,-1
 344.53125 113.373046875 l 1,34,-1
 344.53125 258.740234375 l 1,35,-1
 151.008789062 258.740234375 l 1,32,-1
415.59765625 258.740234375 m 1,36,-1
 415.59765625 113.373046875 l 1,37,-1
 1008.88671875 113.373046875 l 1,38,-1
 1008.88671875 258.740234375 l 1,39,-1
 415.59765625 258.740234375 l 1,36,-1
EndSplineSet
EndChar

StartChar: uni0263
Encoding: 611 611 78
Width: 1160
VWidth: 100
Flags: W
LayerCount: 2
Fore
SplineSet
80 739.555664062 m 1,0,-1
 328.133789062 739.555664062 l 1,1,-1
 328.133789062 547.390625 l 1,2,-1
 80 547.390625 l 1,3,-1
 80 739.555664062 l 1,0,-1
378.510742188 739.555664062 m 1,4,-1
 1080 739.555664062 l 1,5,-1
 1080 547.390625 l 1,6,-1
 378.510742188 547.390625 l 1,7,-1
 378.510742188 739.555664062 l 1,4,-1
80 497.010742188 m 1,8,-1
 328.133789062 497.010742188 l 1,9,-1
 328.133789062 304.846679688 l 1,10,-1
 80 304.846679688 l 1,11,-1
 80 497.010742188 l 1,8,-1
378.510742188 497.010742188 m 1,12,-1
 1080 497.010742188 l 1,13,-1
 1080 304.846679688 l 1,14,-1
 378.510742188 304.846679688 l 1,15,-1
 378.510742188 497.010742188 l 1,12,-1
80 254.477539062 m 1,16,-1
 328.133789062 254.477539062 l 1,17,-1
 328.133789062 60.44921875 l 1,18,-1
 80 60.44921875 l 1,19,-1
 80 254.477539062 l 1,16,-1
378.510742188 254.477539062 m 1,20,-1
 1080 254.477539062 l 1,21,-1
 1080 60.44921875 l 1,22,-1
 378.510742188 60.44921875 l 1,23,-1
 378.510742188 254.477539062 l 1,20,-1
EndSplineSet
EndChar

StartChar: uni0264
Encoding: 612 612 79
Width: 1160
VWidth: 100
Flags: W
LayerCount: 2
Fore
SplineSet
80 726.244140625 m 1,0,-1
 268.010742188 726.244140625 l 1,1,-1
 268.010742188 600.888671875 l 1,2,-1
 80 600.888671875 l 1,3,-1
 80 726.244140625 l 1,0,-1
401.93359375 726.244140625 m 1,4,-1
 1080.11132812 726.244140625 l 1,5,-1
 1080.11132812 600.888671875 l 1,6,-1
 401.93359375 600.888671875 l 1,7,-1
 401.93359375 726.244140625 l 1,4,-1
80 464.06640625 m 1,8,-1
 268.010742188 464.06640625 l 1,9,-1
 268.010742188 338.7109375 l 1,10,-1
 80 338.7109375 l 1,11,-1
 80 464.06640625 l 1,8,-1
401.93359375 464.06640625 m 1,12,-1
 1080.11132812 464.06640625 l 1,13,-1
 1080.11132812 338.7109375 l 1,14,-1
 401.93359375 338.7109375 l 1,15,-1
 401.93359375 464.06640625 l 1,12,-1
80 201.944335938 m 1,16,-1
 268.010742188 201.944335938 l 1,17,-1
 268.010742188 73.755859375 l 1,18,-1
 80 73.755859375 l 1,19,-1
 80 201.944335938 l 1,16,-1
401.93359375 201.944335938 m 1,20,-1
 1080.11132812 201.944335938 l 1,21,-1
 1080.11132812 73.755859375 l 1,22,-1
 401.93359375 73.755859375 l 1,23,-1
 401.93359375 201.944335938 l 1,20,-1
EndSplineSet
EndChar

StartChar: uni01B7
Encoding: 439 439 80
Width: 1160
VWidth: 1100
Flags: W
LayerCount: 2
Fore
SplineSet
580 900 m 128,-1,1
 716 900 716 900 831 833 c 128,-1,2
 946 766 946 766 1013 651 c 128,-1,3
 1080 536 1080 536 1080 400 c 128,-1,4
 1080 264 1080 264 1013 149 c 128,-1,5
 946 34 946 34 831 -33 c 128,-1,6
 716 -100 716 -100 580 -100 c 128,-1,7
 444 -100 444 -100 329 -33 c 128,-1,8
 214 34 214 34 147 149 c 128,-1,9
 80 264 80 264 80 400 c 128,-1,10
 80 536 80 536 147 651 c 128,-1,11
 214 766 214 766 329 833 c 128,-1,0
 444 900 444 900 580 900 c 128,-1,1
481.674804688 338.948242188 m 1,12,-1
 912.361328125 338.948242188 l 1,13,-1
 912.361328125 461.051757812 l 1,14,-1
 481.674804688 461.051757812 l 1,15,-1
 623.20703125 602.583984375 l 1,16,-1
 536.866210938 688.924804688 l 1,17,-1
 247.638671875 400 l 1,18,-1
 536.866210938 111.075195312 l 1,19,-1
 623.20703125 197.416015625 l 1,20,-1
 481.674804688 338.948242188 l 1,12,-1
EndSplineSet
EndChar

StartChar: uni01B8
Encoding: 440 440 81
Width: 1160
VWidth: 1200
Flags: W
LayerCount: 2
Fore
SplineSet
580 900 m 128,-1,1
 716 900 716 900 831 833 c 128,-1,2
 946 766 946 766 1013 651 c 128,-1,3
 1080 536 1080 536 1080 400 c 128,-1,4
 1080 264 1080 264 1013 149 c 128,-1,5
 946 34 946 34 831 -33 c 128,-1,6
 716 -100 716 -100 580 -100 c 128,-1,7
 444 -100 444 -100 329 -33 c 128,-1,8
 214 34 214 34 147 149 c 128,-1,9
 80 264 80 264 80 400 c 128,-1,10
 80 536 80 536 147 651 c 128,-1,11
 214 766 214 766 329 833 c 128,-1,0
 444 900 444 900 580 900 c 128,-1,1
641.051757812 498.325195312 m 1,12,-1
 782.583984375 356.79296875 l 1,13,-1
 868.924804688 443.133789062 l 1,14,-1
 580 732.361328125 l 1,15,-1
 291.075195312 443.133789062 l 1,16,-1
 377.416015625 356.79296875 l 1,17,-1
 518.948242188 498.325195312 l 1,18,-1
 518.948242188 67.638671875 l 1,19,-1
 641.051757812 67.638671875 l 1,20,-1
 641.051757812 498.325195312 l 1,12,-1
EndSplineSet
EndChar

StartChar: uni01B9
Encoding: 441 441 82
Width: 1160
VWidth: 1100
Flags: W
LayerCount: 2
Fore
SplineSet
580 900 m 128,-1,1
 716 900 716 900 831 833 c 128,-1,2
 946 766 946 766 1013 651 c 128,-1,3
 1080 536 1080 536 1080 400 c 128,-1,4
 1080 264 1080 264 1013 149 c 128,-1,5
 946 34 946 34 831 -33 c 128,-1,6
 716 -100 716 -100 580 -100 c 128,-1,7
 444 -100 444 -100 329 -33 c 128,-1,8
 214 34 214 34 147 149 c 128,-1,9
 80 264 80 264 80 400 c 128,-1,10
 80 536 80 536 147 651 c 128,-1,11
 214 766 214 766 329 833 c 128,-1,0
 444 900 444 900 580 900 c 128,-1,1
678.325195312 338.948242188 m 1,12,-1
 536.79296875 197.416015625 l 1,13,-1
 623.133789062 111.075195312 l 1,14,-1
 912.361328125 400 l 1,15,-1
 623.133789062 688.924804688 l 1,16,-1
 536.79296875 602.583984375 l 1,17,-1
 678.325195312 461.051757812 l 1,18,-1
 247.638671875 461.051757812 l 1,19,-1
 247.638671875 338.948242188 l 1,20,-1
 678.325195312 338.948242188 l 1,12,-1
EndSplineSet
EndChar

StartChar: uni01BA
Encoding: 442 442 83
Width: 1160
VWidth: 1200
Flags: W
LayerCount: 2
Fore
SplineSet
580 -100 m 128,-1,1
 444 -100 444 -100 329 -33 c 128,-1,2
 214 34 214 34 147 149 c 128,-1,3
 80 264 80 264 80 400 c 128,-1,4
 80 536 80 536 147 651 c 128,-1,5
 214 766 214 766 329 833 c 128,-1,6
 444 900 444 900 580 900 c 128,-1,7
 716 900 716 900 831 833 c 128,-1,8
 946 766 946 766 1013 651 c 128,-1,9
 1080 536 1080 536 1080 400 c 128,-1,10
 1080 264 1080 264 1013 149 c 128,-1,11
 946 34 946 34 831 -33 c 128,-1,0
 716 -100 716 -100 580 -100 c 128,-1,1
641.051757812 301.674804688 m 1,12,-1
 641.051757812 732.361328125 l 1,13,-1
 518.948242188 732.361328125 l 1,14,-1
 518.948242188 301.674804688 l 1,15,-1
 377.416015625 443.20703125 l 1,16,-1
 291.075195312 356.866210938 l 1,17,-1
 580 67.638671875 l 1,18,-1
 868.924804688 356.866210938 l 1,19,-1
 782.583984375 443.20703125 l 1,20,-1
 641.051757812 301.674804688 l 1,12,-1
EndSplineSet
EndChar

StartChar: uni025F
Encoding: 607 607 84
Width: 1160
VWidth: 100
Flags: W
LayerCount: 2
Fore
SplineSet
80 791.986328125 m 1,0,-1
 1080 791.993164062 l 1,1,-1
 1080 8.015625 l 1,2,-1
 80 8.015625 l 1,3,-1
 80 767.16015625 l 1,4,-1
 80 791.986328125 l 1,0,-1
129.654296875 742.33203125 m 1,5,-1
 129.654296875 57.666015625 l 1,6,-1
 1030.34375 57.666015625 l 1,7,-1
 1030.34375 742.33203125 l 1,8,-1
 129.654296875 742.33203125 l 1,5,-1
313.131835938 690.987304688 m 128,-1,10
 355.037109375 690.987304688 355.037109375 690.987304688 384.6953125 661.330078125 c 128,-1,11
 414.352539062 631.672851562 414.352539062 631.672851562 414.352539062 589.767578125 c 128,-1,12
 414.352539062 547.862304688 414.352539062 547.862304688 384.6953125 518.205078125 c 128,-1,13
 355.037109375 488.547851562 355.037109375 488.547851562 313.131835938 488.547851562 c 128,-1,14
 271.2265625 488.547851562 271.2265625 488.547851562 241.569335938 518.205078125 c 128,-1,15
 211.912109375 547.86328125 211.912109375 547.86328125 211.912109375 589.767578125 c 128,-1,16
 211.912109375 631.672851562 211.912109375 631.672851562 241.569335938 661.330078125 c 128,-1,9
 271.2265625 690.987304688 271.2265625 690.987304688 313.131835938 690.987304688 c 128,-1,10
660.84375 442.62109375 m 1,17,-1
 964.504882812 111.779296875 l 1,18,-1
 193.170898438 111.779296875 l 1,19,-1
 418.571289062 337.178710938 l 1,20,-1
 492.143554688 261.732421875 l 1,21,-1
 660.84375 442.62109375 l 1,17,-1
EndSplineSet
EndChar

StartChar: Psi
Encoding: 936 936 85
Width: 971
Flags: W
LayerCount: 2
Fore
SplineSet
335 298 m 1,0,1
 408 236 408 236 495 236 c 0,2,3
 579 236 579 236 650 293 c 1,4,5
 750 259 750 259 820.5 195.5 c 128,-1,6
 891 132 891 132 891 89 c 2,7,-1
 891 78 l 2,8,9
 891 33 891 33 873 1 c 128,-1,10
 855 -31 855 -31 826 -50 c 128,-1,11
 797 -69 797 -69 748 -79.5 c 128,-1,12
 699 -90 699 -90 648.5 -93.5 c 128,-1,13
 598 -97 598 -97 527 -97 c 2,14,-1
 431 -97 l 2,15,16
 359 -97 359 -97 310 -93.5 c 128,-1,17
 261 -90 261 -90 214 -79.5 c 128,-1,18
 167 -69 167 -69 140 -50 c 128,-1,19
 113 -31 113 -31 96.5 1 c 128,-1,20
 80 33 80 33 80 78 c 2,21,-1
 80 89 l 2,22,23
 80 135 80 135 154.5 200.5 c 128,-1,24
 229 266 229 266 335 298 c 1,0,1
495.5 896 m 128,-1,26
 588 896 588 896 653 830 c 128,-1,27
 718 764 718 764 718 666 c 0,28,29
 718 516 718 516 648 415 c 0,30,31
 583 321 583 321 495 321 c 256,32,33
 407 321 407 321 343 414 c 0,34,35
 273 515 273 515 273 666 c 0,36,37
 273 764 273 764 338 830 c 128,-1,25
 403 896 403 896 495.5 896 c 128,-1,26
EndSplineSet
EndChar

StartChar: uni03A9
Encoding: 937 937 86
Width: 959
VWidth: 1100
Flags: W
LayerCount: 2
Fore
SplineSet
429.88671875 900.001953125 m 0,0,1
 508.291992188 900.001953125 508.291992188 900.001953125 563.1015625 844.361328125 c 128,-1,2
 617.901367188 788.716796875 617.901367188 788.716796875 617.90234375 706.08984375 c 0,3,4
 617.90234375 579.619140625 617.90234375 579.619140625 558.885742188 494.465820312 c 0,5,6
 504.079101562 415.211914062 504.079101562 415.211914062 429.88671875 415.211914062 c 128,-1,7
 355.690429688 415.211914062 355.690429688 415.211914062 301.732421875 493.622070312 c 0,8,9
 242.715820312 578.770507812 242.715820312 578.770507812 242.71484375 706.0859375 c 0,10,11
 242.71484375 788.708984375 242.71484375 788.708984375 297.515625 844.356445312 c 128,-1,12
 352.317382812 900.001953125 352.317382812 900.001953125 429.88671875 900.001953125 c 0,0,1
294.997070312 395.815429688 m 1,13,14
 356.545898438 343.538085938 356.545898438 343.538085938 429.897460938 343.537109375 c 0,15,16
 500.716796875 343.537109375 500.716796875 343.537109375 560.580078125 391.59375 c 1,17,18
 626.392578125 369.219726562 626.392578125 369.219726562 676.790039062 331.434570312 c 1,19,20
 581.140625 326.954101562 581.140625 326.954101562 514.426757812 257.270507812 c 128,-1,21
 447.712890625 187.587890625 447.712890625 187.587890625 447.712890625 91.294921875 c 0,22,23
 447.712890625 76.9794921875 447.712890625 76.9794921875 449.401367188 62.78125 c 1,24,-1
 375.936523438 62.78125 l 2,25,26
 315.233398438 62.78125 315.233398438 62.78125 273.918945312 66.1533203125 c 0,27,28
 232.602539062 68.68359375 232.602539062 68.68359375 192.9765625 77.9580078125 c 0,29,30
 153.352539062 86.3896484375 153.352539062 86.3896484375 130.587890625 102.408203125 c 128,-1,31
 107.82421875 118.4296875 107.82421875 118.4296875 93.490234375 145.409179688 c 0,32,33
 80.0009765625 172.38671875 80.0009765625 172.38671875 80 210.330078125 c 2,34,-1
 80 219.604492188 l 2,35,36
 80 258.38671875 80 258.38671875 142.393554688 313.189453125 c 0,37,38
 205.629882812 368.833984375 205.629882812 368.833984375 294.997070312 395.815429688 c 1,13,14
688.157226562 282.333984375 m 128,-1,40
 767.5 282.333984375 767.5 282.333984375 823.331054688 226.489257812 c 128,-1,41
 879.161132812 170.645507812 879.161132812 170.645507812 879.161132812 91.2958984375 c 128,-1,42
 879.161132812 11.9462890625 879.161132812 11.9462890625 823.331054688 -43.8974609375 c 128,-1,43
 767.5 -99.7421875 767.5 -99.7421875 688.157226562 -99.7421875 c 128,-1,44
 608.811523438 -99.7421875 608.811523438 -99.7421875 552.96484375 -43.896484375 c 128,-1,45
 497.119140625 11.94921875 497.119140625 11.94921875 497.119140625 91.2958984375 c 128,-1,46
 497.119140625 170.642578125 497.119140625 170.642578125 552.96484375 226.48828125 c 128,-1,39
 608.811523438 282.333984375 608.811523438 282.333984375 688.157226562 282.333984375 c 128,-1,40
661.395507812 192.780273438 m 1,47,-1
 661.395507812 118.041015625 l 1,48,-1
 586.66015625 118.041015625 l 1,49,50
 586.66015625 64.5498046875 l 5,51,-1
 661.395507812 64.5498046875 l 1,52,-1
 661.395507812 -10.185546875 l 1,53,-1
 714.88671875 -10.185546875 l 1,54,-1
 714.88671875 64.5498046875 l 1,55,-1
 789.62109375 64.5498046875 l 1,56,-1
 789.62109375 118.041015625 l 1,57,-1
 714.88671875 118.041015625 l 1,58,-1
 714.88671875 192.780273438 l 1,59,-1
 661.395507812 192.780273438 l 1,47,-1
EndSplineSet
EndChar

StartChar: Iotadieresis
Encoding: 938 938 87
Width: 959
VWidth: 1100
Flags: W
LayerCount: 2
Fore
SplineSet
429.88671875 900.001953125 m 0,0,1
 508.291992188 900.001953125 508.291992188 900.001953125 563.1015625 844.361328125 c 128,-1,2
 617.901367188 788.716796875 617.901367188 788.716796875 617.90234375 706.08984375 c 0,3,4
 617.90234375 579.619140625 617.90234375 579.619140625 558.885742188 494.465820312 c 0,5,6
 504.079101562 415.211914062 504.079101562 415.211914062 429.88671875 415.211914062 c 128,-1,7
 355.690429688 415.211914062 355.690429688 415.211914062 301.732421875 493.622070312 c 0,8,9
 242.715820312 578.770507812 242.715820312 578.770507812 242.71484375 706.0859375 c 0,10,11
 242.71484375 788.708984375 242.71484375 788.708984375 297.515625 844.356445312 c 128,-1,12
 352.317382812 900.001953125 352.317382812 900.001953125 429.88671875 900.001953125 c 0,0,1
294.997070312 395.815429688 m 1,13,14
 356.545898438 343.538085938 356.545898438 343.538085938 429.897460938 343.537109375 c 0,15,16
 500.716796875 343.537109375 500.716796875 343.537109375 560.580078125 391.59375 c 1,17,18
 626.392578125 369.219726562 626.392578125 369.219726562 676.790039062 331.434570312 c 1,19,20
 581.140625 326.954101562 581.140625 326.954101562 514.426757812 257.270507812 c 128,-1,21
 447.712890625 187.587890625 447.712890625 187.587890625 447.712890625 91.294921875 c 0,22,23
 447.712890625 76.9794921875 447.712890625 76.9794921875 449.401367188 62.78125 c 1,24,-1
 375.936523438 62.78125 l 2,25,26
 315.233398438 62.78125 315.233398438 62.78125 273.918945312 66.1533203125 c 0,27,28
 232.602539062 68.68359375 232.602539062 68.68359375 192.9765625 77.9580078125 c 0,29,30
 153.352539062 86.3896484375 153.352539062 86.3896484375 130.587890625 102.408203125 c 128,-1,31
 107.82421875 118.4296875 107.82421875 118.4296875 93.490234375 145.409179688 c 0,32,33
 80.0009765625 172.38671875 80.0009765625 172.38671875 80 210.330078125 c 2,34,-1
 80 219.604492188 l 2,35,36
 80 258.38671875 80 258.38671875 142.393554688 313.189453125 c 0,37,38
 205.629882812 368.833984375 205.629882812 368.833984375 294.997070312 395.815429688 c 1,13,14
688.157226562 282.333984375 m 128,-1,40
 767.5 282.333984375 767.5 282.333984375 823.331054688 226.489257812 c 128,-1,41
 879.161132812 170.645507812 879.161132812 170.645507812 879.161132812 91.2958984375 c 128,-1,42
 879.161132812 11.9462890625 879.161132812 11.9462890625 823.331054688 -43.8974609375 c 128,-1,43
 767.5 -99.7421875 767.5 -99.7421875 688.157226562 -99.7421875 c 128,-1,44
 608.811523438 -99.7421875 608.811523438 -99.7421875 552.96484375 -43.896484375 c 128,-1,45
 497.119140625 11.94921875 497.119140625 11.94921875 497.119140625 91.2958984375 c 128,-1,46
 497.119140625 170.642578125 497.119140625 170.642578125 552.96484375 226.48828125 c 128,-1,39
 608.811523438 282.333984375 608.811523438 282.333984375 688.157226562 282.333984375 c 128,-1,40
789.625 118.041992188 m 1,47,-1
 586.659179688 118.041992188 l 1,48,49
 586.659179688 64.5498046875 l 5,50,-1
 789.625 64.5498046875 l 1,51,-1
 789.625 118.041992188 l 1,47,-1
EndSplineSet
EndChar

StartChar: Upsilondieresis
Encoding: 939 939 88
Width: 1182
VWidth: 1100
Flags: W
LayerCount: 2
Fore
SplineSet
497.90625 900.358398438 m 0,0,1
 591.546875 900.358398438 591.546875 900.358398438 657.005859375 833.880859375 c 128,-1,2
 722.45703125 767.423828125 722.45703125 767.423828125 722.428710938 668.745117188 c 0,3,4
 722.428710938 517.681640625 722.428710938 517.681640625 651.9296875 415.96484375 c 0,5,6
 586.489257812 321.327148438 586.489257812 321.327148438 497.90625 321.327148438 c 128,-1,7
 409.306640625 321.327148438 409.306640625 321.327148438 344.83984375 415.008789062 c 0,8,9
 274.35546875 516.703125 274.35546875 516.703125 274.340820312 668.745117188 c 0,10,11
 274.340820312 767.423828125 274.340820312 767.423828125 339.763671875 833.880859375 c 128,-1,12
 405.231445312 900.358398438 405.231445312 900.358398438 497.90625 900.358398438 c 0,0,1
1004.02636719 583.499023438 m 1,13,-1
 1102.58984375 484.935546875 l 1,14,-1
 694.349609375 76.6953125 l 1,15,-1
 565.229492188 46.1396484375 l 1,16,-1
 595.786132812 175.258789062 l 1,17,-1
 1004.02636719 583.499023438 l 1,13,-1
336.801757812 298.248046875 m 1,18,19
 410.333984375 235.793945312 410.333984375 235.793945312 497.916992188 235.793945312 c 0,20,21
 563.071289062 235.793945312 563.071289062 235.793945312 621.670898438 271.04296875 c 1,22,-1
 555.865234375 205.237304688 l 2,23,24
 550.916992188 200.2265625 550.916992188 200.2265625 549.352539062 193.360351562 c 2,25,-1
 507.97265625 18.5478515625 l 2,26,27
 507.319335938 15.7607421875 507.319335938 15.7607421875 507.319335938 12.90234375 c 0,28,29
 507.319335938 2.6689453125 507.319335938 2.6689453125 514.5625 -4.57421875 c 128,-1,30
 521.8046875 -11.8173828125 521.8046875 -11.8173828125 532.0390625 -11.8173828125 c 0,31,32
 534.94140625 -11.8173828125 534.94140625 -11.8173828125 537.76171875 -11.1455078125 c 2,33,-1
 712.57421875 30.138671875 l 2,34,35
 719.404296875 31.7705078125 719.404296875 31.7705078125 724.35546875 36.748046875 c 2,36,-1
 853.475585938 165.8671875 l 1,37,38
 896.674804688 119.625 896.674804688 119.625 896.674804688 87.8017578125 c 2,39,-1
 896.674804688 76.6904296875 l 2,40,41
 896.674804688 31.4599609375 896.674804688 31.4599609375 878.475585938 -0.8955078125 c 128,-1,42
 860.357421875 -33.10546875 860.357421875 -33.10546875 831.157226562 -52.23828125 c 128,-1,43
 801.921875 -71.388671875 801.921875 -71.388671875 752.610351562 -81.4521484375 c 0,44,45
 703.373046875 -92.5048828125 703.373046875 -92.5048828125 651.940429688 -95.533203125 c 0,46,47
 601.624023438 -99.5546875 601.624023438 -99.5546875 530.099609375 -99.5546875 c 2,48,-1
 433.451171875 -99.5546875 l 2,49,50
 360.829101562 -99.5546875 360.829101562 -99.5546875 311.609375 -95.533203125 c 0,51,52
 262.205078125 -92.5087890625 262.205078125 -92.5087890625 214.9609375 -81.4521484375 c 0,53,54
 167.650390625 -71.384765625 167.650390625 -71.384765625 140.44140625 -52.23828125 c 128,-1,55
 113.326171875 -33.1552734375 113.326171875 -33.1552734375 96.1884765625 -0.8955078125 c 0,56,57
 80 31.4794921875 80 31.4794921875 80 76.6904296875 c 2,58,-1
 80 87.8017578125 l 2,59,60
 80 134.034179688 80 134.034179688 154.520507812 199.491210938 c 0,61,62
 230.161132812 266.053710938 230.161132812 266.053710938 336.801757812 298.248046875 c 1,18,19
EndSplineSet
EndChar

StartChar: uni03CF
Encoding: 975 975 89
Width: 1203
VWidth: 100
Flags: W
LayerCount: 2
Fore
SplineSet
601.50390625 800.170898438 m 128,-1,1
 707.54296875 800.170898438 707.54296875 800.170898438 804.112304688 772.431640625 c 128,-1,2
 900.681640625 744.693359375 900.681640625 744.693359375 970.520507812 697.810546875 c 128,-1,3
 1040.35742188 650.928710938 1040.35742188 650.928710938 1081.67871094 586.1015625 c 128,-1,4
 1123 521.274414062 1123 521.274414062 1123 450.08984375 c 128,-1,5
 1123 378.905273438 1123 378.905273438 1081.67871094 314.078125 c 128,-1,6
 1040.35742188 249.250976562 1040.35742188 249.250976562 970.520507812 202.369140625 c 128,-1,7
 900.681640625 155.486328125 900.681640625 155.486328125 804.112304688 127.748046875 c 128,-1,8
 707.54296875 100.008789062 707.54296875 100.008789062 601.50390625 100.008789062 c 0,9,10
 558.506835938 100.064453125 558.506835938 100.064453125 499.991210938 107.966796875 c 128,-1,11
 441.474609375 115.869140625 441.474609375 115.869140625 401.791015625 126.979492188 c 1,12,-1
 138.706054688 4.2080078125 l 1,13,-1
 244.513671875 195.184570312 l 1,14,15
 176.485351562 238.067382812 176.485351562 238.067382812 128.282226562 312.754882812 c 128,-1,16
 80.080078125 387.44140625 80.080078125 387.44140625 80 450.086914062 c 0,17,18
 80 521.271484375 80 521.271484375 121.321289062 586.098632812 c 128,-1,19
 162.642578125 650.92578125 162.642578125 650.92578125 232.479492188 697.80859375 c 128,-1,20
 302.318359375 744.690429688 302.318359375 744.690429688 398.887695312 772.4296875 c 128,-1,0
 495.45703125 800.168945312 495.45703125 800.168945312 601.50390625 800.170898438 c 128,-1,1
EndSplineSet
EndChar

StartChar: uni03D0
Encoding: 976 976 90
Width: 1203
VWidth: 100
Flags: W
LayerCount: 2
Fore
SplineSet
601.49609375 800.170898438 m 128,-1,1
 707.54296875 800.168945312 707.54296875 800.168945312 804.112304688 772.4296875 c 128,-1,2
 900.681640625 744.690429688 900.681640625 744.690429688 970.520507812 697.80859375 c 128,-1,3
 1040.35742188 650.92578125 1040.35742188 650.92578125 1081.67871094 586.098632812 c 128,-1,4
 1123 521.271484375 1123 521.271484375 1123 450.086914062 c 0,5,6
 1122.91992188 387.44140625 1122.91992188 387.44140625 1074.71777344 312.754882812 c 128,-1,7
 1026.51464844 238.067382812 1026.51464844 238.067382812 958.486328125 195.184570312 c 1,8,-1
 1064.29394531 4.2080078125 l 1,9,-1
 801.208984375 126.979492188 l 1,10,11
 761.525390625 115.869140625 761.525390625 115.869140625 703.008789062 107.966796875 c 128,-1,12
 644.493164062 100.064453125 644.493164062 100.064453125 601.49609375 100.008789062 c 0,13,14
 495.45703125 100.008789062 495.45703125 100.008789062 398.887695312 127.748046875 c 128,-1,15
 302.318359375 155.486328125 302.318359375 155.486328125 232.479492188 202.369140625 c 128,-1,16
 162.642578125 249.250976562 162.642578125 249.250976562 121.321289062 314.078125 c 128,-1,17
 80 378.905273438 80 378.905273438 80 450.08984375 c 128,-1,18
 80 521.274414062 80 521.274414062 121.321289062 586.1015625 c 128,-1,19
 162.642578125 650.928710938 162.642578125 650.928710938 232.479492188 697.810546875 c 128,-1,20
 302.318359375 744.693359375 302.318359375 744.693359375 398.887695312 772.431640625 c 128,-1,0
 495.45703125 800.170898438 495.45703125 800.170898438 601.49609375 800.170898438 c 128,-1,1
EndSplineSet
EndChar

StartChar: theta1
Encoding: 977 977 91
Width: 1168
VWidth: 200
Flags: W
LayerCount: 2
Fore
SplineSet
1088.19628906 800.020507812 m 5,0,-1
 1088.19628906 192.301757812 l 5,1,-1
 483.838867188 192.301757812 l 5,2,-1
 260.4921875 0.1884765625 l 5,3,-1
 260.685546875 192.301757812 l 5,4,-1
 80 192.301757812 l 5,5,-1
 80 800.020507812 l 5,6,-1
 1088.19628906 800.020507812 l 5,0,-1
EndSplineSet
EndChar

StartChar: Upsilon1
Encoding: 978 978 92
Width: 1168
VWidth: 200
Flags: W
LayerCount: 2
Fore
SplineSet
80 800.020507812 m 5,0,-1
 1088.19628906 800.020507812 l 5,1,-1
 1088.19628906 192.301757812 l 5,2,-1
 907.510742188 192.301757812 l 5,3,-1
 907.704101562 0.1884765625 l 5,4,-1
 684.357421875 192.301757812 l 5,5,-1
 80 192.301757812 l 5,6,-1
 80 800.020507812 l 5,0,-1
EndSplineSet
EndChar

StartChar: alphatonos
Encoding: 940 940 93
Width: 1063
VWidth: 1100
Flags: W
LayerCount: 2
Fore
SplineSet
444.489257812 900.012695312 m 0,0,1
 526.3046875 900.00390625 526.3046875 900.00390625 583.419921875 842.005859375 c 0,2,3
 593.126953125 832.15234375 593.126953125 832.15234375 601.495117188 820.879882812 c 1,4,5
 519.752929688 809.521484375 519.752929688 809.521484375 461.358398438 750.231445312 c 0,6,7
 389.423828125 677.188476562 389.423828125 677.188476562 389.423828125 569.970703125 c 0,8,9
 389.423828125 474.97265625 389.423828125 474.97265625 419.266601562 397.381835938 c 1,10,11
 357.197265625 409.119140625 357.197265625 409.119140625 310.822265625 476.505859375 c 0,12,-1
 310.78125 476.587890625 l 1,13,14
 249.328125 565.314453125 249.328125 565.314453125 249.328125 697.861328125 c 0,15,16
 249.328125 784.022460938 249.328125 784.022460938 306.44140625 842.014648438 c 128,-1,17
 363.564453125 900.012695312 363.564453125 900.012695312 444.489257812 900.012695312 c 0,0,1
635.99609375 772.125976562 m 0,18,19
 717.809570312 772.124023438 717.809570312 772.124023438 774.926757812 714.125976562 c 128,-1,20
 832.001953125 656.170898438 832.001953125 656.170898438 832.001953125 569.97265625 c 0,21,22
 832.001953125 438.33203125 832.001953125 438.33203125 770.509765625 349.583984375 c 0,23,24
 713.352539062 266.842773438 713.352539062 266.842773438 635.998046875 266.842773438 c 128,-1,25
 558.606445312 266.842773438 558.606445312 266.842773438 502.329101562 348.619140625 c 0,26,-1
 502.287109375 348.701171875 l 1,27,28
 440.834960938 437.428710938 440.834960938 437.428710938 440.834960938 569.975585938 c 0,29,30
 440.834960938 656.09375 440.834960938 656.09375 497.989257812 714.127929688 c 128,-1,31
 555.107421875 772.125976562 555.107421875 772.125976562 635.99609375 772.125976562 c 0,18,19
303.961914062 375.12890625 m 0,32,-1
 304.08203125 375.126953125 l 1,33,-1
 304.287109375 375.0859375 l 1,34,35
 368.224609375 320.783203125 368.224609375 320.783203125 444.50390625 320.783203125 c 0,36,37
 448.1640625 320.783203125 448.1640625 320.783203125 458.682617188 321.546875 c 0,38,39
 458.9140625 321.20703125 458.9140625 321.20703125 459.35546875 320.473632812 c 128,-1,40
 459.796875 319.740234375 459.796875 319.740234375 460.047851562 319.377929688 c 0,41,42
 461.291992188 317.571289062 461.291992188 317.571289062 479.608398438 296.041015625 c 1,43,44
 376.176757812 264.587890625 376.176757812 264.587890625 302.560546875 199.805664062 c 0,45,46
 262.609375 164.7109375 262.609375 164.7109375 241.334960938 132.479492188 c 128,-1,47
 220.061523438 100.249023438 220.061523438 100.249023438 220.061523438 63.5654296875 c 2,48,-1
 220.061523438 53.92578125 l 2,49,50
 220.061523438 50.861328125 220.061523438 50.861328125 220.744140625 39.025390625 c 1,51,52
 208.516601562 41.1708984375 208.516601562 41.1708984375 198.090820312 43.603515625 c 0,53,-1
 197.64453125 43.7685546875 l 1,54,55
 156.303710938 52.59765625 156.303710938 52.59765625 132.778320312 69.1533203125 c 128,-1,56
 109.071289062 85.833984375 109.071289062 85.833984375 94.09765625 114.016601562 c 0,57,58
 80 142.21484375 80 142.21484375 80 181.774414062 c 2,59,-1
 80 191.4140625 l 2,60,61
 80 231.969726562 80 231.969726562 144.98828125 289.053710938 c 0,62,63
 210.793945312 347.00390625 210.793945312 347.00390625 303.961914062 375.12890625 c 0,32,-1
495.46875 247.283203125 m 1,64,-1
 495.495117188 247.288085938 l 1,65,-1
 495.783203125 247.205078125 l 1,66,67
 559.765625 192.903320312 559.765625 192.903320312 636 192.903320312 c 0,68,69
 709.583984375 192.903320312 709.583984375 192.903320312 771.837890625 242.868164062 c 1,70,71
 859.904296875 213.0625 859.904296875 213.0625 921.333984375 156.956054688 c 2,72,-1
 921.498046875 156.791992188 l 1,73,74
 983.87890625 101.391601562 983.87890625 101.391601562 983.87890625 63.564453125 c 2,75,-1
 983.87890625 53.884765625 l 2,76,77
 983.87890625 14.3720703125 983.87890625 14.3720703125 968.013671875 -13.833984375 c 128,-1,78
 952.147460938 -42.041015625 952.147460938 -42.041015625 926.723632812 -58.697265625 c 128,-1,79
 901.3125 -75.3486328125 901.3125 -75.3486328125 858.162109375 -84.162109375 c 1,80,-1
 863.302734375 -83.6396484375 l 2,81,82
 857.614257812 -85.0185546875 857.614257812 -85.0185546875 854.788085938 -85.6884765625 c 1,83,84
 858.151367188 -84.201171875 858.151367188 -84.201171875 858.122070312 -84.201171875 c 0,85,-1
 857.640625 -84.3662109375 l 1,86,87
 815.427734375 -93.7998046875 815.427734375 -93.7998046875 770.603515625 -96.4560546875 c 2,88,-1
 770.282226562 -96.4970703125 l 2,89,90
 726.217773438 -99.9912109375 726.217773438 -99.9912109375 664.0859375 -99.9912109375 c 2,91,-1
 579.859375 -99.9912109375 l 2,92,93
 516.909179688 -99.9912109375 516.909179688 -99.9912109375 473.944335938 -96.4970703125 c 0,94,-1
 473.421875 -96.4560546875 l 2,95,96
 430.362304688 -93.8017578125 430.362304688 -93.8017578125 389.59765625 -84.28515625 c 1,97,-1
 389.391601562 -84.203125 l 1,98,99
 347.811523438 -75.2919921875 347.811523438 -75.2919921875 324.284179688 -58.736328125 c 128,-1,100
 300.608398438 -42.07421875 300.608398438 -42.07421875 285.604492188 -13.83203125 c 0,101,102
 271.506835938 14.36328125 271.506835938 14.36328125 271.506835938 53.88671875 c 2,103,-1
 271.506835938 63.56640625 l 2,104,105
 271.506835938 104.083007812 271.506835938 104.083007812 336.495117188 161.16796875 c 0,106,107
 402.3671875 219.177734375 402.3671875 219.177734375 495.46875 247.283203125 c 1,64,-1
849.69140625 -87.896484375 m 1,108,109
 848.868164062 -88.509765625 848.868164062 -88.509765625 847.66015625 -89.4296875 c 128,-1,110
 846.451171875 -90.3486328125 846.451171875 -90.3486328125 845.915039062 -90.7490234375 c 2,111,-1
 848.124023438 -88.6201171875 l 2,112,113
 849.262695312 -88.08203125 849.262695312 -88.08203125 849.69140625 -87.896484375 c 1,108,109
843.545898438 -93.0380859375 m 2,114,-1
 842.984375 -93.599609375 l 1,115,-1
 842.141601562 -94.84375 l 2,116,117
 842.375 -94.541015625 842.375 -94.541015625 842.8125 -93.98046875 c 128,-1,118
 843.250976562 -93.419921875 843.250976562 -93.419921875 843.545898438 -93.0380859375 c 2,114,-1
EndSplineSet
EndChar

StartChar: epsilontonos
Encoding: 941 941 94
Width: 1410
VWidth: 100
Flags: W
LayerCount: 2
Fore
SplineSet
412.028320312 900 m 0,0,1
 486.561523438 899.999023438 486.561523438 899.999023438 538.576171875 847.185546875 c 128,-1,2
 590.567382812 794.390625 590.567382812 794.390625 590.567382812 715.874023438 c 0,3,4
 590.567382812 709.298828125 590.567382812 709.298828125 590.376953125 702.307617188 c 1,5,6
 572.767578125 690.120117188 572.767578125 690.120117188 557.454101562 674.5703125 c 0,7,8
 491.916015625 608.021484375 491.916015625 608.021484375 491.916015625 510.392578125 c 0,9,10
 491.916015625 489.666015625 491.916015625 489.666015625 493.4609375 469.815429688 c 1,11,12
 456.052734375 439.78515625 456.052734375 439.78515625 412.02734375 439.78515625 c 0,13,14
 341.536132812 439.78515625 341.536132812 439.78515625 290.280273438 514.263671875 c 0,15,-1
 290.240234375 514.34375 l 1,16,17
 234.266601562 595.154296875 234.266601562 595.154296875 234.266601562 715.875 c 0,18,19
 234.266601562 794.356445312 234.266601562 794.356445312 286.298828125 847.186523438 c 128,-1,20
 338.313476562 900 338.313476562 900 412.028320312 900 c 0,0,1
1013.9140625 900 m 0,21,22
 1088.453125 899.99609375 1088.453125 899.99609375 1140.46777344 847.182617188 c 128,-1,23
 1192.45898438 794.387695312 1192.45898438 794.387695312 1192.45898438 715.87109375 c 0,24,25
 1192.45898438 595.961914062 1192.45898438 595.961914062 1136.44433594 515.120117188 c 0,26,27
 1084.37402344 439.783203125 1084.37402344 439.783203125 1013.91601562 439.783203125 c 0,28,29
 974.0859375 439.783203125 974.0859375 439.783203125 939.844726562 464.142578125 c 1,30,31
 941.895507812 486.737304688 941.895507812 486.737304688 941.895507812 510.389648438 c 0,32,33
 941.895507812 608.0625 941.895507812 608.0625 876.3984375 674.567382812 c 0,34,35
 857.970703125 693.28125 857.970703125 693.28125 836.235351562 707.067382812 c 0,36,37
 836.155273438 711.583007812 836.155273438 711.583007812 836.155273438 715.875 c 0,38,39
 836.155273438 794.356445312 836.155273438 794.356445312 888.1875 847.186523438 c 128,-1,40
 940.19921875 900 940.19921875 900 1013.9140625 900 c 0,21,22
716.505859375 694.520507812 m 0,41,42
 791.0390625 694.518554688 791.0390625 694.518554688 843.052734375 641.705078125 c 128,-1,43
 895.047851562 588.912109375 895.047851562 588.912109375 895.047851562 510.393554688 c 0,44,45
 895.047851562 390.484375 895.047851562 390.484375 839.033203125 309.642578125 c 0,46,47
 786.962890625 234.305664062 786.962890625 234.305664062 716.504882812 234.305664062 c 128,-1,48
 646.012695312 234.305664062 646.012695312 234.305664062 594.756835938 308.784179688 c 0,49,-1
 594.716796875 308.86328125 l 1,50,51
 538.743164062 389.674804688 538.743164062 389.674804688 538.743164062 510.395507812 c 0,52,53
 538.743164062 588.875 538.743164062 588.875 590.775390625 641.70703125 c 128,-1,54
 642.791992188 694.520507812 642.791992188 694.520507812 716.505859375 694.520507812 c 0,41,42
283.984375 421.953125 m 0,55,-1
 284.026367188 421.96875 l 1,56,-1
 284.305664062 421.889648438 l 1,57,58
 342.578125 372.43359375 342.578125 372.43359375 412.024414062 372.43359375 c 0,59,60
 461.143554688 372.43359375 461.143554688 372.43359375 505.056640625 397.1328125 c 1,61,62
 521.090820312 332.919921875 521.090820312 332.919921875 556.233398438 282.180664062 c 0,63,64
 557.489257812 280.357421875 557.489257812 280.357421875 574.033203125 260.907226562 c 1,65,66
 479.8671875 232.268554688 479.8671875 232.268554688 412.783203125 173.237304688 c 0,67,68
 370.584960938 136.16796875 370.584960938 136.16796875 353.344726562 105.678710938 c 1,69,70
 301.126953125 105.87890625 301.126953125 105.87890625 264.400390625 108.866210938 c 0,71,-1
 263.932617188 108.905273438 l 2,72,73
 224.720703125 111.323242188 224.720703125 111.323242188 187.58203125 119.991210938 c 2,74,-1
 187.381835938 120.03125 l 2,75,76
 149.580078125 128.1328125 149.580078125 128.1328125 128.088867188 143.2578125 c 128,-1,77
 106.47265625 158.46875 106.47265625 158.46875 92.841796875 184.125976562 c 0,78,79
 80 209.807617188 80 209.807617188 80 245.838867188 c 2,80,-1
 80 254.622070312 l 2,81,82
 80 291.532226562 80 291.532226562 139.212890625 343.528320312 c 0,83,84
 199.188476562 396.34765625 199.188476562 396.34765625 283.984375 421.953125 c 0,55,-1
1137.73828125 417.997070312 m 1,85,-1
 1137.87792969 417.969726562 l 1,86,87
 1217.76171875 390.809570312 1217.76171875 390.809570312 1273.75585938 339.668945312 c 0,88,-1
 1274.03515625 339.428710938 l 2,89,90
 1330.75292969 289.071289062 1330.75292969 289.071289062 1330.75292969 254.608398438 c 2,91,-1
 1330.75292969 245.826171875 l 2,92,93
 1330.75292969 209.791992188 1330.75292969 209.791992188 1316.30957031 184.11328125 c 128,-1,94
 1301.86621094 158.432617188 1301.86621094 158.432617188 1278.68261719 143.244140625 c 128,-1,95
 1255.55078125 128.090820312 1255.55078125 128.090820312 1216.22753906 120.05859375 c 0,96,-1
 1215.98730469 119.979492188 l 2,97,98
 1177.3359375 111.313476562 1177.3359375 111.313476562 1136.47460938 108.891601562 c 0,99,-1
 1135.96679688 108.8515625 l 2,100,101
 1104.82324219 106.368164062 1104.82324219 106.368164062 1063.79882812 105.8125 c 1,102,103
 1047.32128906 133.783203125 1047.32128906 133.783203125 1007.80664062 168.88671875 c 0,104,105
 944.674804688 226.48828125 944.674804688 226.48828125 855.575195312 256.791992188 c 1,106,107
 872.682617188 275.961914062 872.682617188 275.961914062 877.512695312 282.9453125 c 0,108,109
 911.563476562 332.138671875 911.563476562 332.138671875 927.698242188 393.73828125 c 1,110,111
 968.608398438 372.418945312 968.608398438 372.418945312 1013.90820312 372.418945312 c 0,112,113
 1080.89550781 372.418945312 1080.89550781 372.418945312 1137.73828125 417.997070312 c 1,85,-1
588.470703125 216.471679688 m 1,114,-1
 588.487304688 216.518554688 l 1,115,-1
 588.528320312 216.518554688 l 1,116,-1
 588.807617188 216.438476562 l 1,117,118
 647.080078125 166.983398438 647.080078125 166.983398438 716.526367188 166.983398438 c 0,119,120
 783.51171875 166.983398438 783.51171875 166.983398438 840.223632812 212.497070312 c 1,121,-1
 840.498046875 212.536132812 l 1,122,123
 920.35546875 185.385742188 920.35546875 185.385742188 976.372070312 134.204101562 c 1,124,-1
 976.532226562 134.084960938 l 1,125,126
 1033.36914062 83.6064453125 1033.36914062 83.6064453125 1033.36914062 49.1435546875 c 2,127,-1
 1033.36914062 40.361328125 l 2,128,129
 1033.36914062 4.32421875 1033.36914062 4.32421875 1018.92578125 -21.3515625 c 128,-1,130
 1004.48242188 -47.0322265625 1004.48242188 -47.0322265625 981.299804688 -62.220703125 c 128,-1,131
 958.166992188 -77.3740234375 958.166992188 -77.3740234375 918.84375 -85.40625 c 0,132,-1
 918.603515625 -85.486328125 l 1,133,-1
 918.370117188 -85.56640625 l 1,134,135
 879.951171875 -94.1513671875 879.951171875 -94.1513671875 839.090820312 -96.5732421875 c 0,136,-1
 838.583007812 -96.6142578125 l 2,137,138
 798.447265625 -99.814453125 798.447265625 -99.814453125 742.090820312 -99.814453125 c 2,139,-1
 665.348632812 -99.814453125 l 2,140,141
 608.250976562 -99.814453125 608.250976562 -99.814453125 568.897460938 -96.6142578125 c 0,142,-1
 568.4296875 -96.5732421875 l 2,143,144
 529.215820312 -94.1572265625 529.215820312 -94.1572265625 492.079101562 -85.4873046875 c 0,145,-1
 491.64453125 -85.3681640625 l 2,146,147
 454.081054688 -77.34765625 454.081054688 -77.34765625 432.584960938 -62.2216796875 c 128,-1,148
 410.96875 -47.0087890625 410.96875 -47.0087890625 397.338867188 -21.3525390625 c 0,149,150
 384.49609375 4.3310546875 384.49609375 4.3310546875 384.49609375 40.3603515625 c 2,151,-1
 384.49609375 49.142578125 l 2,152,153
 384.49609375 86.03125 384.49609375 86.03125 443.696289062 138.05859375 c 0,154,155
 503.716796875 190.888671875 503.716796875 190.888671875 588.470703125 216.471679688 c 1,114,-1
EndSplineSet
EndChar

StartChar: uni01B1
Encoding: 433 433 95
Width: 1159
VWidth: 100
Flags: W
LayerCount: 2
Fore
SplineSet
579.958007812 899.890625 m 128,-1,1
 681.618164062 899.890625 681.618164062 899.890625 774.19921875 860.276367188 c 128,-1,2
 866.779296875 820.662109375 866.779296875 820.662109375 933.733398438 753.708984375 c 128,-1,3
 1000.6875 686.754882812 1000.6875 686.754882812 1040.30175781 594.173828125 c 128,-1,4
 1079.91601562 501.59375 1079.91601562 501.59375 1079.91601562 399.93359375 c 128,-1,5
 1079.90917969 298.280273438 1079.90917969 298.280273438 1040.29199219 205.705078125 c 128,-1,6
 1000.67382812 113.129882812 1000.67382812 113.129882812 933.720703125 46.1796875 c 128,-1,7
 866.766601562 -20.76953125 866.766601562 -20.76953125 774.189453125 -60.380859375 c 128,-1,8
 681.611328125 -99.9931640625 681.611328125 -99.9931640625 579.958007812 -99.9931640625 c 128,-1,9
 478.3046875 -99.9931640625 478.3046875 -99.9931640625 385.7265625 -60.380859375 c 128,-1,10
 293.149414062 -20.76953125 293.149414062 -20.76953125 226.1953125 46.1796875 c 128,-1,11
 159.2421875 113.129882812 159.2421875 113.129882812 119.624023438 205.705078125 c 128,-1,12
 80.0068359375 298.280273438 80.0068359375 298.280273438 80 399.93359375 c 128,-1,13
 80 501.59375 80 501.59375 119.614257812 594.173828125 c 128,-1,14
 159.228515625 686.754882812 159.228515625 686.754882812 226.182617188 753.708984375 c 128,-1,15
 293.13671875 820.662109375 293.13671875 820.662109375 385.716796875 860.276367188 c 128,-1,0
 478.297851562 899.890625 478.297851562 899.890625 579.958007812 899.890625 c 128,-1,1
511.09375 671.260742188 m 2,16,-1
 511.09375 468.797851562 l 1,17,-1
 308.629882812 468.797851562 l 5,18,-1
 308.629882812 331.068359375 l 5,19,-1
 511.09375 331.068359375 l 1,20,-1
 511.09375 128.618164062 l 1,21,22
 648.822265625 128.618164062 l 1,23,-1
 648.822265625 331.068359375 l 1,24,-1
 851.2734375 331.068359375 l 2,25,-1
 851.2734375 468.797851562 l 1,26,-1
 648.822265625 468.797851562 l 1,27,-1
 648.822265625 671.260742188 l 1,28,-1
 511.09375 671.260742188 l 2,16,-1
EndSplineSet
EndChar

StartChar: uni01B2
Encoding: 434 434 96
Width: 1159
VWidth: 100
Flags: W
LayerCount: 2
Fore
SplineSet
579.958007812 899.890625 m 128,-1,1
 679.383789062 899.90625 679.383789062 899.90625 771.2578125 861.846679688 c 128,-1,2
 863.131835938 823.788085938 863.131835938 823.788085938 933.453125 753.459960938 c 128,-1,3
 1003.77148438 683.146484375 1003.77148438 683.146484375 1041.828125 591.270507812 c 128,-1,4
 1079.88476562 499.395507812 1079.88476562 499.395507812 1079.88378906 399.94921875 c 128,-1,5
 1079.88378906 300.506835938 1079.88378906 300.506835938 1041.82714844 208.631835938 c 128,-1,6
 1003.77050781 116.755859375 1003.77050781 116.755859375 933.453125 46.4384765625 c 128,-1,7
 863.139648438 -23.8798828125 863.139648438 -23.8798828125 771.264648438 -61.9365234375 c 128,-1,8
 679.389648438 -99.9931640625 679.389648438 -99.9931640625 579.942382812 -99.9931640625 c 128,-1,9
 480.5 -99.9931640625 480.5 -99.9931640625 388.625 -61.9365234375 c 128,-1,10
 296.749023438 -23.8798828125 296.749023438 -23.8798828125 226.431640625 46.4384765625 c 128,-1,11
 156.114257812 116.758789062 156.114257812 116.758789062 118.057617188 208.62890625 c 128,-1,12
 80.0009765625 300.499023438 80.0009765625 300.499023438 80 399.91796875 c 128,-1,13
 80 499.384765625 80 499.384765625 118.051757812 591.259765625 c 128,-1,14
 156.104492188 683.133789062 156.104492188 683.133789062 226.416015625 753.459960938 c 128,-1,15
 296.750976562 823.78125 296.750976562 823.78125 388.625976562 861.8359375 c 128,-1,0
 480.5 899.891601562 480.5 899.891601562 579.958007812 899.890625 c 128,-1,1
851.276367188 468.797851562 m 1,16,-1
 308.645507812 468.797851562 l 1,17,18
 308.645507812 331.059570312 l 1,19,-1
 851.276367188 331.059570312 l 1,20,-1
 851.276367188 468.797851562 l 1,16,-1
EndSplineSet
EndChar

StartChar: uni0299
Encoding: 665 665 97
Width: 1159
VWidth: 100
Flags: W
LayerCount: 2
Fore
SplineSet
693.924804688 842.3671875 m 1,0,-1
 693.924804688 513.904296875 l 1,1,-1
 1022.38671875 513.904296875 l 2,2,3
 1022.38671875 285.966796875 l 1,4,-1
 693.924804688 285.966796875 l 1,5,-1
 693.924804688 -42.49609375 l 1,6,7
 465.987304688 -42.49609375 l 1,8,-1
 465.987304688 285.966796875 l 1,9,-1
 137.524414062 285.966796875 l 5,10,11
 137.524414062 513.904296875 l 5,12,-1
 465.987304688 513.904296875 l 1,13,-1
 465.987304688 842.3671875 l 1,14,-1
 693.924804688 842.3671875 l 1,0,-1
EndSplineSet
EndChar

StartChar: uni029A
Encoding: 666 666 98
Width: 1159
VWidth: 200
Flags: W
LayerCount: 2
Fore
SplineSet
1022.37597656 513.900390625 m 1,0,1
 1022.37597656 285.962890625 l 1,2,-1
 137.524414062 285.962890625 l 1,3,4
 137.524414062 513.900390625 l 2,5,-1
 1022.37597656 513.900390625 l 1,0,1
EndSplineSet
EndChar

StartChar: uni0225
Encoding: 549 549 99
Width: 1160
VWidth: 100
Flags: W
LayerCount: 2
Fore
SplineSet
579.96875 900 m 128,-1,1
 613.125976562 900.028320312 613.125976562 900.028320312 654.150390625 893.953125 c 1,2,-1
 654.150390625 788.219726562 l 1,3,4
 734.484375 772.96875 734.484375 772.96875 802.245117188 726.845703125 c 1,5,-1
 877.159179688 801.84765625 l 1,6,7
 937.625 757.135742188 937.625 757.135742188 982.111328125 696.899414062 c 1,8,-1
 907.197265625 621.896484375 l 1,9,10
 953.362304688 554.05078125 953.362304688 554.05078125 968.571289062 473.890625 c 1,11,-1
 1073.95605469 473.890625 l 1,12,13
 1080.03222656 432.71484375 1080.03222656 432.71484375 1080.03222656 400.016601562 c 0,14,15
 1080.03222656 366.806640625 1080.03222656 366.806640625 1073.86914062 325.447265625 c 1,16,-1
 968.483398438 325.447265625 l 1,17,18
 953.198242188 244.931640625 953.198242188 244.931640625 907.197265625 177.353515625 c 1,19,-1
 981.766601562 102.787109375 l 1,20,21
 937.109375 42.4287109375 937.109375 42.4287109375 876.780273438 -2.0869140625 c 1,22,-1
 802.298828125 72.482421875 l 1,23,24
 734.590820312 26.3896484375 734.590820312 26.3896484375 654.116210938 11.111328125 c 1,25,-1
 654.116210938 -93.9287109375 l 1,26,27
 613.267578125 -100.00390625 613.267578125 -100.00390625 579.983398438 -100.00390625 c 128,-1,28
 546.732421875 -100.00390625 546.732421875 -100.00390625 505.76171875 -93.9287109375 c 1,29,-1
 505.76171875 11.111328125 l 1,30,31
 425.41015625 26.359375 425.41015625 26.359375 357.666992188 72.482421875 c 1,32,-1
 283.09765625 -2.083984375 l 1,33,34
 222.76953125 42.4658203125 222.76953125 42.4658203125 178.145507812 102.780273438 c 1,35,-1
 252.802734375 177.346679688 l 1,36,37
 206.676757812 245.126953125 206.676757812 245.126953125 191.428710938 325.44140625 c 1,38,-1
 86.1318359375 325.44140625 l 1,39,40
 79.9677734375 366.787109375 79.9677734375 366.787109375 79.9677734375 400.010742188 c 0,41,42
 79.9677734375 432.705078125 79.9677734375 432.705078125 86.0419921875 473.868164062 c 1,43,-1
 191.426757812 473.868164062 l 1,44,45
 206.638671875 554.034179688 206.638671875 554.034179688 252.80078125 621.875 c 1,46,-1
 177.88671875 696.7890625 l 1,47,48
 222.55859375 757.295898438 222.55859375 757.295898438 282.750976562 801.826171875 c 1,49,-1
 357.740234375 726.817382812 l 1,50,51
 425.55078125 772.969726562 425.55078125 772.969726562 505.747070312 788.19140625 c 1,52,-1
 505.747070312 893.924804688 l 1,53,0
 546.638671875 900 546.638671875 900 579.96875 900 c 128,-1,1
579.96875 751.037109375 m 128,-1,55
 484.66796875 751.037109375 484.66796875 751.037109375 403.79296875 704.036132812 c 128,-1,56
 322.91796875 657.034179688 322.91796875 657.034179688 275.916015625 576.159179688 c 128,-1,57
 228.915039062 495.284179688 228.915039062 495.284179688 228.915039062 399.983398438 c 128,-1,58
 228.915039062 304.682617188 228.915039062 304.682617188 275.916015625 223.806640625 c 128,-1,59
 322.91796875 142.931640625 322.91796875 142.931640625 403.79296875 95.931640625 c 128,-1,60
 484.66796875 48.9306640625 484.66796875 48.9306640625 579.96875 48.9306640625 c 128,-1,61
 675.268554688 48.9306640625 675.268554688 48.9306640625 756.143554688 95.931640625 c 128,-1,62
 837.018554688 142.93359375 837.018554688 142.93359375 884.020507812 223.80859375 c 128,-1,63
 931.021484375 304.68359375 931.021484375 304.68359375 931.021484375 399.983398438 c 128,-1,64
 931.021484375 495.28515625 931.021484375 495.28515625 884.020507812 576.16015625 c 128,-1,65
 837.018554688 657.036132812 837.018554688 657.036132812 756.143554688 704.036132812 c 128,-1,54
 675.268554688 751.037109375 675.268554688 751.037109375 579.96875 751.037109375 c 128,-1,55
579.96875 580.284179688 m 128,-1,67
 654.73828125 580.284179688 654.73828125 580.284179688 707.502929688 527.51953125 c 128,-1,68
 760.267578125 474.755859375 760.267578125 474.755859375 760.267578125 399.985351562 c 128,-1,69
 760.26953125 325.215820312 760.26953125 325.215820312 707.50390625 272.44921875 c 128,-1,70
 654.739257812 219.682617188 654.739257812 219.682617188 579.96875 219.682617188 c 128,-1,71
 505.201171875 219.682617188 505.201171875 219.682617188 452.434570312 272.44921875 c 128,-1,72
 399.668945312 325.215820312 399.668945312 325.215820312 399.668945312 399.985351562 c 128,-1,73
 399.668945312 474.754882812 399.668945312 474.754882812 452.43359375 527.51953125 c 128,-1,66
 505.198242188 580.284179688 505.198242188 580.284179688 579.96875 580.284179688 c 128,-1,67
579.875 529.243164062 m 128,-1,75
 526.21484375 529.243164062 526.21484375 529.243164062 488.286132812 491.28125 c 128,-1,76
 450.356445312 453.318359375 450.356445312 453.318359375 450.356445312 399.640625 c 128,-1,77
 450.356445312 345.971679688 450.356445312 345.971679688 488.282226562 308.046875 c 128,-1,78
 526.208007812 270.122070312 526.208007812 270.122070312 579.875 270.122070312 c 128,-1,79
 633.55078125 270.122070312 633.55078125 270.122070312 671.515625 308.049804688 c 128,-1,80
 709.48046875 345.978515625 709.48046875 345.978515625 709.48046875 399.640625 c 128,-1,81
 709.48046875 453.30859375 709.48046875 453.30859375 671.51171875 491.276367188 c 128,-1,74
 633.54296875 529.243164062 633.54296875 529.243164062 579.875 529.243164062 c 128,-1,75
EndSplineSet
EndChar

StartChar: uni0224
Encoding: 548 548 100
Width: 1160
VWidth: 200
Flags: W
LayerCount: 2
Fore
SplineSet
652.392578125 894.731445312 m 1,0,-1
 700.59375 739.799804688 l 1,1,2
 718.169921875 733.5625 718.169921875 733.5625 735 725.546875 c 1,3,-1
 878.63671875 801.018554688 l 1,4,5
 937.31640625 757.321289062 937.31640625 757.321289062 981.017578125 698.637695312 c 1,6,-1
 905.546875 555.001953125 l 1,7,8
 913.560546875 538.172851562 913.560546875 538.172851562 919.798828125 520.594726562 c 1,9,-1
 1074.73046875 472.39453125 l 1,10,11
 1085.32421875 400 1085.32421875 400 1074.73046875 327.606445312 c 1,12,-1
 919.798828125 279.405273438 l 1,13,14
 913.564453125 261.837890625 913.564453125 261.837890625 905.546875 244.998046875 c 1,15,-1
 981.017578125 101.362304688 l 1,16,17
 937.318359375 42.681640625 937.318359375 42.681640625 878.63671875 -1.0185546875 c 1,18,-1
 735 74.453125 l 1,19,20
 718.166015625 66.4365234375 718.166015625 66.4365234375 700.59375 60.201171875 c 1,21,-1
 652.392578125 -94.7314453125 l 1,22,23
 580 -105.32421875 580 -105.32421875 507.60546875 -94.7314453125 c 1,24,-1
 459.404296875 60.201171875 l 1,25,26
 441.826171875 66.439453125 441.826171875 66.439453125 424.998046875 74.453125 c 1,27,-1
 281.361328125 -1.0185546875 l 1,28,29
 222.677734375 42.6845703125 222.677734375 42.6845703125 178.98046875 101.362304688 c 1,30,-1
 254.451171875 244.998046875 l 1,31,32
 246.43359375 261.842773438 246.43359375 261.842773438 240.19921875 279.405273438 c 1,33,-1
 85.267578125 327.606445312 l 1,34,35
 74.67578125 400 74.67578125 400 85.267578125 472.39453125 c 1,36,-1
 240.19921875 520.594726562 l 1,37,38
 246.4375 538.168945312 246.4375 538.168945312 254.451171875 555.001953125 c 1,39,-1
 178.98046875 698.637695312 l 1,40,41
 222.681640625 757.318359375 222.681640625 757.318359375 281.361328125 801.018554688 c 1,42,-1
 424.998046875 725.546875 l 1,43,44
 441.822265625 733.560546875 441.822265625 733.560546875 459.404296875 739.799804688 c 1,45,-1
 507.60546875 894.731445312 l 1,46,47
 580 905.32421875 580 905.32421875 652.392578125 894.731445312 c 1,0,-1
579.998046875 532.666015625 m 128,-1,49
 525.083984375 532.666015625 525.083984375 532.666015625 486.208984375 493.791015625 c 128,-1,50
 447.333984375 454.916015625 447.333984375 454.916015625 447.333984375 400.000976562 c 128,-1,51
 447.333984375 345.084960938 447.333984375 345.084960938 486.208984375 306.209960938 c 128,-1,52
 525.083984375 267.333984375 525.083984375 267.333984375 579.998046875 267.333984375 c 128,-1,53
 634.9140625 267.333984375 634.9140625 267.333984375 673.7890625 306.209960938 c 128,-1,54
 712.6640625 345.084960938 712.6640625 345.084960938 712.6640625 400.000976562 c 128,-1,55
 712.6640625 454.916015625 712.6640625 454.916015625 673.7890625 493.791015625 c 128,-1,48
 634.9140625 532.666015625 634.9140625 532.666015625 579.998046875 532.666015625 c 128,-1,49
EndSplineSet
EndChar

StartChar: uni029C
Encoding: 668 668 101
Width: 1159
VWidth: 100
Flags: W
LayerCount: 2
Fore
SplineSet
80 573.46875 m 1,0,-1
 1079.69335938 573.46875 l 1,1,-1
 1079.69335938 226.868164062 l 1,2,-1
 80 226.868164062 l 1,3,-1
 80 573.46875 l 1,0,-1
EndSplineSet
EndChar

StartChar: uni029B
Encoding: 667 667 102
Width: 1159
VWidth: 100
Flags: W
LayerCount: 2
Fore
SplineSet
408.7890625 900 m 1,0,-1
 755.388671875 900 l 1,1,-1
 755.388671875 573.46875 l 1,2,-1
 1079.69335938 573.46875 l 1,3,-1
 1079.69335938 226.868164062 l 1,4,-1
 755.388671875 226.868164062 l 1,5,-1
 755.388671875 -99.693359375 l 1,6,-1
 408.7890625 -99.693359375 l 1,7,-1
 408.7890625 226.868164062 l 1,8,-1
 80 226.868164062 l 1,9,-1
 80 573.46875 l 1,10,-1
 408.7890625 573.46875 l 1,11,-1
 408.7890625 900 l 1,0,-1
EndSplineSet
EndChar

StartChar: uni029D
Encoding: 669 669 103
Width: 1160
VWidth: 100
Flags: W
LayerCount: 2
Fore
SplineSet
465.192382812 900 m 2,0,-1
 694.85546875 900.038085938 l 2,1,2
 719.188476562 900.038085938 719.188476562 900.038085938 736.288085938 882.9375 c 128,-1,3
 753.387695312 865.836914062 753.387695312 865.836914062 753.387695312 841.504882812 c 2,4,-1
 753.387695312 573.377929688 l 1,5,-1
 1021.51464844 573.377929688 l 2,6,7
 1045.84472656 573.377929688 1045.84472656 573.377929688 1062.94335938 556.280273438 c 128,-1,8
 1080.04199219 539.182617188 1080.04199219 539.182617188 1080.04199219 514.8515625 c 2,9,-1
 1080.04199219 285.185546875 l 2,10,11
 1080.04199219 260.853515625 1080.04199219 260.853515625 1062.94238281 243.755859375 c 128,-1,12
 1045.84375 226.658203125 1045.84375 226.658203125 1021.51464844 226.658203125 c 2,13,-1
 753.387695312 226.658203125 l 1,14,-1
 753.387695312 -41.4677734375 l 2,15,16
 753.387695312 -65.80078125 753.387695312 -65.80078125 736.287109375 -82.900390625 c 128,-1,17
 719.1875 -100.000976562 719.1875 -100.000976562 694.85546875 -100.000976562 c 2,18,-1
 465.1953125 -100.000976562 l 2,19,20
 440.862304688 -100.000976562 440.862304688 -100.000976562 423.76171875 -82.900390625 c 128,-1,21
 406.662109375 -65.80078125 406.662109375 -65.80078125 406.662109375 -41.4677734375 c 2,22,-1
 406.662109375 226.658203125 l 1,23,-1
 138.536132812 226.658203125 l 2,24,25
 114.206054688 226.658203125 114.206054688 226.658203125 97.103515625 243.749023438 c 128,-1,26
 80.001953125 260.840820312 80.001953125 260.840820312 80 285.147460938 c 2,27,-1
 80 514.813476562 l 2,28,29
 80 539.145507812 80 539.145507812 97.099609375 556.243164062 c 128,-1,30
 114.19921875 573.33984375 114.19921875 573.33984375 138.532226562 573.33984375 c 2,31,-1
 406.659179688 573.33984375 l 1,32,-1
 406.659179688 841.466796875 l 2,33,34
 406.659179688 865.799804688 406.659179688 865.799804688 423.759765625 882.900390625 c 128,-1,35
 440.859375 900 440.859375 900 465.192382812 900 c 2,0,-1
EndSplineSet
EndChar

StartChar: uni029E
Encoding: 670 670 104
Width: 1160
VWidth: 100
Flags: W
LayerCount: 2
Fore
SplineSet
138.533203125 573.34375 m 2,0,-1
 1021.51171875 573.349609375 l 2,1,2
 1045.84179688 573.349609375 1045.84179688 573.349609375 1062.94042969 556.251953125 c 128,-1,3
 1080.0390625 539.155273438 1080.0390625 539.155273438 1080.0390625 514.823242188 c 2,4,-1
 1080.0390625 285.157226562 l 2,5,6
 1080.0390625 260.825195312 1080.0390625 260.825195312 1062.94042969 243.727539062 c 128,-1,7
 1045.84082031 226.629882812 1045.84082031 226.629882812 1021.51171875 226.629882812 c 2,8,-1
 138.533203125 226.629882812 l 2,9,10
 114.200195312 226.629882812 114.200195312 226.629882812 97.099609375 243.7265625 c 128,-1,11
 80 260.823242188 80 260.823242188 80 285.150390625 c 2,12,-1
 80 514.81640625 l 2,13,14
 80 539.149414062 80 539.149414062 97.099609375 556.24609375 c 128,-1,15
 114.200195312 573.34375 114.200195312 573.34375 138.533203125 573.34375 c 2,0,-1
EndSplineSet
EndChar

StartChar: uni029F
Encoding: 671 671 105
Width: 1159
VWidth: 100
Flags: W
LayerCount: 2
Fore
SplineSet
580.267578125 900 m 128,-1,1
 644.99609375 900.002929688 644.99609375 900.002929688 690.559570312 856.932617188 c 128,-1,2
 736.123046875 813.862304688 736.123046875 813.862304688 736.123046875 752.705078125 c 2,3,-1
 736.123046875 555.59765625 l 1,4,-1
 932.693359375 555.59765625 l 2,5,6
 993.852539062 555.59765625 993.852539062 555.59765625 1036.921875 510.034179688 c 128,-1,7
 1079.9921875 464.471679688 1079.9921875 464.471679688 1079.9921875 399.736328125 c 128,-1,8
 1079.9921875 335.000976562 1079.9921875 335.000976562 1036.921875 289.4375 c 128,-1,9
 993.850585938 243.874023438 993.850585938 243.874023438 932.693359375 243.874023438 c 2,10,-1
 736.123046875 243.874023438 l 1,11,-1
 736.123046875 47.302734375 l 2,12,13
 736.123046875 -13.85546875 736.123046875 -13.85546875 690.559570312 -56.92578125 c 128,-1,14
 644.99609375 -99.9951171875 644.99609375 -99.9951171875 580.260742188 -99.9951171875 c 128,-1,15
 515.526367188 -99.9951171875 515.526367188 -99.9951171875 469.962890625 -56.9248046875 c 128,-1,16
 424.399414062 -13.853515625 424.399414062 -13.853515625 424.399414062 47.302734375 c 2,17,-1
 424.399414062 243.874023438 l 1,18,-1
 227.291992188 243.874023438 l 2,19,20
 166.137695312 243.874023438 166.137695312 243.874023438 123.068359375 289.4375 c 128,-1,21
 80 335.000976562 80 335.000976562 80 399.736328125 c 128,-1,22
 80 464.470703125 80 464.470703125 123.069335938 510.033203125 c 128,-1,23
 166.139648438 555.594726562 166.139648438 555.594726562 227.297851562 555.594726562 c 2,24,-1
 424.405273438 555.594726562 l 1,25,-1
 424.405273438 752.702148438 l 2,26,27
 424.405273438 813.861328125 424.405273438 813.861328125 469.96875 856.930664062 c 128,-1,0
 515.532226562 900 515.532226562 900 580.267578125 900 c 128,-1,1
EndSplineSet
EndChar

StartChar: uni02A0
Encoding: 672 672 106
Width: 1159
VWidth: 100
Flags: W
LayerCount: 2
Fore
SplineSet
227.291992188 555.594726562 m 2,0,-1
 932.690429688 555.59765625 l 2,1,2
 993.849609375 555.59765625 993.849609375 555.59765625 1036.91894531 510.034179688 c 128,-1,3
 1079.98828125 464.471679688 1079.98828125 464.471679688 1079.98828125 399.736328125 c 128,-1,4
 1079.98828125 335.000976562 1079.98828125 335.000976562 1036.91796875 289.4375 c 128,-1,5
 993.84765625 243.874023438 993.84765625 243.874023438 932.690429688 243.874023438 c 2,6,-1
 227.291992188 243.874023438 l 2,7,8
 166.13671875 243.874023438 166.13671875 243.874023438 123.068359375 289.4375 c 128,-1,9
 80 335.000976562 80 335.000976562 80 399.736328125 c 128,-1,10
 80 464.470703125 80 464.470703125 123.068359375 510.032226562 c 128,-1,11
 166.13671875 555.594726562 166.13671875 555.594726562 227.291992188 555.594726562 c 2,0,-1
EndSplineSet
EndChar

StartChar: etatonos
Encoding: 942 942 107
Width: 907
VWidth: 1200
Flags: W
LayerCount: 2
Fore
SplineSet
453.788085938 900 m 128,-1,1
 544.697265625 900.006835938 544.697265625 900.006835938 608.852539062 835.928710938 c 128,-1,2
 673.008789062 771.849609375 673.008789062 771.849609375 673.008789062 681.170898438 c 128,-1,3
 673.008789062 590.499023438 673.008789062 590.499023438 608.84765625 526.420898438 c 128,-1,4
 544.686523438 462.342773438 544.686523438 462.342773438 453.772460938 462.3359375 c 128,-1,5
 362.860351562 462.329101562 362.860351562 462.329101562 298.69921875 526.40234375 c 128,-1,6
 234.5390625 590.475585938 234.5390625 590.475585938 234.53515625 681.146484375 c 128,-1,7
 234.528320312 771.821289062 234.528320312 771.821289062 298.694335938 835.905273438 c 128,-1,0
 362.860351562 899.989257812 362.860351562 899.989257812 453.788085938 900 c 128,-1,1
80 43.455078125 m 0,8,9
 80.0185546875 128.6015625 80.0185546875 128.6015625 130.000976562 200.793945312 c 128,-1,10
 179.982421875 272.985351562 179.982421875 272.985351562 266.081054688 314.930664062 c 128,-1,11
 352.178710938 356.875 352.178710938 356.875 453.775390625 356.875 c 128,-1,12
 555.370117188 356.879882812 555.370117188 356.879882812 641.46875 314.939453125 c 128,-1,13
 727.567382812 272.999023438 727.567382812 272.999023438 777.548828125 200.811523438 c 128,-1,14
 827.53125 128.624023438 827.53125 128.624023438 827.53125 43.48046875 c 0,15,16
 827.53125 -68.7509765625 827.53125 -68.7509765625 625.635742188 -89.9794921875 c 0,17,18
 531.237304688 -99.955078125 531.237304688 -99.955078125 453.809570312 -99.974609375 c 0,19,20
 376.909179688 -99.994140625 376.909179688 -99.994140625 281.895507812 -90.00390625 c 0,21,22
 80 -68.771484375 80 -68.771484375 80 43.455078125 c 0,8,9
EndSplineSet
EndChar

StartChar: iotatonos
Encoding: 943 943 108
Width: 915
VWidth: 1300
Flags: W
LayerCount: 2
Fore
SplineSet
403.991210938 900 m 128,-1,1
 482.775390625 900.006835938 482.775390625 900.006835938 538.3828125 844.46484375 c 128,-1,2
 593.989257812 788.922851562 593.989257812 788.922851562 593.989257812 710.328125 c 128,-1,3
 593.989257812 631.737304688 593.989257812 631.737304688 538.383789062 576.200195312 c 128,-1,4
 482.77734375 520.662109375 482.77734375 520.662109375 403.991210938 520.662109375 c 128,-1,5
 325.190429688 520.638671875 325.190429688 520.638671875 269.577148438 576.174804688 c 128,-1,6
 213.962890625 631.7109375 213.962890625 631.7109375 213.958007812 710.305664062 c 128,-1,7
 213.951171875 788.899414062 213.951171875 788.899414062 269.56640625 844.4453125 c 128,-1,0
 325.182617188 899.990234375 325.182617188 899.990234375 403.991210938 900 c 128,-1,1
403.959960938 429.252929688 m 0,8,9
 537.54296875 429.260742188 537.54296875 429.260742188 632.263671875 350.381835938 c 1,10,11
 529.778320312 348.833007812 529.778320312 348.833007812 457.443359375 275.485351562 c 128,-1,12
 385.108398438 202.137695312 385.108398438 202.137695312 385.108398438 99.4521484375 c 0,13,14
 385.108398438 65.67578125 385.108398438 65.67578125 393.965820312 33.3271484375 c 1,15,16
 331.181640625 33.912109375 331.181640625 33.912109375 254.997070312 41.921875 c 0,17,18
 80 60.3212890625 80 60.3212890625 80 157.598632812 c 0,19,20
 80 231.395507812 80 231.395507812 123.323242188 293.966796875 c 128,-1,21
 166.645507812 356.538085938 166.645507812 356.538085938 241.2734375 392.895507812 c 128,-1,22
 315.901367188 429.252929688 315.901367188 429.252929688 403.959960938 429.252929688 c 0,8,9
636.099609375 298.870117188 m 128,-1,24
 718.926757812 298.870117188 718.926757812 298.870117188 777.208984375 240.576171875 c 128,-1,25
 835.490234375 182.28125 835.490234375 182.28125 835.490234375 99.4482421875 c 128,-1,26
 835.490234375 16.61328125 835.490234375 16.61328125 777.208984375 -41.6806640625 c 128,-1,27
 718.926757812 -99.9755859375 718.926757812 -99.9755859375 636.099609375 -99.9755859375 c 128,-1,28
 553.270507812 -99.9755859375 553.270507812 -99.9755859375 494.974609375 -41.6787109375 c 128,-1,29
 436.678710938 16.6181640625 436.678710938 16.6181640625 436.678710938 99.4482421875 c 128,-1,30
 436.678710938 182.278320312 436.678710938 182.278320312 494.974609375 240.57421875 c 128,-1,23
 553.26953125 298.870117188 553.26953125 298.870117188 636.099609375 298.870117188 c 128,-1,24
608.162109375 205.38671875 m 1,31,-1
 608.162109375 127.37109375 l 1,32,-1
 530.146484375 127.37109375 l 1,33,34
 530.146484375 71.53125 l 1,35,-1
 608.162109375 71.53125 l 1,36,-1
 608.162109375 -6.484375 l 1,37,38
 664.001953125 -6.484375 l 5,39,-1
 664.001953125 71.53125 l 1,40,-1
 742.018554688 71.53125 l 1,41,-1
 742.018554688 127.37109375 l 1,42,-1
 664.001953125 127.37109375 l 1,43,-1
 664.001953125 205.38671875 l 1,44,-1
 608.162109375 205.38671875 l 1,31,-1
EndSplineSet
EndChar

StartChar: upsilondieresistonos
Encoding: 944 944 109
Width: 915
VWidth: 1300
Flags: W
LayerCount: 2
Fore
SplineSet
403.9765625 900 m 128,-1,1
 482.783203125 900.006835938 482.783203125 900.006835938 538.397460938 844.462890625 c 128,-1,2
 594.01171875 788.918945312 594.01171875 788.918945312 594.004882812 710.318359375 c 128,-1,3
 594.004882812 631.73046875 594.004882812 631.73046875 538.391601562 576.190429688 c 128,-1,4
 482.779296875 520.651367188 482.779296875 520.651367188 403.9765625 520.641601562 c 128,-1,5
 325.176757812 520.634765625 325.176757812 520.634765625 269.5625 576.172851562 c 128,-1,6
 213.948242188 631.7109375 213.948242188 631.7109375 213.948242188 710.301757812 c 128,-1,7
 213.94140625 788.897460938 213.94140625 788.897460938 269.556640625 844.4453125 c 128,-1,0
 325.171875 899.993164062 325.171875 899.993164062 403.9765625 900 c 128,-1,1
403.971679688 429.244140625 m 0,8,9
 537.549804688 429.25 537.549804688 429.25 632.272460938 350.3671875 c 1,10,11
 529.78515625 348.817382812 529.78515625 348.817382812 457.44921875 275.467773438 c 128,-1,12
 385.11328125 202.119140625 385.11328125 202.119140625 385.11328125 99.4306640625 c 0,13,14
 385.11328125 65.6513671875 385.11328125 65.6513671875 393.969726562 33.3046875 c 1,15,16
 331.201171875 33.888671875 331.201171875 33.888671875 254.999023438 41.8994140625 c 0,17,18
 80 60.2998046875 80 60.2998046875 80 157.58203125 c 0,19,20
 80 231.3828125 80 231.3828125 123.323242188 293.954101562 c 128,-1,21
 166.646484375 356.525390625 166.646484375 356.525390625 241.276367188 392.8828125 c 128,-1,22
 315.90625 429.240234375 315.90625 429.240234375 403.971679688 429.244140625 c 0,8,9
636.115234375 298.857421875 m 128,-1,24
 718.943359375 298.857421875 718.943359375 298.857421875 777.2265625 240.561523438 c 128,-1,25
 835.508789062 182.265625 835.508789062 182.265625 835.508789062 99.4306640625 c 128,-1,26
 835.508789062 16.595703125 835.508789062 16.595703125 777.2265625 -41.7001953125 c 128,-1,27
 718.943359375 -99.99609375 718.943359375 -99.99609375 636.115234375 -99.99609375 c 128,-1,28
 553.283203125 -99.99609375 553.283203125 -99.99609375 494.986328125 -41.6982421875 c 128,-1,29
 436.689453125 16.5986328125 436.689453125 16.5986328125 436.689453125 99.4306640625 c 128,-1,30
 436.689453125 182.262695312 436.689453125 182.262695312 494.986328125 240.559570312 c 128,-1,23
 553.283203125 298.857421875 553.283203125 298.857421875 636.115234375 298.857421875 c 128,-1,24
530.16015625 127.353515625 m 1,31,32
 530.16015625 71.5126953125 l 5,33,-1
 742.037109375 71.5126953125 l 1,34,-1
 742.037109375 127.353515625 l 1,35,-1
 530.16015625 127.353515625 l 1,31,32
EndSplineSet
EndChar

StartChar: alpha
Encoding: 945 945 110
Width: 1174
VWidth: 1300
Flags: W
LayerCount: 2
Fore
SplineSet
234.344726562 681.384765625 m 128,-1,1
 234.33203125 771.978515625 234.33203125 771.978515625 298.458007812 835.989257812 c 128,-1,2
 362.583984375 900 362.583984375 900 453.420898438 900 c 128,-1,3
 544.25390625 900.00390625 544.25390625 900.00390625 608.38671875 835.993164062 c 128,-1,4
 672.51953125 771.981445312 672.51953125 771.981445312 672.51953125 681.390625 c 128,-1,5
 672.51953125 590.803710938 672.51953125 590.803710938 608.39453125 526.783203125 c 128,-1,6
 544.26953125 462.76171875 544.26953125 462.76171875 453.430664062 462.724609375 c 128,-1,7
 362.610351562 462.6875 362.610351562 462.6875 298.477539062 526.736328125 c 128,-1,0
 234.344726562 590.78515625 234.344726562 590.78515625 234.344726562 681.384765625 c 128,-1,1
995.247070312 596.068359375 m 1,8,-1
 1094.55761719 496.758789062 l 1,9,-1
 683.203125 85.404296875 l 1,10,-1
 553.1015625 54.6123046875 l 1,11,-1
 583.892578125 184.713867188 l 1,12,-1
 995.247070312 596.068359375 l 1,8,-1
453.03515625 357.380859375 m 0,13,-1
 453.831054688 357.387695312 l 2,14,15
 553.439453125 357.387695312 553.439453125 357.387695312 642.198242188 313.486328125 c 1,16,-1
 543.65234375 214.946289062 l 2,17,18
 538.690429688 209.909179688 538.690429688 209.909179688 537.08984375 202.978515625 c 2,19,-1
 495.399414062 26.8369140625 l 2,20,21
 492.2265625 13.3154296875 492.2265625 13.3154296875 502.064453125 3.505859375 c 128,-1,22
 511.903320312 -6.302734375 511.903320312 -6.302734375 525.415039062 -3.0791015625 c 2,23,-1
 701.552734375 38.5205078125 l 2,24,25
 708.401367188 40.1513671875 708.401367188 40.1513671875 713.427734375 45.1767578125 c 2,26,-1
 808.686523438 140.439453125 l 1,27,28
 826.83203125 93.25390625 826.83203125 93.25390625 826.83203125 44.2109375 c 0,29,30
 826.83203125 -67.8603515625 826.83203125 -67.8603515625 625.118164062 -89.0791015625 c 0,31,32
 532.971679688 -98.7734375 532.971679688 -98.7734375 453.51171875 -99.9853515625 c 0,33,34
 372.643554688 -98.732421875 372.643554688 -98.732421875 281.713867188 -89.1728515625 c 0,35,36
 80 -67.96484375 80 -67.96484375 80 44.2080078125 c 0,37,38
 80 129.275390625 80 129.275390625 129.90625 201.4140625 c 128,-1,39
 179.8125 273.553710938 179.8125 273.553710938 265.745117188 315.467773438 c 128,-1,40
 351.678710938 357.380859375 351.678710938 357.380859375 453.03515625 357.380859375 c 0,13,-1
EndSplineSet
EndChar

StartChar: beta
Encoding: 946 946 111
Width: 1016
VWidth: 1200
Flags: W
LayerCount: 2
Fore
SplineSet
406.4375 900 m 0,0,1
 488.354492188 900.004882812 488.354492188 900.004882812 541.903320312 838.908203125 c 1,2,3
 468.140625 816.681640625 468.140625 816.681640625 420.93359375 754.28125 c 128,-1,4
 373.7265625 691.881835938 373.7265625 691.881835938 373.73046875 613.020507812 c 0,5,6
 373.734375 576.784179688 373.734375 576.784179688 384.548828125 542.456054688 c 1,7,8
 317.176757812 550.502929688 317.176757812 550.502929688 271.908203125 601.180664062 c 128,-1,9
 226.639648438 651.857421875 226.639648438 651.857421875 226.63671875 720.556640625 c 0,10,11
 226.633789062 795.166015625 226.633789062 795.166015625 279.109375 847.580078125 c 128,-1,12
 331.583984375 899.994140625 331.583984375 899.994140625 406.4375 900 c 0,0,1
609.982421875 792.466796875 m 128,-1,14
 684.831054688 792.475585938 684.831054688 792.475585938 737.3046875 740.068359375 c 128,-1,15
 789.779296875 687.66015625 789.779296875 687.66015625 789.776367188 613.049804688 c 128,-1,16
 789.774414062 538.444335938 789.774414062 538.444335938 737.299804688 486.0390625 c 128,-1,17
 684.825195312 433.633789062 684.825195312 433.633789062 609.97265625 433.625976562 c 128,-1,18
 535.125976562 433.616210938 535.125976562 433.616210938 482.653320312 486.018554688 c 128,-1,19
 430.181640625 538.420898438 430.181640625 538.420898438 430.177734375 613.025390625 c 128,-1,20
 430.172851562 687.635742188 430.172851562 687.635742188 482.649414062 740.047851562 c 128,-1,13
 535.125 792.458984375 535.125 792.458984375 609.982421875 792.466796875 c 128,-1,14
406.4375 384.65625 m 0,21,22
 512.818359375 384.65625 512.818359375 384.65625 598.131835938 333.397460938 c 1,23,24
 499.697265625 330.836914062 499.697265625 330.836914062 415.868164062 289.043945312 c 128,-1,25
 332.0390625 247.250976562 332.0390625 247.250976562 281.365234375 175.8359375 c 128,-1,26
 230.692382812 104.421875 230.692382812 104.421875 227.323242188 19.2216796875 c 1,27,28
 159.45703125 28.6611328125 159.45703125 28.6611328125 122.41796875 49.9560546875 c 0,29,30
 100.02734375 62.830078125 100.02734375 62.830078125 90.013671875 77.7734375 c 128,-1,31
 80 92.7158203125 80 92.7158203125 80 115.478515625 c 0,32,33
 80 225.90234375 80 225.90234375 175.02734375 305.279296875 c 128,-1,34
 270.055664062 384.65625 270.055664062 384.65625 406.4375 384.65625 c 0,21,22
609.969726562 277.123046875 m 128,-1,36
 746.344726562 277.134765625 746.344726562 277.134765625 841.372070312 197.765625 c 128,-1,37
 936.3984375 118.397460938 936.3984375 118.397460938 936.3984375 7.978515625 c 0,38,39
 936.3984375 -14.7841796875 936.3984375 -14.7841796875 926.384765625 -29.7275390625 c 128,-1,40
 916.37109375 -44.669921875 916.37109375 -44.669921875 893.98046875 -57.5439453125 c 0,41,42
 851.362304688 -82.046875 851.362304688 -82.046875 770.09765625 -90.591796875 c 0,43,44
 681.470703125 -99.923828125 681.470703125 -99.923828125 610.00390625 -99.9306640625 c 128,-1,45
 538.504882812 -99.9375 538.504882812 -99.9375 449.833007812 -90.615234375 c 0,46,47
 368.568359375 -82.0693359375 368.568359375 -82.0693359375 325.950195312 -57.5673828125 c 0,48,49
 303.559570312 -44.6953125 303.559570312 -44.6953125 293.545898438 -29.7529296875 c 128,-1,50
 283.532226562 -14.8095703125 283.532226562 -14.8095703125 283.532226562 7.955078125 c 0,51,52
 283.532226562 118.370117188 283.532226562 118.370117188 378.560546875 197.743164062 c 128,-1,35
 473.588867188 277.116210938 473.588867188 277.116210938 609.969726562 277.123046875 c 128,-1,36
EndSplineSet
EndChar

StartChar: gamma
Encoding: 947 947 112
Width: 1322
VWidth: 200
Flags: W
LayerCount: 2
Fore
SplineSet
411.767578125 899.991210938 m 0,0,1
 495.426757812 900.010742188 495.426757812 900.010742188 550.137695312 836.087890625 c 1,2,3
 491.6015625 805.31640625 491.6015625 805.31640625 456.2109375 748.893554688 c 128,-1,4
 420.8203125 692.470703125 420.8203125 692.470703125 420.8203125 624.778320312 c 0,5,6
 420.8203125 580.833984375 420.8203125 580.833984375 437.869140625 537.571289062 c 1,7,8
 423.984375 535.234375 423.984375 535.234375 411.780273438 535.234375 c 0,9,10
 335.690429688 535.227539062 335.690429688 535.227539062 282.3828125 588.47265625 c 128,-1,11
 229.076171875 641.71875 229.076171875 641.71875 229.073242188 717.565429688 c 128,-1,12
 229.068359375 793.420898438 229.068359375 793.420898438 282.37890625 846.704101562 c 128,-1,13
 335.689453125 899.987304688 335.689453125 899.987304688 411.767578125 899.991210938 c 0,0,1
910.140625 899.991210938 m 0,14,15
 986.251953125 899.99609375 986.251953125 899.99609375 1039.60058594 846.747070312 c 128,-1,16
 1092.95019531 793.498046875 1092.95019531 793.498046875 1092.95019531 717.651367188 c 128,-1,17
 1092.9453125 641.806640625 1092.9453125 641.806640625 1039.59082031 588.516601562 c 128,-1,18
 986.236328125 535.2265625 986.236328125 535.2265625 910.151367188 535.2265625 c 0,19,20
 898.443359375 535.2265625 898.443359375 535.2265625 884.153320312 537.564453125 c 1,21,22
 901.198242188 580.797851562 901.198242188 580.797851562 901.20703125 624.770507812 c 0,23,24
 901.208984375 692.463867188 901.208984375 692.463867188 865.815429688 748.888671875 c 128,-1,25
 830.421875 805.314453125 830.421875 805.314453125 771.883789062 836.080078125 c 1,26,27
 826.57421875 899.984375 826.57421875 899.984375 910.140625 899.991210938 c 0,14,15
661.001953125 807.10546875 m 128,-1,29
 737.102539062 807.112304688 737.102539062 807.112304688 790.451171875 753.860351562 c 128,-1,30
 843.799804688 700.608398438 843.799804688 700.608398438 843.799804688 624.770507812 c 128,-1,31
 843.799804688 548.930664062 843.799804688 548.930664062 790.4453125 495.637695312 c 128,-1,32
 737.090820312 442.345703125 737.090820312 442.345703125 661.001953125 442.345703125 c 128,-1,33
 584.916992188 442.338867188 584.916992188 442.338867188 531.559570312 495.634765625 c 128,-1,34
 478.203125 548.930664062 478.203125 548.930664062 478.203125 624.770507812 c 128,-1,35
 478.1953125 700.60546875 478.1953125 700.60546875 531.546875 753.85546875 c 128,-1,28
 584.897460938 807.10546875 584.897460938 807.10546875 661.001953125 807.10546875 c 128,-1,29
411.767578125 376.088867188 m 0,36,37
 505.0703125 376.08984375 505.0703125 376.08984375 585.99609375 334.4375 c 1,38,39
 451.080078125 311.98046875 451.080078125 311.98046875 361.450195312 221.1640625 c 128,-1,40
 271.8203125 130.346679688 271.8203125 130.346679688 271.8203125 9.662109375 c 0,41,42
 271.8203125 8.0546875 271.8203125 8.0546875 272.154296875 4.970703125 c 128,-1,43
 272.489257812 1.884765625 272.489257812 1.884765625 272.489257812 0.345703125 c 1,44,45
 270.875 0.4833984375 270.875 0.4833984375 262.19140625 1.16796875 c 128,-1,46
 253.5078125 1.8525390625 253.5078125 1.8525390625 249.1015625 2.3017578125 c 0,47,48
 166.512695312 10.9833984375 166.512695312 10.9833984375 123.135742188 35.9365234375 c 0,49,50
 100.372070312 49.0322265625 100.372070312 49.0322265625 90.1865234375 64.224609375 c 128,-1,51
 80 79.4169921875 80 79.4169921875 80 102.552734375 c 0,52,53
 80 214.779296875 80 214.779296875 176.569335938 295.43359375 c 128,-1,54
 273.137695312 376.088867188 273.137695312 376.088867188 411.767578125 376.088867188 c 0,36,37
910.140625 376.088867188 m 0,55,56
 1048.77929688 376.110351562 1048.77929688 376.110351562 1145.390625 295.453125 c 128,-1,57
 1242.00195312 214.794921875 1242.00195312 214.794921875 1242.00195312 102.555664062 c 0,58,59
 1242.00195312 79.4208984375 1242.00195312 79.4208984375 1231.81640625 64.2294921875 c 128,-1,60
 1221.62988281 49.0390625 1221.62988281 49.0390625 1198.86523438 35.9443359375 c 0,61,62
 1155.48730469 10.994140625 1155.48730469 10.994140625 1072.89746094 2.310546875 c 0,63,64
 1068.47851562 1.83203125 1068.47851562 1.83203125 1059.66992188 1.1513671875 c 128,-1,65
 1050.86230469 0.4697265625 1050.86230469 0.4697265625 1049.51269531 0.3544921875 c 1,66,67
 1049.56054688 1.1279296875 1049.56054688 1.1279296875 1049.87109375 4.466796875 c 128,-1,68
 1050.18261719 7.8056640625 1050.18261719 7.8056640625 1050.18261719 9.6708984375 c 0,69,70
 1050.18261719 130.34375 1050.18261719 130.34375 960.549804688 221.163085938 c 128,-1,71
 870.916015625 311.983398438 870.916015625 311.983398438 736.006835938 334.4453125 c 1,72,73
 816.8125 376.088867188 816.8125 376.088867188 910.140625 376.088867188 c 0,55,56
661.001953125 283.291015625 m 128,-1,75
 799.638671875 283.297851562 799.638671875 283.297851562 896.212890625 202.600585938 c 128,-1,76
 992.788085938 121.903320312 992.788085938 121.903320312 992.788085938 9.65234375 c 0,77,78
 992.788085938 -13.5048828125 992.788085938 -13.5048828125 982.635742188 -28.697265625 c 128,-1,79
 972.482421875 -43.888671875 972.482421875 -43.888671875 949.740234375 -56.96484375 c 0,80,81
 906.544921875 -81.8056640625 906.544921875 -81.8056640625 823.774414062 -90.505859375 c 0,82,83
 733.564453125 -100.0078125 733.564453125 -100.0078125 661.0078125 -100.0078125 c 0,84,85
 588.810546875 -100.028320312 588.810546875 -100.028320312 498.241210938 -90.505859375 c 0,86,87
 415.465820312 -81.802734375 415.465820312 -81.802734375 372.275390625 -56.96484375 c 0,88,89
 349.51171875 -43.8759765625 349.51171875 -43.8759765625 339.325195312 -28.681640625 c 128,-1,90
 329.139648438 -13.4873046875 329.139648438 -13.4873046875 329.139648438 9.65234375 c 0,91,92
 329.139648438 121.897460938 329.139648438 121.897460938 425.751953125 202.594726562 c 128,-1,74
 522.364257812 283.291015625 522.364257812 283.291015625 661.001953125 283.291015625 c 128,-1,75
EndSplineSet
EndChar

StartChar: uni03F7
Encoding: 1015 1015 113
Width: 946
VWidth: 100
Flags: W
LayerCount: 2
Fore
SplineSet
282.103515625 898 m 1,0,-1
 665.654296875 898 l 1,1,-1
 665.654296875 841.079101562 l 1,2,-1
 866.803710938 841.079101562 l 1,3,-1
 866.803710938 714.881835938 l 1,4,-1
 80 714.881835938 l 1,5,-1
 80 841.079101562 l 1,6,-1
 282.103515625 841.079101562 l 1,7,-1
 282.103515625 898 l 1,0,-1
151.69921875 667.245117188 m 1,8,-1
 796.075195312 667.245117188 l 1,9,-1
 796.075195312 -99.9951171875 l 1,10,-1
 151.69921875 -99.9951171875 l 1,11,-1
 151.69921875 667.245117188 l 1,8,-1
305.833007812 551.053710938 m 1,12,-1
 305.833007812 38.6328125 l 1,13,-1
 399.37109375 38.6328125 l 1,14,-1
 399.37109375 551.053710938 l 1,15,-1
 305.833007812 551.053710938 l 1,12,-1
547.432617188 551.053710938 m 1,16,-1
 547.432617188 38.6328125 l 1,17,-1
 640.969726562 38.6328125 l 1,18,-1
 640.969726562 551.053710938 l 1,19,-1
 547.432617188 551.053710938 l 1,16,-1
EndSplineSet
EndChar

StartChar: uni0404
Encoding: 1028 1028 114
Width: 1140
Flags: W
LayerCount: 2
Fore
SplineSet
823 896 m 1,0,-1
 1060 659 l 1,1,-1
 440 40 l 1,2,-1
 80 -84 l 1,3,-1
 203 277 l 1,4,-1
 823 896 l 1,0,-1
845 778 m 1,5,-1
 309 243 l 1,6,-1
 328 224 l 1,7,-1
 864 759 l 1,8,-1
 845 778 l 1,5,-1
921 703 m 1,9,-1
 385 167 l 1,10,-1
 405 148 l 1,11,-1
 941 684 l 1,12,-1
 921 703 l 1,9,-1
236 212 m 1,13,-1
 186 63 l 1,14,-1
 229 22 l 1,15,-1
 378 73 l 1,16,-1
 236 212 l 1,13,-1
EndSplineSet
EndChar

StartChar: uni042D
Encoding: 1069 1069 115
Width: 1144
Flags: W
LayerCount: 2
Fore
SplineSet
906.784179688 764 m 0,0,1
 1004.78417969 673 1004.78417969 673 1044.78417969 538 c 0,2,3
 1073.78417969 438 1073.78417969 438 1059.78417969 343 c 0,4,5
 1044.78417969 246 1044.78417969 246 1000.78417969 164 c 256,6,7
 956.784179688 82 956.784179688 82 878.784179688 20 c 0,8,9
 805.784179688 -39 805.784179688 -39 705.784179688 -69 c 0,10,11
 607.784179688 -99 607.784179688 -99 510.784179688 -85 c 0,12,13
 412.784179688 -70 412.784179688 -70 331.784179688 -26 c 0,14,15
 249.784179688 19 249.784179688 19 186.784179688 96 c 0,16,17
 121.784179688 178 121.784179688 178 97.7841796875 270 c 0,18,19
 63.7841796875 400 63.7841796875 400 94.7841796875 527 c 0,20,21
 124.784179688 648 124.784179688 648 215.784179688 744 c 0,22,23
 308.784179688 840 308.784179688 840 436.784179688 874 c 0,24,25
 566.784179688 910 566.784179688 910 689.784179688 879 c 0,26,27
 815.784179688 848 815.784179688 848 906.784179688 764 c 0,0,1
805.784179688 633 m 0,28,29
 743.784179688 696 743.784179688 696 658.284179688 719.5 c 128,-1,30
 572.784179688 743 572.784179688 743 481.784179688 718 c 0,31,32
 442.784179688 708 442.784179688 708 405.784179688 685 c 1,33,-1
 853.784179688 238 l 1,34,35
 924.784179688 359 924.784179688 359 886.784179688 493 c 0,36,37
 863.784179688 573 863.784179688 573 805.784179688 633 c 0,28,29
288.784179688 569 m 1,38,39
 217.784179688 449 217.784179688 449 255.784179688 314 c 0,40,41
 292.784179688 184 292.784179688 184 411.284179688 117.5 c 128,-1,42
 529.784179688 51 529.784179688 51 660.784179688 88 c 0,43,44
 698.784179688 99 698.784179688 99 736.784179688 121 c 1,45,-1
 288.784179688 569 l 1,38,39
EndSplineSet
EndChar

StartChar: uni042E
Encoding: 1070 1070 116
Width: 1148
Flags: W
LayerCount: 2
Fore
SplineSet
568.286132812 892 m 0,0,1
 766.286132812 894 766.286132812 894 911.286132812 759 c 0,2,3
 1013.28613281 665 1013.28613281 665 1051.28613281 532 c 1,4,5
 1084.28613281 396 1084.28613281 396 1054.28613281 273 c 128,-1,6
 1024.28613281 150 1024.28613281 150 931.786132812 53 c 128,-1,7
 839.286132812 -44 839.286132812 -44 709.286132812 -80 c 0,8,9
 573.286132812 -114 573.286132812 -114 450.286132812 -84 c 128,-1,10
 327.286132812 -54 327.286132812 -54 230.786132812 39 c 128,-1,11
 134.286132812 132 134.286132812 132 97.2861328125 261 c 1,12,13
 64.2861328125 397 64.2861328125 397 94.2861328125 520 c 128,-1,14
 124.286132812 643 124.286132812 643 216.786132812 739.5 c 128,-1,15
 309.286132812 836 309.286132812 836 439.286132812 872 c 0,16,17
 503.286132812 891 503.286132812 891 568.286132812 892 c 0,0,1
574.286132812 726 m 0,18,19
 528.286132812 726 528.286132812 726 484.286132812 714 c 0,20,21
 445.286132812 703 445.286132812 703 407.286132812 681 c 1,22,-1
 574.286132812 514 l 1,23,-1
 741.286132812 681 l 1,24,25
 662.286132812 726 662.286132812 726 574.286132812 726 c 0,18,19
858.286132812 564 m 1,26,-1
 691.286132812 396 l 1,27,-1
 858.286132812 229 l 1,28,29
 930.286132812 351 930.286132812 351 892.286132812 487 c 0,30,31
 880.286132812 527 880.286132812 527 858.286132812 564 c 1,26,-1
289.286132812 563 m 1,32,33
 218.286132812 442 218.286132812 442 256.286132812 306 c 0,34,35
 267.286132812 268 267.286132812 268 290.286132812 229 c 1,36,-1
 457.286132812 396 l 1,37,-1
 289.286132812 563 l 1,32,33
574.286132812 279 m 1,38,-1
 407.286132812 112 l 1,39,40
 529.286132812 41 529.286132812 41 664.286132812 79 c 0,41,42
 703.286132812 90 703.286132812 90 741.286132812 112 c 1,43,-1
 574.286132812 279 l 1,38,-1
EndSplineSet
EndChar

StartChar: uni0405
Encoding: 1029 1029 117
Width: 1182
Flags: W
LayerCount: 2
Fore
SplineSet
218.740234375 170 m 1,0,-1
 969.45703125 902.552734375 l 1,1,-1
 1102.25976562 766.272460938 l 1,2,-1
 348.740234375 30 l 1,3,-1
 79.740234375 -100 l 1,4,-1
 218.740234375 170 l 1,0,-1
318.740234375 49 m 1,5,-1
 233.740234375 136 l 1,6,-1
 154.740234375 -7 l 1,7,-1
 172.740234375 -26 l 1,8,-1
 318.740234375 49 l 1,5,-1
EndSplineSet
EndChar

StartChar: uni0444
Encoding: 1092 1092 118
Width: 868
Flags: W
LayerCount: 2
Fore
SplineSet
670 514 m 5,0,-1
 788 514 l 5,1,-1
 788 -43 l 5,2,-1
 80 -43 l 5,3,-1
 80 514 l 5,4,-1
 199 514 l 5,5,-1
 199 794 l 5,6,-1
 670 794 l 5,7,-1
 670 514 l 5,0,-1
564 514 m 5,8,-1
 564 688 l 5,9,-1
 305 688 l 5,10,-1
 305 514 l 5,11,-1
 564 514 l 5,8,-1
EndSplineSet
EndChar

StartChar: uni0445
Encoding: 1093 1093 119
Width: 857
Flags: W
LayerCount: 2
Fore
SplineSet
670 631.646484375 m 1,0,-1
 564 631.646484375 l 1,1,-1
 564 772 l 1,2,-1
 305 772 l 1,3,-1
 305 514 l 1,4,-1
 788 514 l 1,5,-1
 788 -43 l 1,6,-1
 80 -43 l 1,7,-1
 80 514 l 1,8,-1
 199 514 l 1,9,-1
 199 878 l 1,10,-1
 670 878 l 1,11,-1
 670 631.646484375 l 1,0,-1
EndSplineSet
EndChar

